0
SECTION
2
HEADER
9
$INSUNITS
70
4
9
$ACADVER
1
AC1014
9
$HANDSEED
5
FFFF
0
ENDSEC
0
SECTION
2
TABLES
0
TABLE
2
VPORT
5
8
100
AcDbSymbolTable
0
ENDTAB
0
TABLE
2
LTYPE
5
5
100
AcDbSymbolTable
0
LTYPE
5
14
100
AcDbSymbolTableRecord
100
AcDbLinetypeTableRecord
2
BYBLOCK
70
0
0
LTYPE
5
15
100
AcDbSymbolTableRecord
100
AcDbLinetypeTableRecord
2
BYLAYER
70
0
0
LTYPE
5
16
100
AcDbSymbolTableRecord
100
AcDbLinetypeTableRecord
2
DASHED
70
0
3
Dashed __ __ __ __ __ __ __ __ __ __ __ __ __ _
72
65
73
2
40
0.75
49
0.5
74
0
49
-0.25
74
0
0
ENDTAB
0
TABLE
2
LAYER
5
2
100
AcDbSymbolTable
70
3
0
LAYER
5
50
100
AcDbSymbolTableRecord
100
AcDbLayerTableRecord
2
1
70
0
62
7
6
DASHED
0
LAYER
5
51
100
AcDbSymbolTableRecord
100
AcDbLayerTableRecord
2
0
70
0
62
7
6
CONTINUOUS
0
ENDTAB
0
TABLE
2
STYLE
5
3
100
AcDbSymbolTable
70
1
0
STYLE
5
11
100
AcDbSymbolTableRecord
100
AcDbTextStyleTableRecord
2
STANDARD
70
0
0
ENDTAB
0
TABLE
2
VIEW
5
6
100
AcDbSymbolTable
70
0
0
ENDTAB
0
TABLE
2
UCS
5
7
100
AcDbSymbolTable
70
0
0
ENDTAB
0
TABLE
2
APPID
5
9
100
AcDbSymbolTable
70
2
0
APPID
5
12
100
AcDbSymbolTableRecord
100
AcDbRegAppTableRecord
2
ACAD
70
0
0
ENDTAB
0
TABLE
2
DIMSTYLE
5
A
100
AcDbSymbolTable
70
1
0
ENDTAB
0
TABLE
2
BLOCK_RECORD
5
1
100
AcDbSymbolTable
70
1
0
BLOCK_RECORD
5
1F
100
AcDbSymbolTableRecord
100
AcDbBlockTableRecord
2
*MODEL_SPACE
0
BLOCK_RECORD
5
1B
100
AcDbSymbolTableRecord
100
AcDbBlockTableRecord
2
*PAPER_SPACE
0
ENDTAB
0
ENDSEC
0
SECTION
2
BLOCKS
0
BLOCK
5
20
100
AcDbEntity
100
AcDbBlockBegin
2
*MODEL_SPACE
0
ENDBLK
5
21
100
AcDbEntity
100
AcDbBlockEnd
0
BLOCK
5
1C
100
AcDbEntity
100
AcDbBlockBegin
2
*PAPER_SPACE
0
ENDBLK
5
1D
100
AcDbEntity
100
AcDbBlockEnd
0
ENDSEC
0
SECTION
2
ENTITIES
0
POINT
5
100
100
AcDbEntity
8
0
100
AcDbPoint
10
16.050000000000001
20
-0.5499999999999905
30
0
0
POINT
5
101
100
AcDbEntity
8
0
100
AcDbPoint
10
16.050000000000001
20
-3.5499999999999909
30
0
0
POINT
5
102
100
AcDbEntity
8
0
100
AcDbPoint
10
8.2999999999999989
20
-3.5499999999999927
30
0
0
POINT
5
103
100
AcDbEntity
8
0
100
AcDbPoint
10
-0.79999997876584528
20
-11.206066215155843
30
0
0
POINT
5
104
100
AcDbEntity
8
0
100
AcDbPoint
10
2.7000000212341533
20
-11.206066215155843
30
0
0
POINT
5
105
100
AcDbEntity
8
0
100
AcDbPoint
10
-0.5499999787658455
20
-3.9499999390915033
30
0
0
POINT
5
106
100
AcDbEntity
8
0
100
AcDbPoint
10
-0.5499999787658455
20
-4.2499999390915031
30
0
0
POINT
5
107
100
AcDbEntity
8
0
100
AcDbPoint
10
0.95000002123415439
20
-9.5499999390915047
30
0
0
POINT
5
108
100
AcDbEntity
8
0
100
AcDbPoint
10
-1.7999999787658449
20
-7.249999939091504
30
0
0
LINE
5
109
100
AcDbEntity
8
0
100
AcDbLine
10
-0.54999997876584539
20
-0.5499999999999905
30
0
11
15.800000000000001
21
-0.5499999999999905
31
0
0
LINE
5
110
100
AcDbEntity
8
0
100
AcDbLine
10
16.050000000000001
20
-0.79999999999998961
30
0
11
16.050000000000001
21
-3.2999999999999918
31
0
0
LINE
5
111
100
AcDbEntity
8
0
100
AcDbLine
10
-0.79999997876584539
20
-3.0999999990906968
30
0
11
-0.79999997876584561
21
-0.79999999999999072
31
0
0
LINE
5
112
100
AcDbEntity
8
0
100
AcDbLine
10
8.2999999999999989
20
3.5499999999999994
30
0
11
8.2999999999999989
21
-5.4499999999999993
31
0
0
LINE
5
113
100
AcDbEntity
8
0
100
AcDbLine
10
15.800000000000001
20
-3.5499999999999909
30
0
11
8.2999999999999989
21
-3.5499999999999927
31
0
0
LINE
5
114
100
AcDbEntity
8
0
100
AcDbLine
10
-1.0499999787658454
20
-4.4499999390915033
30
0
11
-1.0499999787658454
21
-5.4499999390915033
31
0
0
LINE
5
115
100
AcDbEntity
8
0
100
AcDbLine
10
-0.79999997876584539
20
-3.0999999990906968
30
0
11
-0.79999997876584572
21
-6.9499999390915033
31
0
0
LINE
5
116
100
AcDbEntity
8
0
100
AcDbLine
10
2.7000000212341533
20
-6.9499999390915033
30
0
11
2.7000000212341546
21
-3.799999999999994
31
0
0
LINE
5
117
100
AcDbEntity
8
0
100
AcDbLine
10
2.9500000212341551
20
-5.4499999390915033
30
0
11
2.9500000212341551
21
-4.4499999390915033
31
0
0
LINE
5
118
100
AcDbEntity
8
0
100
AcDbLine
10
2.9500000212341537
20
-3.5499999999999949
30
0
11
8.2999999999999989
21
-3.5499999999999927
31
0
0
LINE
5
119
100
AcDbEntity
8
0
100
AcDbLine
10
-2.5000000000000009
20
-5.4500000000000002
30
0
11
19.100000000000001
21
-5.4500000000000002
31
0
0
LINE
5
120
100
AcDbEntity
8
1
100
AcDbLine
10
-0.79999997876584539
20
-4.2499999390915031
30
0
11
2.7000000212341546
21
-4.249999939091504
31
0
0
LINE
5
121
100
AcDbEntity
8
1
100
AcDbLine
10
-0.5499999787658455
20
-3.9499999390915033
30
0
11
-0.5499999787658455
21
-5.4500000000000002
31
0
0
LINE
5
122
100
AcDbEntity
8
1
100
AcDbLine
10
2.4500000212341542
20
-3.9499999390915033
30
0
11
-0.5499999787658455
21
-3.9499999390915033
31
0
0
LINE
5
123
100
AcDbEntity
8
1
100
AcDbLine
10
-0.79999997876584494
20
-7.249999939091504
30
0
11
2.7000000212341542
21
-7.249999939091504
31
0
0
LINE
5
124
100
AcDbEntity
8
1
100
AcDbLine
10
-0.79999997876584461
20
-0.81999993909150293
30
0
11
2.7000000212341559
21
-0.81999993909150293
31
0
0
LINE
5
125
100
AcDbEntity
8
1
100
AcDbLine
10
2.7000000212341559
20
-0.81999993909150293
30
0
11
2.7000000212341559
21
-3.0799999390915027
31
0
0
LINE
5
126
100
AcDbEntity
8
1
100
AcDbLine
10
2.7000000212341559
20
-3.0799999390915027
30
0
11
-0.79999997876584461
21
-3.0799999390915027
31
0
0
LINE
5
127
100
AcDbEntity
8
1
100
AcDbLine
10
-0.79999997876584461
20
-3.0799999390915027
30
0
11
-0.79999997876584461
21
-0.81999993909150293
31
0
0
LINE
5
128
100
AcDbEntity
8
1
100
AcDbLine
10
-1.8999999575316906
20
-5.4499998781830072
30
0
11
3.7999999999999998
21
-5.4500000000000002
31
0
0
LINE
5
129
100
AcDbEntity
8
1
100
AcDbLine
10
0.95000002123415472
20
-5.4499999390915033
30
0
11
0.95000002123415517
21
-0.81999993909150304
31
0
0
LINE
5
130
100
AcDbEntity
8
1
100
AcDbLine
10
2.7000000212341559
20
-1.9499999390915028
30
0
11
-0.79999997876584461
21
-1.9499999390915028
31
0
0
LINE
5
131
100
AcDbEntity
8
1
100
AcDbLine
10
-0.79999997876584494
20
-9.5499999390915047
30
0
11
2.7000000212341533
21
-9.5499999390915047
31
0
0
LINE
5
132
100
AcDbEntity
8
1
100
AcDbLine
10
0.95000002123415472
20
-5.4499999390915033
30
0
11
0.95000002123415406
21
-11.206066215155843
31
0
0
LINE
5
133
100
AcDbEntity
8
1
100
AcDbLine
10
2.6999999396502972
20
-10.679999939091505
30
0
11
-0.79999989718198827
21
-10.679999939091505
31
0
0
LINE
5
134
100
AcDbEntity
8
1
100
AcDbLine
10
-0.79999989718198827
20
-10.679999939091505
30
0
11
-0.79999989718198827
21
-8.4199999390915039
31
0
0
LINE
5
135
100
AcDbEntity
8
1
100
AcDbLine
10
-0.79999989718198827
20
-8.4199999390915039
30
0
11
2.6999999396502972
21
-8.4199999390915039
31
0
0
LINE
5
136
100
AcDbEntity
8
1
100
AcDbLine
10
2.6999999396502972
20
-8.4199999390915039
30
0
11
2.6999999396502972
21
-10.679999939091505
31
0
0
LINE
5
137
100
AcDbEntity
8
1
100
AcDbLine
10
2.6999999396502972
20
-10.679999939091505
30
0
11
-0.79999989718198827
21
-8.4199999390915039
31
0
0
LINE
5
138
100
AcDbEntity
8
1
100
AcDbLine
10
-0.79999989718198827
20
-10.679999939091505
30
0
11
2.6999999396502972
21
-8.4199999390915039
31
0
0
ARC
5
139
100
AcDbEntity
8
0
100
AcDbCircle
10
2.9500000212341537
20
-3.799999999999994
30
0
40
0.24999999999999911
210
0
220
-0
230
1
100
AcDbArc
50
90
51
180
0
ARC
5
140
100
AcDbEntity
8
0
100
AcDbCircle
10
15.800000000000001
20
-3.2999999999999918
30
0
40
0.24999999999999911
210
0
220
0
230
1
100
AcDbArc
50
-90
51
0
0
ARC
5
141
100
AcDbEntity
8
0
100
AcDbCircle
10
15.800000000000001
20
-0.79999999999998961
30
0
40
0.24999999999999911
210
-0
220
0
230
1
100
AcDbArc
50
0
51
90
0
ARC
5
142
100
AcDbEntity
8
0
100
AcDbCircle
10
-0.54999997876584539
20
-0.79999999999999072
30
0
40
0.25000000000000022
210
0
220
-0
230
1
100
AcDbArc
50
90
51
180
0
LINE
5
143
100
AcDbEntity
8
0
100
AcDbLine
10
0.94999999999999918
20
-0.050000000000000322
30
0
11
1.1499999999999992
21
-0.050000000000000114
31
0
0
LINE
5
144
100
AcDbEntity
8
0
100
AcDbLine
10
3.000000021234154
20
-7.249999939091504
30
0
11
3.3999999172985564
21
-7.249999939091504
31
0
0
LINE
5
145
100
AcDbEntity
8
0
100
AcDbLine
10
3.6999999172985558
20
-7.5499999390915029
30
0
11
3.7000000212341537
21
-11.247298638516305
31
0
0
LINE
5
146
100
AcDbEntity
8
0
100
AcDbLine
10
-1.0999999787658452
20
-7.249999939091504
30
0
11
-1.4999999787658449
21
-7.249999939091504
31
0
0
LINE
5
147
100
AcDbEntity
8
0
100
AcDbLine
10
-1.7999999787658449
20
-7.5499999390915038
30
0
11
-1.7999999787658452
21
-11.252703307877931
31
0
0
LINE
5
148
100
AcDbEntity
8
0
100
AcDbLine
10
-1.4996690808429483
20
-11.552703125388817
30
0
11
3.4003309191570512
21
-11.547298456027191
31
0
0
ARC
5
149
100
AcDbEntity
8
0
100
AcDbCircle
10
-1.4999999787658449
20
-7.5499999390915038
30
0
40
0.30000000000000027
210
0
220
-0
230
1
100
AcDbArc
50
90
51
180
0
ARC
5
150
100
AcDbEntity
8
0
100
AcDbCircle
10
3.3999999172985564
20
-7.5499999390915038
30
0
40
0.29999999999999971
210
0
220
-0
230
1
100
AcDbArc
50
0
51
90
0
ARC
5
151
100
AcDbEntity
8
0
100
AcDbCircle
10
3.4000000212341543
20
-11.247298638516305
30
0
40
0.29999999999999977
210
-0
220
0
230
1
100
AcDbArc
50
-89.936803139080425
51
0
0
ARC
5
152
100
AcDbEntity
8
0
100
AcDbCircle
10
-1.4999999787658451
20
-11.252703307877931
30
0
40
0.29999999999999999
210
0
220
0
230
1
100
AcDbArc
50
180
51
270.06319686091956
0
ARC
5
153
100
AcDbEntity
8
0
100
AcDbCircle
10
3.000000021234154
20
-6.9499999390915033
30
0
40
0.30000000000000027
210
0
220
0
230
1
100
AcDbArc
50
180
51
270
0
ARC
5
154
100
AcDbEntity
8
0
100
AcDbCircle
10
-1.0999999787658448
20
-6.949999939091505
30
0
40
0.29999999999999916
210
0
220
0
230
1
100
AcDbArc
50
-90.000000000000099
51
0
0
ENDSEC
0
SECTION
2
OBJECTS
0
DICTIONARY
5
C
100
AcDbDictionary
3
ACAD_GROUP
350
D
3
ACAD_MLINESTYLE
350
17
0
DICTIONARY
5
D
100
AcDbDictionary
0
DICTIONARY
5
1A
330
C
100
AcDbDictionary
0
DICTIONARY
5
17
100
AcDbDictionary
0
ENDSEC
0
EOF
