%TF.GenerationSoftware,KiCad,Pcbnew,8.0.2-1*%
%TF.CreationDate,2025-02-04T16:39:29+07:00*%
%TF.ProjectId,ESP32-iPod-BLE,45535033-322d-4695-906f-642d424c452e,rev?*%
%TF.SameCoordinates,Original*%
%TF.FileFunction,Copper,L1,Top*%
%TF.FilePolarity,Positive*%
%FSLAX46Y46*%
G04 Gerber Fmt 4.6, Leading zero omitted, Abs format (unit mm)*
G04 Created by KiCad (PCBNEW 8.0.2-1) date 2025-02-04 16:39:29*
%MOMM*%
%LPD*%
G01*
G04 APERTURE LIST*
G04 Aperture macros list*
%AMRoundRect*
0 Rectangle with rounded corners*
0 $1 Rounding radius*
0 $2 $3 $4 $5 $6 $7 $8 $9 X,Y pos of 4 corners*
0 Add a 4 corners polygon primitive as box body*
4,1,4,$2,$3,$4,$5,$6,$7,$8,$9,$2,$3,0*
0 Add four circle primitives for the rounded corners*
1,1,$1+$1,$2,$3*
1,1,$1+$1,$4,$5*
1,1,$1+$1,$6,$7*
1,1,$1+$1,$8,$9*
0 Add four rect primitives between the rounded corners*
20,1,$1+$1,$2,$3,$4,$5,0*
20,1,$1+$1,$4,$5,$6,$7,0*
20,1,$1+$1,$6,$7,$8,$9,0*
20,1,$1+$1,$8,$9,$2,$3,0*%
G04 Aperture macros list end*
%TA.AperFunction,SMDPad,CuDef*%
%ADD10RoundRect,0.100000X-0.225000X-0.100000X0.225000X-0.100000X0.225000X0.100000X-0.225000X0.100000X0*%
%TD*%
%TA.AperFunction,SMDPad,CuDef*%
%ADD11RoundRect,0.075000X-0.662500X-0.075000X0.662500X-0.075000X0.662500X0.075000X-0.662500X0.075000X0*%
%TD*%
%TA.AperFunction,SMDPad,CuDef*%
%ADD12R,0.800000X0.500000*%
%TD*%
%TA.AperFunction,SMDPad,CuDef*%
%ADD13R,0.800000X0.400000*%
%TD*%
%TA.AperFunction,SMDPad,CuDef*%
%ADD14RoundRect,0.140000X-0.140000X-0.170000X0.140000X-0.170000X0.140000X0.170000X-0.140000X0.170000X0*%
%TD*%
%TA.AperFunction,SMDPad,CuDef*%
%ADD15RoundRect,0.140000X0.140000X0.170000X-0.140000X0.170000X-0.140000X-0.170000X0.140000X-0.170000X0*%
%TD*%
%TA.AperFunction,SMDPad,CuDef*%
%ADD16RoundRect,0.250000X0.475000X-0.250000X0.475000X0.250000X-0.475000X0.250000X-0.475000X-0.250000X0*%
%TD*%
%TA.AperFunction,SMDPad,CuDef*%
%ADD17RoundRect,0.175000X-0.175000X-1.175000X0.175000X-1.175000X0.175000X1.175000X-0.175000X1.175000X0*%
%TD*%
%TA.AperFunction,SMDPad,CuDef*%
%ADD18RoundRect,0.250000X-0.300000X-0.700000X0.300000X-0.700000X0.300000X0.700000X-0.300000X0.700000X0*%
%TD*%
%TA.AperFunction,SMDPad,CuDef*%
%ADD19R,0.900000X0.900000*%
%TD*%
%TA.AperFunction,SMDPad,CuDef*%
%ADD20R,1.500000X0.900000*%
%TD*%
%TA.AperFunction,SMDPad,CuDef*%
%ADD21R,0.900000X1.500000*%
%TD*%
%TA.AperFunction,SMDPad,CuDef*%
%ADD22RoundRect,0.135000X0.185000X-0.135000X0.185000X0.135000X-0.185000X0.135000X-0.185000X-0.135000X0*%
%TD*%
%TA.AperFunction,SMDPad,CuDef*%
%ADD23RoundRect,0.093750X-0.106250X0.093750X-0.106250X-0.093750X0.106250X-0.093750X0.106250X0.093750X0*%
%TD*%
%TA.AperFunction,HeatsinkPad*%
%ADD24C,0.500000*%
%TD*%
%TA.AperFunction,HeatsinkPad*%
%ADD25R,1.600000X1.000000*%
%TD*%
%TA.AperFunction,SMDPad,CuDef*%
%ADD26RoundRect,0.218750X-0.256250X0.218750X-0.256250X-0.218750X0.256250X-0.218750X0.256250X0.218750X0*%
%TD*%
%TA.AperFunction,SMDPad,CuDef*%
%ADD27R,1.200000X1.400000*%
%TD*%
%TA.AperFunction,SMDPad,CuDef*%
%ADD28RoundRect,0.250000X-0.475000X0.250000X-0.475000X-0.250000X0.475000X-0.250000X0.475000X0.250000X0*%
%TD*%
%TA.AperFunction,ComponentPad*%
%ADD29O,1.700000X1.700000*%
%TD*%
%TA.AperFunction,ComponentPad*%
%ADD30R,1.700000X1.700000*%
%TD*%
%TA.AperFunction,ViaPad*%
%ADD31C,0.600000*%
%TD*%
%TA.AperFunction,Conductor*%
%ADD32C,0.200000*%
%TD*%
%TA.AperFunction,Conductor*%
%ADD33C,0.400000*%
%TD*%
%TA.AperFunction,Conductor*%
%ADD34C,0.300000*%
%TD*%
G04 APERTURE END LIST*
D10*
%TO.P,U4,1,S*%
%TO.N,I2C_SCK_3V3*%
X115100000Y-90450000D03*
%TO.P,U4,2,G*%
%TO.N,+3V3*%
X115100000Y-91100000D03*
%TO.P,U4,3,D*%
%TO.N,I2C_SDA_1V8*%
X115100000Y-91750000D03*
%TO.P,U4,4,S*%
%TO.N,I2C_SDA_3V3*%
X117000000Y-91750000D03*
%TO.P,U4,5,G*%
%TO.N,+3V3*%
X117000000Y-91100000D03*
%TO.P,U4,6,D*%
%TO.N,I2C_SCK_1V8*%
X117000000Y-90450000D03*
%TD*%
D11*
%TO.P,U3,30,VINR3/VIN3P*%
%TO.N,unconnected-(U3-VINR3{slash}VIN3P-Pad30)*%
X124862500Y-91500000D03*
%TO.P,U3,29,VINL3/VIN4P*%
%TO.N,unconnected-(U3-VINL3{slash}VIN4P-Pad29)*%
X124862500Y-92000000D03*
%TO.P,U3,28,VINR4/VIN3M*%
%TO.N,unconnected-(U3-VINR4{slash}VIN3M-Pad28)*%
X124862500Y-92500000D03*
%TO.P,U3,27,VINL4/VIN4M*%
%TO.N,unconnected-(U3-VINL4{slash}VIN4M-Pad27)*%
X124862500Y-93000000D03*
%TO.P,U3,26,MD0*%
%TO.N,MD0*%
X124862500Y-93500000D03*
%TO.P,U3,25,MD1*%
%TO.N,MD1*%
X124862500Y-94000000D03*
%TO.P,U3,24,MD2*%
%TO.N,MD2*%
X124862500Y-94500000D03*
%TO.P,U3,23,MD3*%
%TO.N,MD3*%
X124862500Y-95000000D03*
%TO.P,U3,22,MD4*%
%TO.N,GND*%
X124862500Y-95500000D03*
%TO.P,U3,21,MD5*%
X124862500Y-96000000D03*
%TO.P,U3,20,MD6*%
X124862500Y-96500000D03*
%TO.P,U3,19,INT*%
%TO.N,ADC_INT*%
X124862500Y-97000000D03*
%TO.P,U3,18,DOUT*%
%TO.N,I2S_DATA_3V3*%
X124862500Y-97500000D03*
%TO.P,U3,17,BCK*%
%TO.N,I2S_BCK_3V3*%
X124862500Y-98000000D03*
%TO.P,U3,16,LRCK*%
%TO.N,I2S_WS_3V3*%
X124862500Y-98500000D03*
%TO.P,U3,15,SCKI*%
%TO.N,Net-(JP6-B)*%
X119137500Y-98500000D03*
%TO.P,U3,14,IOVDD*%
%TO.N,+3V3*%
X119137500Y-98000000D03*
%TO.P,U3,13,DVDD*%
X119137500Y-97500000D03*
%TO.P,U3,12,DGND*%
%TO.N,GND*%
X119137500Y-97000000D03*
%TO.P,U3,11,LDO*%
%TO.N,Net-(U3-LDO)*%
X119137500Y-96500000D03*
%TO.P,U3,10,XI*%
%TO.N,Net-(U3-XI)*%
X119137500Y-96000000D03*
%TO.P,U3,9,XO*%
%TO.N,Net-(U3-XO)*%
X119137500Y-95500000D03*
%TO.P,U3,8,AVDD*%
%TO.N,+3V3*%
X119137500Y-95000000D03*
%TO.P,U3,7,AGND*%
%TO.N,GND*%
X119137500Y-94500000D03*
%TO.P,U3,6,VREF*%
%TO.N,Net-(U3-VREF)*%
X119137500Y-94000000D03*
%TO.P,U3,5,MIC_BIAS*%
%TO.N,unconnected-(U3-MIC_BIAS-Pad5)*%
X119137500Y-93500000D03*
%TO.P,U3,4,VINR1/VIN2P*%
%TO.N,Net-(U3-VINR1{slash}VIN2P)*%
X119137500Y-93000000D03*
%TO.P,U3,3,VINL1/VIN1P*%
%TO.N,Net-(U3-VINL1{slash}VIN1P)*%
X119137500Y-92500000D03*
%TO.P,U3,2,VINR2/VIN2M*%
%TO.N,unconnected-(U3-VINR2{slash}VIN2M-Pad2)*%
X119137500Y-92000000D03*
%TO.P,U3,1,VINL2/VIN1M*%
%TO.N,unconnected-(U3-VINL2{slash}VIN1M-Pad1)*%
X119137500Y-91500000D03*
%TD*%
D12*
%TO.P,RN1,1,R1.1*%
%TO.N,I2C_SDA_3V3*%
X112800000Y-92700000D03*
D13*
%TO.P,RN1,2,R2.1*%
%TO.N,I2C_SCK_3V3*%
X112800000Y-91900000D03*
%TO.P,RN1,3,R3.1*%
%TO.N,I2C_SDA_1V8*%
X112800000Y-91100000D03*
D12*
%TO.P,RN1,4,R4.1*%
%TO.N,I2C_SCK_1V8*%
X112800000Y-90300000D03*
%TO.P,RN1,5,R4.2*%
%TO.N,+1V8*%
X111000000Y-90300000D03*
D13*
%TO.P,RN1,6,R3.2*%
X111000000Y-91100000D03*
%TO.P,RN1,7,R2.2*%
%TO.N,+3V3*%
X111000000Y-91900000D03*
D12*
%TO.P,RN1,8,R1.2*%
X111000000Y-92700000D03*
%TD*%
D14*
%TO.P,C8,1*%
%TO.N,GND*%
X114651250Y-98200000D03*
%TO.P,C8,2*%
%TO.N,Net-(U3-XI)*%
X115611250Y-98200000D03*
%TD*%
D15*
%TO.P,C7,1*%
%TO.N,GND*%
X115600000Y-93000000D03*
%TO.P,C7,2*%
%TO.N,Net-(U3-XO)*%
X114640000Y-93000000D03*
%TD*%
D14*
%TO.P,C6,2*%
%TO.N,Net-(U3-VREF)*%
X117460000Y-93000000D03*
%TO.P,C6,1*%
%TO.N,GND*%
X116500000Y-93000000D03*
%TD*%
D15*
%TO.P,C5,1*%
%TO.N,Net-(U3-LDO)*%
X117480000Y-98200000D03*
%TO.P,C5,2*%
%TO.N,GND*%
X116520000Y-98200000D03*
%TD*%
D16*
%TO.P,C4,1*%
%TO.N,LINE_R*%
X113200000Y-98049999D03*
%TO.P,C4,2*%
%TO.N,Net-(U3-VINR1{slash}VIN2P)*%
X113200000Y-96150001D03*
%TD*%
%TO.P,C3,1*%
%TO.N,LINE_L*%
X111099998Y-98049999D03*
%TO.P,C3,2*%
%TO.N,Net-(U3-VINL1{slash}VIN1P)*%
X111099998Y-96150001D03*
%TD*%
D17*
%TO.P,J1,1,Pin_1*%
%TO.N,RX_2*%
X110950000Y-101300000D03*
%TO.P,J1,2,Pin_2*%
%TO.N,TX_2*%
X112450000Y-101300000D03*
%TO.P,J1,3,Pin_3*%
%TO.N,I2C_SDA_1V8*%
X113950000Y-101300000D03*
%TO.P,J1,4,Pin_4*%
%TO.N,I2C_SCK_1V8*%
X115450000Y-101300000D03*
%TO.P,J1,5,Pin_5*%
%TO.N,LINE_L*%
X116950000Y-101300000D03*
%TO.P,J1,6,Pin_6*%
%TO.N,LINE_R*%
X118450000Y-101300000D03*
%TO.P,J1,7,Pin_7*%
%TO.N,+1V8*%
X119950000Y-101300000D03*
%TO.P,J1,8,Pin_8*%
%TO.N,V_BATT*%
X121450000Y-101300000D03*
%TO.P,J1,9,Pin_9*%
%TO.N,GND*%
X122950000Y-101300000D03*
D18*
%TO.P,J1,MP*%
%TO.N,N/C*%
X109000000Y-105000000D03*
X124900000Y-105000000D03*
%TD*%
D19*
%TO.P,U2,39,GND_THERMAL*%
%TO.N,GND*%
X115050000Y-79760000D03*
X115050000Y-78360000D03*
X115050000Y-76960000D03*
X113650000Y-79760000D03*
X113650000Y-79760000D03*
X113650000Y-78360000D03*
X113650000Y-76960000D03*
X112250000Y-79760000D03*
X112250000Y-79760000D03*
X112250000Y-78360000D03*
X112250000Y-76960000D03*
X112250000Y-76960000D03*
D20*
%TO.P,U2,38,GND*%
X123900000Y-70640000D03*
%TO.P,U2,37,GPIO23*%
%TO.N,LED*%
X123900000Y-71910000D03*
%TO.P,U2,36,GPIO22*%
%TO.N,I2C_SCK_3V3*%
X123900000Y-73180000D03*
%TO.P,U2,35,U0TXD/GPIO1*%
%TO.N,TX_0*%
X123900000Y-74450000D03*
%TO.P,U2,34,U0RXD/GPIO3*%
%TO.N,RX_0*%
X123900000Y-75720000D03*
%TO.P,U2,33,GPIO21*%
%TO.N,I2C_SDA_3V3*%
X123900000Y-76990000D03*
%TO.P,U2,32*%
%TO.N,N/C*%
X123900000Y-78260000D03*
%TO.P,U2,31,GPIO19*%
%TO.N,RX_2*%
X123900000Y-79530000D03*
%TO.P,U2,30,GPIO18*%
%TO.N,TX_2*%
X123900000Y-80800000D03*
%TO.P,U2,29,GPIO5*%
%TO.N,unconnected-(U2-GPIO5-Pad29)*%
X123900000Y-82070000D03*
%TO.P,U2,28,GPIO17*%
%TO.N,I2S_WS_3V3*%
X123900000Y-83340000D03*
%TO.P,U2,27,GPIO16*%
%TO.N,I2S_DATA_3V3*%
X123900000Y-84610000D03*
%TO.P,U2,26,ADC2_CH0/GPIO4*%
%TO.N,unconnected-(U2-ADC2_CH0{slash}GPIO4-Pad26)*%
X123900000Y-85880000D03*
%TO.P,U2,25,GPIO0/BOOT/ADC2_CH1*%
%TO.N,IO0*%
X123900000Y-87150000D03*
D21*
%TO.P,U2,24,ADC2_CH2/GPIO2*%
%TO.N,unconnected-(U2-ADC2_CH2{slash}GPIO2-Pad24)*%
X120860000Y-88400000D03*
%TO.P,U2,23,MTDO/GPIO15/ADC2_CH3*%
%TO.N,unconnected-(U2-MTDO{slash}GPIO15{slash}ADC2_CH3-Pad23)*%
X119590000Y-88400000D03*
%TO.P,U2,22*%
%TO.N,N/C*%
X118320000Y-88400000D03*
%TO.P,U2,21*%
X117050000Y-88400000D03*
%TO.P,U2,20*%
X115780000Y-88400000D03*
%TO.P,U2,19*%
X114510000Y-88400000D03*
%TO.P,U2,18*%
X113240000Y-88400000D03*
%TO.P,U2,17*%
X111970000Y-88400000D03*
%TO.P,U2,16,MTCK/GPIO13/ADC2_CH4*%
%TO.N,MD2*%
X110700000Y-88400000D03*
%TO.P,U2,15,GND*%
%TO.N,GND*%
X109430000Y-88400000D03*
D20*
%TO.P,U2,14,MTDI/GPIO12/ADC2_CH5*%
%TO.N,unconnected-(U2-MTDI{slash}GPIO12{slash}ADC2_CH5-Pad14)*%
X106400000Y-87150000D03*
%TO.P,U2,13,MTMS/GPIO14/ADC2_CH6*%
%TO.N,unconnected-(U2-MTMS{slash}GPIO14{slash}ADC2_CH6-Pad13)*%
X106400000Y-85880000D03*
%TO.P,U2,12,ADC2_CH7/GPIO27*%
%TO.N,MD3*%
X106400000Y-84610000D03*
%TO.P,U2,11,DAC_2/ADC2_CH9/GPIO26*%
%TO.N,ADC_INT*%
X106400000Y-83340000D03*
%TO.P,U2,10,DAC_1/ADC2_CH8/GPIO25*%
%TO.N,I2S_BCK_3V3*%
X106400000Y-82070000D03*
%TO.P,U2,9,32K_XN/GPIO33/ADC1_CH5*%
%TO.N,MD1*%
X106400000Y-80800000D03*
%TO.P,U2,8,32K_XP/GPIO32/ADC1_CH4*%
%TO.N,MD0*%
X106400000Y-79530000D03*
%TO.P,U2,7,GPIO35/ADC1_CH7*%
%TO.N,unconnected-(U2-GPIO35{slash}ADC1_CH7-Pad7)*%
X106400000Y-78260000D03*
%TO.P,U2,6,GPIO34/ADC1_CH6*%
%TO.N,unconnected-(U2-GPIO34{slash}ADC1_CH6-Pad6)*%
X106400000Y-76990000D03*
%TO.P,U2,5,SENSOR_VN/GPIO39/ADC1_CH3*%
%TO.N,unconnected-(U2-SENSOR_VN{slash}GPIO39{slash}ADC1_CH3-Pad5)*%
X106400000Y-75720000D03*
%TO.P,U2,4,SENSOR_VP/GPIO36/ADC1_CH0*%
%TO.N,unconnected-(U2-SENSOR_VP{slash}GPIO36{slash}ADC1_CH0-Pad4)*%
X106400000Y-74450000D03*
%TO.P,U2,3,EN/CHIP_PU*%
%TO.N,RST*%
X106400000Y-73180000D03*
%TO.P,U2,2,3V3*%
%TO.N,+3V3*%
X106400000Y-71910000D03*
%TO.P,U2,1,GND*%
%TO.N,GND*%
X106400000Y-70640000D03*
%TD*%
D15*
%TO.P,C1,1*%
%TO.N,+3V3*%
X108880000Y-95400000D03*
%TO.P,C1,2*%
%TO.N,GND*%
X107920000Y-95400000D03*
%TD*%
D22*
%TO.P,R2,2*%
%TO.N,Net-(D1-A)*%
X125900000Y-74090001D03*
%TO.P,R2,1*%
%TO.N,LED*%
X125900000Y-75109999D03*
%TD*%
%TO.P,R1,1*%
%TO.N,+3V3*%
X104800000Y-72509999D03*
%TO.P,R1,2*%
%TO.N,RST*%
X104800000Y-71490001D03*
%TD*%
D23*
%TO.P,U1,1,OUT*%
%TO.N,+3V3*%
X109500000Y-96412500D03*
%TO.P,U1,2,SNS*%
X108850000Y-96412500D03*
%TO.P,U1,3,GND*%
%TO.N,GND*%
X108200000Y-96412500D03*
%TO.P,U1,4,EN*%
%TO.N,ENA*%
X108200000Y-98187500D03*
%TO.P,U1,5,GND*%
%TO.N,GND*%
X108850000Y-98187500D03*
%TO.P,U1,6,IN*%
%TO.N,V_BATT*%
X109500000Y-98187500D03*
D24*
%TO.P,U1,7,PAD*%
%TO.N,GND*%
X109400000Y-97300000D03*
D25*
X108850000Y-97300000D03*
D24*
X108300000Y-97300000D03*
%TD*%
D26*
%TO.P,D1,1,K*%
%TO.N,GND*%
X126000000Y-70900000D03*
%TO.P,D1,2,A*%
%TO.N,Net-(D1-A)*%
X126000000Y-72475002D03*
%TD*%
D27*
%TO.P,Y2,1,1*%
%TO.N,Net-(U3-XI)*%
X116800000Y-96700000D03*
%TO.P,Y2,2,2*%
%TO.N,GND*%
X116800000Y-94500000D03*
%TO.P,Y2,3,3*%
%TO.N,Net-(U3-XO)*%
X115100000Y-94500000D03*
%TO.P,Y2,4,4*%
%TO.N,GND*%
X115100000Y-96700000D03*
%TD*%
D28*
%TO.P,C2,1*%
%TO.N,+3V3*%
X108400000Y-92150001D03*
%TO.P,C2,2*%
%TO.N,GND*%
X108400000Y-94049999D03*
%TD*%
D29*
%TO.P,J2,6,Pin_6*%
%TO.N,RX_0*%
X105200000Y-93100000D03*
%TO.P,J2,5,Pin_5*%
%TO.N,TX_0*%
X105200000Y-95640000D03*
%TO.P,J2,4,Pin_4*%
%TO.N,+3V3*%
X105200000Y-98180000D03*
%TO.P,J2,3,Pin_3*%
%TO.N,IO0*%
X105200000Y-100720001D03*
%TO.P,J2,2,Pin_2*%
%TO.N,GND*%
X105200000Y-103260000D03*
D30*
%TO.P,J2,1,Pin_1*%
%TO.N,RST*%
X105200000Y-105800000D03*
%TD*%
D31*
%TO.N,GND*%
X123300000Y-96100000D03*
X109600000Y-86300000D03*
X108600000Y-86300000D03*
X109600000Y-85100000D03*
X108600000Y-85100000D03*
X117850000Y-94500000D03*
X117250000Y-86300000D03*
X118020000Y-86310000D03*
X118800000Y-86300000D03*
X121970000Y-83330000D03*
X121970000Y-82490000D03*
X121960000Y-81680000D03*
%TO.N,MD1*%
X121587851Y-85614579D03*
X108700000Y-80800000D03*
%TO.N,MD0*%
X122100000Y-85000000D03*
X108700000Y-79500000D03*
%TO.N,TX_0*%
X104900000Y-91200000D03*
%TO.N,I2C_SDA_3V3*%
X113614145Y-86200000D03*
%TO.N,I2C_SCK_3V3*%
X114000000Y-90500000D03*
%TO.N,I2S_BCK_3V3*%
X121792892Y-94007108D03*
X110500000Y-84200000D03*
%TO.N,IO0*%
X123900000Y-88200000D03*
%TO.N,ADC_INT*%
X122200000Y-94788865D03*
X109800000Y-83800000D03*
%TO.N,Net-(JP6-B)*%
X120329962Y-98546542D03*
%TO.N,I2C_SDA_3V3*%
X111900000Y-92700000D03*
X117900001Y-92017686D03*
%TO.N,I2C_SDA_1V8*%
X116000000Y-91694062D03*
%TO.N,+1V8*%
X110300000Y-91100000D03*
%TO.N,I2C_SCK_1V8*%
X115450000Y-103550000D03*
X111900000Y-90300000D03*
%TO.N,I2C_SDA_1V8*%
X113950000Y-103200000D03*
X111900000Y-91100000D03*
%TO.N,+1V8*%
X119900000Y-103300000D03*
%TO.N,Net-(U3-VINL1{slash}VIN1P)*%
X113200000Y-94499997D03*
X120450000Y-92694062D03*
%TO.N,Net-(U3-VINR1{slash}VIN2P)*%
X113200000Y-95300000D03*
X120450000Y-93494065D03*
%TO.N,RST*%
X108100000Y-73200000D03*
%TO.N,ENA*%
X108200000Y-99000000D03*
%TO.N,RX_2*%
X110950000Y-104600000D03*
%TO.N,TX_2*%
X112400000Y-104600000D03*
%TO.N,Net-(D1-A)*%
X125825000Y-73400000D03*
%TO.N,GND*%
X116600000Y-74800000D03*
X114600000Y-73800000D03*
X112600000Y-73800000D03*
X114600000Y-74800000D03*
X115600000Y-73800000D03*
X113600000Y-73800000D03*
X111800000Y-106200000D03*
X114800000Y-106200000D03*
X116200000Y-106200000D03*
X111600000Y-73800000D03*
X112600000Y-74800000D03*
X111600000Y-74800000D03*
X115600000Y-74800000D03*
X110200000Y-106200000D03*
X113600000Y-74800000D03*
X113400000Y-106200000D03*
X116600000Y-73800000D03*
%TO.N,RX_0*%
X116615642Y-81643761D03*
%TO.N,RX_2*%
X115400000Y-84800000D03*
%TO.N,TX_2*%
X116100000Y-85400000D03*
%TO.N,TX_0*%
X116059143Y-81069032D03*
%TO.N,I2C_SCK_3V3*%
X112820417Y-86100000D03*
%TO.N,RST*%
X104800000Y-70720000D03*
%TD*%
D32*
%TO.N,I2S_BCK_3V3*%
X108918529Y-82070000D02*
X106400000Y-82070000D01*
X110500000Y-84200000D02*
X110500000Y-83651471D01*
X110500000Y-83651471D02*
X108918529Y-82070000D01*
%TO.N,ADC_INT*%
X109800000Y-83800000D02*
X109700000Y-83700000D01*
X106760000Y-83700000D02*
X106400000Y-83340000D01*
X109700000Y-83700000D02*
X106760000Y-83700000D01*
%TO.N,GND*%
X122167157Y-99167157D02*
X118100000Y-99167157D01*
X119137500Y-97000000D02*
X118367590Y-97000000D01*
X118100000Y-97267590D02*
X118100000Y-99167157D01*
X118100000Y-99167157D02*
X117742843Y-99167157D01*
X118367590Y-97000000D02*
X118100000Y-97267590D01*
%TO.N,Net-(U3-LDO)*%
X117500000Y-98300000D02*
X117700000Y-98100000D01*
X117700000Y-97000000D02*
X118200000Y-96500000D01*
X117700000Y-98100000D02*
X117700000Y-97000000D01*
X118200000Y-96500000D02*
X119137500Y-96500000D01*
%TO.N,GND*%
X126000000Y-70900000D02*
X125900000Y-70900000D01*
X125900000Y-70900000D02*
X125640000Y-70640000D01*
D33*
X125640000Y-70640000D02*
X123900000Y-70640000D01*
D32*
%TO.N,MD3*%
X124862500Y-95000000D02*
X123634314Y-95000000D01*
X121550000Y-91794365D02*
X119205635Y-89450000D01*
X119205635Y-89450000D02*
X108250000Y-89450000D01*
X107350000Y-84610000D02*
X106400000Y-84610000D01*
X123634314Y-95000000D02*
X121550000Y-92915686D01*
X121550000Y-92915686D02*
X121550000Y-91794365D01*
X108250000Y-89450000D02*
X107630000Y-88830000D01*
X107630000Y-84890000D02*
X107350000Y-84610000D01*
X107630000Y-88830000D02*
X107630000Y-84890000D01*
D33*
%TO.N,GND*%
X116500000Y-93000000D02*
X116500000Y-94200000D01*
D32*
X116500000Y-94200000D02*
X116800000Y-94500000D01*
X124862500Y-95500000D02*
X123900000Y-95500000D01*
X123900000Y-95500000D02*
X123300000Y-96100000D01*
X124862500Y-96500000D02*
X123700000Y-96500000D01*
X123700000Y-96500000D02*
X123300000Y-96100000D01*
%TO.N,ADC_INT*%
X122200000Y-94788865D02*
X122200000Y-96434314D01*
X122200000Y-96434314D02*
X122765686Y-97000000D01*
X122765686Y-97000000D02*
X124862500Y-97000000D01*
%TO.N,I2S_BCK_3V3*%
X121792892Y-94007108D02*
X121600000Y-94200000D01*
X121600000Y-94200000D02*
X121600000Y-96400000D01*
X121600000Y-96400000D02*
X123200000Y-98000000D01*
X123200000Y-98000000D02*
X124862500Y-98000000D01*
%TO.N,MD2*%
X124862500Y-94500000D02*
X123700000Y-94500000D01*
X123700000Y-94500000D02*
X121950000Y-92750000D01*
X121379584Y-87279584D02*
X110870416Y-87279584D01*
X110870416Y-87279584D02*
X110700000Y-87450000D01*
X121950000Y-92750000D02*
X121950000Y-87850000D01*
X121950000Y-87850000D02*
X121379584Y-87279584D01*
X110700000Y-87450000D02*
X110700000Y-88400000D01*
%TO.N,I2S_DATA_3V3*%
X124862500Y-97500000D02*
X125632410Y-97500000D01*
X125632410Y-97500000D02*
X126100000Y-97032410D01*
X126100000Y-97032410D02*
X126100000Y-86280000D01*
X124430000Y-84610000D02*
X123900000Y-84610000D01*
X126100000Y-86280000D02*
X124430000Y-84610000D01*
%TO.N,I2S_WS_3V3*%
X123900000Y-83340000D02*
X124890000Y-83340000D01*
X126500000Y-97632410D02*
X125632410Y-98500000D01*
X124890000Y-83340000D02*
X126500000Y-84950000D01*
X126500000Y-84950000D02*
X126500000Y-97632410D01*
X125632410Y-98500000D02*
X124862500Y-98500000D01*
D34*
%TO.N,+3V3*%
X113900000Y-92850000D02*
X113400000Y-93350000D01*
X114685832Y-91000000D02*
X113900000Y-91785832D01*
X113900000Y-91785832D02*
X113900000Y-92850000D01*
X115100000Y-91000000D02*
X114685832Y-91000000D01*
X113400000Y-93350000D02*
X111100000Y-93350000D01*
X111100000Y-93350000D02*
X111000000Y-93250000D01*
X111000000Y-93250000D02*
X111000000Y-92700000D01*
X115100000Y-91000000D02*
X120119239Y-91000000D01*
X120119239Y-91000000D02*
X121100000Y-91980761D01*
X121100000Y-91980761D02*
X121100000Y-94400000D01*
D32*
%TO.N,I2C_SDA_1V8*%
X116000000Y-91694062D02*
X115955938Y-91650000D01*
X115955938Y-91650000D02*
X115100000Y-91650000D01*
%TO.N,I2C_SCK_3V3*%
X114150000Y-90350000D02*
X113500000Y-91000000D01*
X113500000Y-91000000D02*
X113500000Y-91550000D01*
X113500000Y-91550000D02*
X113150000Y-91900000D01*
X113150000Y-91900000D02*
X112800000Y-91900000D01*
%TO.N,Net-(D1-A)*%
X125900000Y-74090001D02*
X125900000Y-73475000D01*
X125900000Y-73475000D02*
X125825000Y-73400000D01*
X125800000Y-72675002D02*
X126000000Y-72475002D01*
X125825000Y-73400000D02*
X125800000Y-73375000D01*
X125800000Y-73375000D02*
X125800000Y-72675002D01*
%TO.N,LED*%
X126000000Y-74909999D02*
X125709999Y-74909999D01*
X125709999Y-74909999D02*
X125225000Y-74425000D01*
X125225000Y-74425000D02*
X125225000Y-72285000D01*
X125225000Y-72285000D02*
X124850000Y-71910000D01*
X124850000Y-71910000D02*
X123900000Y-71910000D01*
%TO.N,RST*%
X108100000Y-73200000D02*
X106950000Y-73200000D01*
X106930000Y-73180000D02*
X106400000Y-73180000D01*
X106950000Y-73200000D02*
X106930000Y-73180000D01*
%TO.N,GND*%
X108850000Y-98187500D02*
X108850000Y-97850000D01*
X108850000Y-97850000D02*
X108300000Y-97300000D01*
D33*
X108200000Y-96412500D02*
X108200000Y-97200000D01*
D32*
X108200000Y-97200000D02*
X108300000Y-97300000D01*
D33*
X108200000Y-96412500D02*
X108200000Y-95680000D01*
X108200000Y-95680000D02*
X107920000Y-95400000D01*
X107920000Y-95400000D02*
X107920000Y-94529999D01*
D32*
X108300000Y-96512500D02*
X108200000Y-96412500D01*
X116730000Y-98810000D02*
X115261250Y-98810000D01*
X116520000Y-98600000D02*
X116520000Y-98200000D01*
X117385686Y-98810000D02*
X116730000Y-98810000D01*
X116730000Y-98810000D02*
X116520000Y-98600000D01*
X122950000Y-101300000D02*
X122950000Y-99950000D01*
X122950000Y-99950000D02*
X122167157Y-99167157D01*
X117742843Y-99167157D02*
X117385686Y-98810000D01*
X115261250Y-98810000D02*
X114651250Y-98200000D01*
%TO.N,LINE_R*%
X118450000Y-101300000D02*
X118450000Y-100440000D01*
X117250000Y-99240000D02*
X113940002Y-99240000D01*
X118450000Y-100440000D02*
X117250000Y-99240000D01*
X113940002Y-99240000D02*
X113200000Y-98499998D01*
%TO.N,LINE_L*%
X116950000Y-101300000D02*
X116950000Y-99950000D01*
X116950000Y-99950000D02*
X116640000Y-99640000D01*
X116640000Y-99640000D02*
X112689999Y-99640000D01*
X112689999Y-99640000D02*
X111099998Y-98049999D01*
D33*
%TO.N,GND*%
X114651250Y-98200000D02*
X114651250Y-97148750D01*
D32*
%TO.N,Net-(U3-VINR1{slash}VIN2P)*%
X119907410Y-93000000D02*
X119137500Y-93000000D01*
X120450000Y-93494065D02*
X120401475Y-93494065D01*
X120401475Y-93494065D02*
X119907410Y-93000000D01*
D34*
%TO.N,GND*%
X119137500Y-94500000D02*
X116800000Y-94500000D01*
D32*
%TO.N,TX_0*%
X105200000Y-95640000D02*
X106350000Y-94490000D01*
X106350000Y-92623654D02*
X104926346Y-91200000D01*
X106350000Y-94490000D02*
X106350000Y-92623654D01*
X104926346Y-91200000D02*
X104900000Y-91200000D01*
%TO.N,+1V8*%
X119900000Y-103300000D02*
X119950000Y-103250000D01*
X119950000Y-103250000D02*
X119950000Y-101300000D01*
%TO.N,MD0*%
X124862500Y-93500000D02*
X124092590Y-93500000D01*
X124092590Y-93500000D02*
X122850000Y-92257410D01*
X122850000Y-85850000D02*
X122100000Y-85100000D01*
X122850000Y-92257410D02*
X122850000Y-85850000D01*
X122100000Y-85100000D02*
X122100000Y-85000000D01*
%TO.N,MD1*%
X121587851Y-85614579D02*
X122450000Y-86476728D01*
X122450000Y-86476728D02*
X122450000Y-92550000D01*
X123900000Y-94000000D02*
X124862500Y-94000000D01*
X122450000Y-92550000D02*
X123900000Y-94000000D01*
%TO.N,I2C_SDA_3V3*%
X113614145Y-86200000D02*
X113614145Y-85634385D01*
X113614145Y-85634385D02*
X122258530Y-76990000D01*
X122258530Y-76990000D02*
X123900000Y-76990000D01*
%TO.N,I2C_SCK_3V3*%
X112820417Y-85579583D02*
X114800000Y-83600000D01*
X112820417Y-86100000D02*
X112820417Y-85579583D01*
X114800000Y-83600000D02*
X114800000Y-81400000D01*
X114800000Y-81400000D02*
X123020000Y-73180000D01*
X123020000Y-73180000D02*
X123900000Y-73180000D01*
%TO.N,MD1*%
X106400000Y-80800000D02*
X108700000Y-80800000D01*
%TO.N,MD0*%
X108700000Y-79500000D02*
X108670000Y-79530000D01*
X108670000Y-79530000D02*
X106400000Y-79530000D01*
%TO.N,RX_2*%
X110950000Y-104600000D02*
X110950000Y-101300000D01*
%TO.N,TX_2*%
X112400000Y-104600000D02*
X112450000Y-104550000D01*
X112450000Y-104550000D02*
X112450000Y-101300000D01*
%TO.N,RX_2*%
X120500000Y-79700000D02*
X123730000Y-79700000D01*
X115400000Y-84800000D02*
X120500000Y-79700000D01*
X123730000Y-79700000D02*
X123900000Y-79530000D01*
%TO.N,TX_2*%
X116100000Y-85400000D02*
X120700000Y-80800000D01*
X120700000Y-80800000D02*
X123900000Y-80800000D01*
%TO.N,RX_0*%
X116615642Y-81643761D02*
X116656239Y-81643761D01*
X116656239Y-81643761D02*
X122580000Y-75720000D01*
X122580000Y-75720000D02*
X123900000Y-75720000D01*
%TO.N,IO0*%
X123900000Y-87150000D02*
X123900000Y-88200000D01*
%TO.N,TX_0*%
X122700000Y-74450000D02*
X123900000Y-74450000D01*
X116059143Y-81069032D02*
X116080968Y-81069032D01*
X116080968Y-81069032D02*
X122700000Y-74450000D01*
D34*
%TO.N,+3V3*%
X108880000Y-95400000D02*
X109100000Y-95400000D01*
X109100000Y-95400000D02*
X109800000Y-94700000D01*
X109800000Y-94700000D02*
X109800000Y-92200000D01*
X109800000Y-92200000D02*
X109500000Y-91900000D01*
X109500000Y-91900000D02*
X108650001Y-91900000D01*
D32*
%TO.N,+1V8*%
X111000000Y-91100000D02*
X110300000Y-91100000D01*
%TO.N,Net-(U3-VINL1{slash}VIN1P)*%
X120450000Y-92694062D02*
X120255938Y-92500000D01*
X120255938Y-92500000D02*
X119137500Y-92500000D01*
D34*
%TO.N,+3V3*%
X121100000Y-94400000D02*
X120500000Y-95000000D01*
X120500000Y-95000000D02*
X119137500Y-95000000D01*
D32*
%TO.N,I2C_SCK_3V3*%
X115100000Y-90350000D02*
X114150000Y-90350000D01*
X114000000Y-90500000D02*
X114150000Y-90350000D01*
D34*
%TO.N,+3V3*%
X121100000Y-94400000D02*
X121100000Y-94800000D01*
X120078120Y-97500000D02*
X120078120Y-97900000D01*
X120078120Y-97900000D02*
X119978120Y-98000000D01*
X121100000Y-96478120D02*
X120078120Y-97500000D01*
X120078120Y-97500000D02*
X119137500Y-97500000D01*
X121100000Y-94600000D02*
X121100000Y-96478120D01*
D32*
%TO.N,Net-(JP6-B)*%
X120283420Y-98500000D02*
X120329962Y-98546542D01*
X119137500Y-98500000D02*
X120283420Y-98500000D01*
D34*
%TO.N,+3V3*%
X119978120Y-98000000D02*
X119137500Y-98000000D01*
X111000000Y-91900000D02*
X108650001Y-91900000D01*
X108650001Y-91900000D02*
X108400000Y-92150001D01*
D32*
X115100000Y-91000000D02*
X114856544Y-91000000D01*
%TO.N,I2C_SDA_3V3*%
X117900001Y-92017686D02*
X117532315Y-91650000D01*
X117532315Y-91650000D02*
X117000000Y-91650000D01*
X111900000Y-92700000D02*
X112800000Y-92700000D01*
%TO.N,+3V3*%
X111000000Y-91900000D02*
X110800000Y-91900000D01*
%TO.N,I2C_SCK_1V8*%
X112800000Y-90300000D02*
X113200000Y-89900000D01*
X113200000Y-89900000D02*
X114000000Y-89900000D01*
X113800000Y-89900000D02*
X116500000Y-89900000D01*
X116500000Y-89900000D02*
X117000000Y-90400000D01*
%TO.N,+1V8*%
X111000000Y-91100000D02*
X111000000Y-90300000D01*
%TO.N,Net-(U3-VINL1{slash}VIN1P)*%
X112750002Y-94499997D02*
X111099998Y-96150001D01*
X113200000Y-94499997D02*
X112750002Y-94499997D01*
D34*
%TO.N,+3V3*%
X108400000Y-92150001D02*
X107290000Y-93260001D01*
X107290000Y-93260001D02*
X107290000Y-96290000D01*
X107290000Y-96290000D02*
X105400000Y-98180000D01*
X108400000Y-92150001D02*
X104800000Y-88550001D01*
X104800000Y-88550001D02*
X104800000Y-72509999D01*
X108880000Y-95400000D02*
X108850000Y-95430000D01*
X108850000Y-95430000D02*
X108850000Y-96412500D01*
D32*
%TO.N,I2C_SCK_1V8*%
X115450000Y-103550000D02*
X115450000Y-101300000D01*
%TO.N,I2C_SDA_1V8*%
X113950000Y-103200000D02*
X113950000Y-101300000D01*
%TO.N,I2C_SCK_1V8*%
X112800000Y-90300000D02*
X111900000Y-90300000D01*
%TO.N,I2C_SDA_1V8*%
X112800000Y-91100000D02*
X111900000Y-91100000D01*
D34*
%TO.N,+3V3*%
X111000000Y-92700000D02*
X111000000Y-91900000D01*
D32*
X111000000Y-92700000D02*
X110975000Y-92675000D01*
D34*
%TO.N,V_BATT*%
X109500000Y-98187500D02*
X109500000Y-100100000D01*
X109500000Y-100100000D02*
X107800000Y-101800000D01*
X107800000Y-101800000D02*
X107800000Y-106100000D01*
X107800000Y-106100000D02*
X108600000Y-106900000D01*
X108600000Y-106900000D02*
X119400000Y-106900000D01*
X121450000Y-104850000D02*
X121450000Y-101300000D01*
X119400000Y-106900000D02*
X121450000Y-104850000D01*
D32*
%TO.N,Net-(U3-VINR1{slash}VIN2P)*%
X113200000Y-96150001D02*
X113200000Y-95300000D01*
%TO.N,Net-(U3-VREF)*%
X117480000Y-93100000D02*
X117480000Y-93112410D01*
X117480000Y-93112410D02*
X118367590Y-94000000D01*
X118367590Y-94000000D02*
X118668750Y-94000000D01*
%TO.N,Net-(U3-XI)*%
X115611250Y-98200000D02*
X115611250Y-97988750D01*
X115611250Y-97988750D02*
X117600000Y-96000000D01*
X117600000Y-96000000D02*
X119137500Y-96000000D01*
%TO.N,Net-(U3-XO)*%
X119137500Y-95500000D02*
X115800000Y-95500000D01*
X115800000Y-95500000D02*
X115100000Y-94800000D01*
X115100000Y-94800000D02*
X115100000Y-94600000D01*
X114640000Y-93100000D02*
X114640000Y-94380000D01*
D34*
%TO.N,+3V3*%
X106400000Y-71910000D02*
X105399999Y-71910000D01*
X105399999Y-71910000D02*
X104800000Y-72509999D01*
D32*
%TO.N,RST*%
X106280000Y-73300000D02*
X106400000Y-73180000D01*
%TO.N,+3V3*%
X106110000Y-72200000D02*
X106400000Y-71910000D01*
D34*
X108850000Y-96412500D02*
X109500000Y-96412500D01*
D32*
%TO.N,ENA*%
X108200000Y-99000000D02*
X108200000Y-98187500D01*
%TO.N,LED*%
X123370000Y-71910000D02*
X123900000Y-71910000D01*
%TO.N,IO0*%
X123850000Y-87200000D02*
X123900000Y-87150000D01*
%TO.N,RST*%
X104800000Y-70720000D02*
X104800000Y-71490001D01*
%TD*%
%TA.AperFunction,Conductor*%
%TO.N,GND*%
G36*
X121467749Y-97132830D02*
G01*
X121512095Y-97161330D01*
X122831284Y-98480520D01*
X122831286Y-98480521D01*
X122831290Y-98480524D01*
X122968209Y-98559573D01*
X122968216Y-98559577D01*
X123120943Y-98600501D01*
X123120945Y-98600501D01*
X123286654Y-98600501D01*
X123286670Y-98600500D01*
X123514146Y-98600500D01*
X123581185Y-98620185D01*
X123626940Y-98672989D01*
X123637085Y-98708313D01*
X123639313Y-98725235D01*
X123639313Y-98725236D01*
X123694517Y-98858511D01*
X123697302Y-98865233D01*
X123789549Y-98985451D01*
X123909767Y-99077698D01*
X124049764Y-99135687D01*
X124162280Y-99150500D01*
X124162287Y-99150500D01*
X125562713Y-99150500D01*
X125562720Y-99150500D01*
X125675236Y-99135687D01*
X125815233Y-99077698D01*
X125815236Y-99077695D01*
X125817254Y-99076531D01*
X125847168Y-99064138D01*
X125864195Y-99059577D01*
X125920514Y-99027061D01*
X126001126Y-98980520D01*
X126112930Y-98868716D01*
X126112930Y-98868714D01*
X126123134Y-98858511D01*
X126123137Y-98858506D01*
X126387820Y-98593824D01*
X126449142Y-98560340D01*
X126518834Y-98565324D01*
X126574767Y-98607196D01*
X126599184Y-98672660D01*
X126599500Y-98681506D01*
X126599500Y-107775500D01*
X126579815Y-107842539D01*
X126527011Y-107888294D01*
X126475500Y-107899500D01*
X103924500Y-107899500D01*
X103857461Y-107879815D01*
X103811706Y-107827011D01*
X103800500Y-107775500D01*
X103800500Y-107111571D01*
X103820185Y-107044532D01*
X103872989Y-106998777D01*
X103942147Y-106988833D01*
X103998811Y-107012305D01*
X104107664Y-107093793D01*
X104107671Y-107093797D01*
X104242517Y-107144091D01*
X104242516Y-107144091D01*
X104249444Y-107144835D01*
X104302127Y-107150500D01*
X106097872Y-107150499D01*
X106157483Y-107144091D01*
X106292331Y-107093796D01*
X106407546Y-107007546D01*
X106493796Y-106892331D01*
X106544091Y-106757483D01*
X106550500Y-106697873D01*
X106550499Y-104902128D01*
X106544091Y-104842517D01*
X106520495Y-104779254D01*
X106493797Y-104707671D01*
X106493793Y-104707664D01*
X106407547Y-104592455D01*
X106407544Y-104592452D01*
X106292335Y-104506206D01*
X106292328Y-104506202D01*
X106160401Y-104456997D01*
X106104467Y-104415126D01*
X106080050Y-104349662D01*
X106094902Y-104281389D01*
X106116053Y-104253133D01*
X106238108Y-104131078D01*
X106373600Y-103937578D01*
X106473429Y-103723492D01*
X106473432Y-103723486D01*
X106530636Y-103510000D01*
X105633012Y-103510000D01*
X105665925Y-103452993D01*
X105700000Y-103325826D01*
X105700000Y-103194174D01*
X105665925Y-103067007D01*
X105633012Y-103010000D01*
X106530636Y-103010000D01*
X106530635Y-103009999D01*
X106473432Y-102796513D01*
X106473429Y-102796507D01*
X106373600Y-102582422D01*
X106373599Y-102582420D01*
X106238113Y-102388926D01*
X106238108Y-102388920D01*
X106071078Y-102221890D01*
X105885405Y-102091879D01*
X105841780Y-102037302D01*
X105834588Y-101967804D01*
X105866110Y-101905449D01*
X105885398Y-101888736D01*
X106071401Y-101758496D01*
X106238495Y-101591402D01*
X106374035Y-101397831D01*
X106473903Y-101183664D01*
X106535063Y-100955409D01*
X106555659Y-100720001D01*
X106535063Y-100484593D01*
X106473903Y-100256338D01*
X106374035Y-100042172D01*
X106373925Y-100042014D01*
X106238494Y-99848598D01*
X106071402Y-99681507D01*
X106071401Y-99681506D01*
X105885839Y-99551574D01*
X105842216Y-99496998D01*
X105835023Y-99427499D01*
X105866545Y-99365145D01*
X105885837Y-99348428D01*
X106071401Y-99218495D01*
X106238495Y-99051401D01*
X106374035Y-98857830D01*
X106473903Y-98643663D01*
X106535063Y-98415408D01*
X106555659Y-98180000D01*
X106541734Y-98020849D01*
X106555500Y-97952352D01*
X106577578Y-97922366D01*
X107338525Y-97161420D01*
X107399845Y-97127937D01*
X107469537Y-97132921D01*
X107525470Y-97174793D01*
X107549887Y-97240257D01*
X107549424Y-97262984D01*
X107545254Y-97300001D01*
X107545254Y-97300003D01*
X107564175Y-97467941D01*
X107564176Y-97467946D01*
X107622297Y-97634044D01*
X107620343Y-97634727D01*
X107630050Y-97693751D01*
X107605358Y-97754070D01*
X107574672Y-97794061D01*
X107514796Y-97938616D01*
X107514794Y-97938621D01*
X107499501Y-98054788D01*
X107499500Y-98054804D01*
X107499500Y-98320195D01*
X107499501Y-98320211D01*
X107514795Y-98436382D01*
X107527604Y-98467307D01*
X107535071Y-98536776D01*
X107518037Y-98580727D01*
X107474209Y-98650480D01*
X107414633Y-98820737D01*
X107414630Y-98820750D01*
X107394435Y-98999996D01*
X107394435Y-99000003D01*
X107414630Y-99179249D01*
X107414631Y-99179254D01*
X107474211Y-99349523D01*
X107538512Y-99451856D01*
X107570184Y-99502262D01*
X107697738Y-99629816D01*
X107742647Y-99658034D01*
X107794882Y-99690856D01*
X107850478Y-99725789D01*
X107978092Y-99770443D01*
X108020745Y-99785368D01*
X108020750Y-99785369D01*
X108199996Y-99805565D01*
X108200000Y-99805565D01*
X108200004Y-99805565D01*
X108379249Y-99785369D01*
X108379252Y-99785368D01*
X108379255Y-99785368D01*
X108549522Y-99725789D01*
X108605118Y-99690856D01*
X108657353Y-99658034D01*
X108659527Y-99656667D01*
X108726764Y-99637667D01*
X108793599Y-99658034D01*
X108838814Y-99711302D01*
X108849500Y-99761661D01*
X108849500Y-99779191D01*
X108829815Y-99846230D01*
X108813181Y-99866872D01*
X107294727Y-101385325D01*
X107294726Y-101385326D01*
X107223534Y-101491874D01*
X107174499Y-101610255D01*
X107174497Y-101610261D01*
X107149500Y-101735928D01*
X107149500Y-101735931D01*
X107149500Y-106164069D01*
X107149500Y-106164071D01*
X107149499Y-106164071D01*
X107174497Y-106289738D01*
X107174499Y-106289744D01*
X107213877Y-106384812D01*
X107223535Y-106408127D01*
X107294723Y-106514669D01*
X107294726Y-106514673D01*
X108185326Y-107405273D01*
X108185329Y-107405275D01*
X108185331Y-107405277D01*
X108291873Y-107476465D01*
X108410256Y-107525501D01*
X108410260Y-107525501D01*
X108410261Y-107525502D01*
X108535928Y-107550500D01*
X108535931Y-107550500D01*
X119464071Y-107550500D01*
X119548615Y-107533682D01*
X119589744Y-107525501D01*
X119708127Y-107476465D01*
X119814669Y-107405277D01*
X121955277Y-105264669D01*
X122026465Y-105158127D01*
X122075501Y-105039743D01*
X122078859Y-105022861D01*
X122093198Y-104950777D01*
X122100500Y-104914070D01*
X122100500Y-104249983D01*
X123849500Y-104249983D01*
X123849500Y-105750001D01*
X123849501Y-105750018D01*
X123860000Y-105852796D01*
X123860001Y-105852799D01*
X123915185Y-106019331D01*
X123915186Y-106019334D01*
X124007288Y-106168656D01*
X124131344Y-106292712D01*
X124280666Y-106384814D01*
X124447203Y-106439999D01*
X124549991Y-106450500D01*
X125250008Y-106450499D01*
X125250016Y-106450498D01*
X125250019Y-106450498D01*
X125306302Y-106444748D01*
X125352797Y-106439999D01*
X125519334Y-106384814D01*
X125668656Y-106292712D01*
X125792712Y-106168656D01*
X125884814Y-106019334D01*
X125939999Y-105852797D01*
X125950500Y-105750009D01*
X125950499Y-104249992D01*
X125939999Y-104147203D01*
X125884814Y-103980666D01*
X125792712Y-103831344D01*
X125668656Y-103707288D01*
X125575002Y-103649522D01*
X125519336Y-103615187D01*
X125519331Y-103615185D01*
X125502968Y-103609763D01*
X125352797Y-103560001D01*
X125352795Y-103560000D01*
X125250010Y-103549500D01*
X124549998Y-103549500D01*
X124549980Y-103549501D01*
X124447203Y-103560000D01*
X124447200Y-103560001D01*
X124280668Y-103615185D01*
X124280663Y-103615187D01*
X124131342Y-103707289D01*
X124007289Y-103831342D01*
X123915187Y-103980663D01*
X123915185Y-103980668D01*
X123902675Y-104018422D01*
X123860001Y-104147203D01*
X123860001Y-104147204D01*
X123860000Y-104147204D01*
X123849500Y-104249983D01*
X122100500Y-104249983D01*
X122100500Y-103054457D01*
X122120185Y-102987418D01*
X122172989Y-102941663D01*
X122242147Y-102931719D01*
X122305703Y-102960744D01*
X122312181Y-102966776D01*
X122355657Y-103010252D01*
X122355662Y-103010256D01*
X122495934Y-103095052D01*
X122652442Y-103143821D01*
X122652440Y-103143821D01*
X122699999Y-103148142D01*
X122700000Y-103148142D01*
X122700000Y-103148141D01*
X123200000Y-103148141D01*
X123247561Y-103143821D01*
X123247570Y-103143819D01*
X123404060Y-103095055D01*
X123404064Y-103095053D01*
X123544337Y-103010256D01*
X123544342Y-103010252D01*
X123660252Y-102894342D01*
X123660256Y-102894337D01*
X123745052Y-102754065D01*
X123793820Y-102597562D01*
X123800000Y-102529556D01*
X123800000Y-101550000D01*
X123200000Y-101550000D01*
X123200000Y-103148141D01*
X122700000Y-103148141D01*
X122700000Y-101050000D01*
X123200000Y-101050000D01*
X123799999Y-101050000D01*
X123799999Y-100070433D01*
X123793821Y-100002438D01*
X123793818Y-100002427D01*
X123745055Y-99845939D01*
X123745053Y-99845935D01*
X123660256Y-99705662D01*
X123660252Y-99705657D01*
X123544342Y-99589747D01*
X123544337Y-99589743D01*
X123404065Y-99504947D01*
X123247562Y-99456179D01*
X123200000Y-99451856D01*
X123200000Y-101050000D01*
X122700000Y-101050000D01*
X122700000Y-99451857D01*
X122699999Y-99451857D01*
X122652441Y-99456178D01*
X122495934Y-99504947D01*
X122355662Y-99589743D01*
X122355656Y-99589748D01*
X122288032Y-99657371D01*
X122226708Y-99690856D01*
X122157017Y-99685870D01*
X122112671Y-99657370D01*
X122044652Y-99589351D01*
X122044648Y-99589348D01*
X121904272Y-99504488D01*
X121904263Y-99504485D01*
X121747664Y-99455687D01*
X121747662Y-99455686D01*
X121747657Y-99455685D01*
X121679594Y-99449500D01*
X121220406Y-99449500D01*
X121152343Y-99455685D01*
X121152339Y-99455686D01*
X121152335Y-99455687D01*
X120995736Y-99504485D01*
X120995727Y-99504488D01*
X120855351Y-99589348D01*
X120787681Y-99657018D01*
X120726357Y-99690502D01*
X120656666Y-99685517D01*
X120612319Y-99657018D01*
X120585116Y-99629815D01*
X120544653Y-99589352D01*
X120544650Y-99589350D01*
X120544648Y-99589348D01*
X120487238Y-99554643D01*
X120440050Y-99503116D01*
X120428211Y-99434257D01*
X120455479Y-99369928D01*
X120510431Y-99331485D01*
X120679484Y-99272331D01*
X120832224Y-99176358D01*
X120959778Y-99048804D01*
X121055751Y-98896064D01*
X121115330Y-98725797D01*
X121115331Y-98725791D01*
X121135527Y-98546545D01*
X121135527Y-98546538D01*
X121115331Y-98367292D01*
X121115330Y-98367287D01*
X121055750Y-98197018D01*
X120968075Y-98057485D01*
X120959778Y-98044280D01*
X120832224Y-97916726D01*
X120832221Y-97916724D01*
X120809807Y-97902640D01*
X120763516Y-97850305D01*
X120752869Y-97781252D01*
X120781244Y-97717403D01*
X120788088Y-97709977D01*
X121336734Y-97161330D01*
X121398057Y-97127846D01*
X121467749Y-97132830D01*
G37*
%TD.AperFunction*%
%TA.AperFunction,Conductor*%
G36*
X117743334Y-102914481D02*
G01*
X117787681Y-102942982D01*
X117855347Y-103010648D01*
X117855351Y-103010651D01*
X117995727Y-103095511D01*
X117995730Y-103095512D01*
X118152343Y-103144315D01*
X118220406Y-103150500D01*
X118220409Y-103150500D01*
X118679591Y-103150500D01*
X118679594Y-103150500D01*
X118747657Y-103144315D01*
X118904270Y-103095512D01*
X118917481Y-103087525D01*
X118985033Y-103069687D01*
X119051507Y-103091202D01*
X119095797Y-103145241D01*
X119104853Y-103207522D01*
X119094435Y-103299994D01*
X119094435Y-103300003D01*
X119114630Y-103479249D01*
X119114631Y-103479254D01*
X119174211Y-103649523D01*
X119229494Y-103737504D01*
X119270184Y-103802262D01*
X119397738Y-103929816D01*
X119478665Y-103980666D01*
X119537424Y-104017587D01*
X119550478Y-104025789D01*
X119672316Y-104068422D01*
X119720745Y-104085368D01*
X119720750Y-104085369D01*
X119899996Y-104105565D01*
X119900000Y-104105565D01*
X119900004Y-104105565D01*
X120079249Y-104085369D01*
X120079252Y-104085368D01*
X120079255Y-104085368D01*
X120249522Y-104025789D01*
X120402262Y-103929816D01*
X120529816Y-103802262D01*
X120570506Y-103737503D01*
X120622841Y-103691213D01*
X120691894Y-103680565D01*
X120755743Y-103708940D01*
X120794115Y-103767330D01*
X120799500Y-103803476D01*
X120799500Y-104529192D01*
X120779815Y-104596231D01*
X120763181Y-104616873D01*
X119166873Y-106213181D01*
X119105550Y-106246666D01*
X119079192Y-106249500D01*
X110065021Y-106249500D01*
X109997982Y-106229815D01*
X109952227Y-106177011D01*
X109942283Y-106107853D01*
X109959481Y-106060405D01*
X109984814Y-106019334D01*
X110039999Y-105852797D01*
X110050500Y-105750009D01*
X110050499Y-105103473D01*
X110070183Y-105036436D01*
X110122987Y-104990681D01*
X110192146Y-104980737D01*
X110255702Y-105009762D01*
X110279492Y-105037502D01*
X110320182Y-105102260D01*
X110320184Y-105102262D01*
X110447738Y-105229816D01*
X110600478Y-105325789D01*
X110770745Y-105385368D01*
X110770750Y-105385369D01*
X110949996Y-105405565D01*
X110950000Y-105405565D01*
X110950004Y-105405565D01*
X111129249Y-105385369D01*
X111129252Y-105385368D01*
X111129255Y-105385368D01*
X111299522Y-105325789D01*
X111452262Y-105229816D01*
X111579816Y-105102262D01*
X111579816Y-105102261D01*
X111584740Y-105097338D01*
X111586174Y-105098772D01*
X111635241Y-105064332D01*
X111705052Y-105061482D01*
X111765322Y-105096827D01*
X111769044Y-105101122D01*
X111770184Y-105102262D01*
X111897738Y-105229816D01*
X112050478Y-105325789D01*
X112220745Y-105385368D01*
X112220750Y-105385369D01*
X112399996Y-105405565D01*
X112400000Y-105405565D01*
X112400004Y-105405565D01*
X112579249Y-105385369D01*
X112579252Y-105385368D01*
X112579255Y-105385368D01*
X112749522Y-105325789D01*
X112902262Y-105229816D01*
X113029816Y-105102262D01*
X113125789Y-104949522D01*
X113185368Y-104779255D01*
X113193434Y-104707669D01*
X113205565Y-104600003D01*
X113205565Y-104599996D01*
X113185369Y-104420750D01*
X113185366Y-104420737D01*
X113125790Y-104250481D01*
X113125789Y-104250478D01*
X113084335Y-104184504D01*
X113069506Y-104160903D01*
X113050500Y-104094931D01*
X113050500Y-103703476D01*
X113070185Y-103636437D01*
X113122989Y-103590682D01*
X113192147Y-103580738D01*
X113255703Y-103609763D01*
X113279493Y-103637503D01*
X113320184Y-103702262D01*
X113447738Y-103829816D01*
X113450167Y-103831342D01*
X113558669Y-103899519D01*
X113600478Y-103925789D01*
X113757313Y-103980668D01*
X113770745Y-103985368D01*
X113770750Y-103985369D01*
X113949996Y-104005565D01*
X113950000Y-104005565D01*
X113950004Y-104005565D01*
X114129249Y-103985369D01*
X114129252Y-103985368D01*
X114129255Y-103985368D01*
X114299522Y-103925789D01*
X114452262Y-103829816D01*
X114496106Y-103785971D01*
X114557427Y-103752487D01*
X114627118Y-103757471D01*
X114683052Y-103799342D01*
X114700827Y-103832698D01*
X114724209Y-103899519D01*
X114724211Y-103899522D01*
X114820184Y-104052262D01*
X114947738Y-104179816D01*
X114955199Y-104184504D01*
X115060200Y-104250481D01*
X115100478Y-104275789D01*
X115210985Y-104314457D01*
X115270745Y-104335368D01*
X115270750Y-104335369D01*
X115449996Y-104355565D01*
X115450000Y-104355565D01*
X115450004Y-104355565D01*
X115629249Y-104335369D01*
X115629252Y-104335368D01*
X115629255Y-104335368D01*
X115799522Y-104275789D01*
X115952262Y-104179816D01*
X116079816Y-104052262D01*
X116175789Y-103899522D01*
X116235368Y-103729255D01*
X116235369Y-103729249D01*
X116255565Y-103550003D01*
X116255565Y-103549996D01*
X116235369Y-103370750D01*
X116235368Y-103370745D01*
X116175788Y-103200475D01*
X116136803Y-103138432D01*
X116117802Y-103071195D01*
X116138169Y-103004360D01*
X116191437Y-102959145D01*
X116260693Y-102949907D01*
X116323950Y-102979579D01*
X116329477Y-102984778D01*
X116355347Y-103010648D01*
X116355351Y-103010651D01*
X116495727Y-103095511D01*
X116495730Y-103095512D01*
X116652343Y-103144315D01*
X116720406Y-103150500D01*
X116720409Y-103150500D01*
X117179591Y-103150500D01*
X117179594Y-103150500D01*
X117247657Y-103144315D01*
X117404270Y-103095512D01*
X117405030Y-103095053D01*
X117544648Y-103010651D01*
X117544647Y-103010651D01*
X117544653Y-103010648D01*
X117612319Y-102942982D01*
X117673642Y-102909497D01*
X117743334Y-102914481D01*
G37*
%TD.AperFunction*%
%TA.AperFunction,Conductor*%
G36*
X118321198Y-99134731D02*
G01*
X118324755Y-99135683D01*
X118324764Y-99135687D01*
X118437280Y-99150500D01*
X119751886Y-99150500D01*
X119818925Y-99170185D01*
X119826341Y-99175503D01*
X119827697Y-99176355D01*
X119827700Y-99176358D01*
X119883105Y-99211171D01*
X119897961Y-99220506D01*
X119944252Y-99272841D01*
X119954900Y-99341895D01*
X119926525Y-99405743D01*
X119868135Y-99444115D01*
X119831989Y-99449500D01*
X119720406Y-99449500D01*
X119652343Y-99455685D01*
X119652339Y-99455686D01*
X119652335Y-99455687D01*
X119495736Y-99504485D01*
X119495727Y-99504488D01*
X119355351Y-99589348D01*
X119287681Y-99657018D01*
X119226357Y-99690502D01*
X119156666Y-99685517D01*
X119112319Y-99657018D01*
X119085116Y-99629815D01*
X119044653Y-99589352D01*
X119044650Y-99589350D01*
X119044648Y-99589348D01*
X118904272Y-99504488D01*
X118904263Y-99504485D01*
X118747664Y-99455687D01*
X118747662Y-99455686D01*
X118747657Y-99455685D01*
X118679594Y-99449500D01*
X118679591Y-99449500D01*
X118360097Y-99449500D01*
X118293058Y-99429815D01*
X118272416Y-99413181D01*
X118201421Y-99342186D01*
X118167936Y-99280863D01*
X118172920Y-99211171D01*
X118214792Y-99155238D01*
X118280256Y-99130821D01*
X118321198Y-99134731D01*
G37*
%TD.AperFunction*%
%TA.AperFunction,Conductor*%
G36*
X108372035Y-96976924D02*
G01*
X108404187Y-96994730D01*
X108418828Y-97005965D01*
X108444059Y-97025326D01*
X108444062Y-97025328D01*
X108535012Y-97063000D01*
X108588620Y-97085205D01*
X108588626Y-97085205D01*
X108596470Y-97087308D01*
X108595984Y-97089118D01*
X108650407Y-97113194D01*
X108688877Y-97171519D01*
X108689708Y-97241384D01*
X108658006Y-97295546D01*
X108653553Y-97299999D01*
X108653553Y-97300000D01*
X108715314Y-97361761D01*
X108748799Y-97423084D01*
X108743815Y-97492776D01*
X108701943Y-97548709D01*
X108636479Y-97573126D01*
X108580181Y-97564003D01*
X108461383Y-97514796D01*
X108461378Y-97514794D01*
X108345211Y-97499501D01*
X108345208Y-97499500D01*
X108345202Y-97499500D01*
X108197309Y-97499500D01*
X108130270Y-97479815D01*
X108109628Y-97463181D01*
X108034128Y-97387681D01*
X108000643Y-97326358D01*
X108003950Y-97280109D01*
X108200000Y-97280109D01*
X108200000Y-97319891D01*
X108215224Y-97356645D01*
X108243355Y-97384776D01*
X108280109Y-97400000D01*
X108319891Y-97400000D01*
X108356645Y-97384776D01*
X108384776Y-97356645D01*
X108400000Y-97319891D01*
X108400000Y-97280109D01*
X108384776Y-97243355D01*
X108356645Y-97215224D01*
X108319891Y-97200000D01*
X108280109Y-97200000D01*
X108243355Y-97215224D01*
X108215224Y-97243355D01*
X108200000Y-97280109D01*
X108003950Y-97280109D01*
X108005627Y-97256666D01*
X108034128Y-97212319D01*
X108241021Y-97005425D01*
X108302344Y-96971940D01*
X108372035Y-96976924D01*
G37*
%TD.AperFunction*%
%TA.AperFunction,Conductor*%
G36*
X109222449Y-97078506D02*
G01*
X109238620Y-97085205D01*
X109354798Y-97100500D01*
X109354805Y-97100500D01*
X109502691Y-97100500D01*
X109569730Y-97120185D01*
X109590372Y-97136819D01*
X109665872Y-97212319D01*
X109699357Y-97273642D01*
X109694373Y-97343334D01*
X109665872Y-97387681D01*
X109590372Y-97463181D01*
X109529049Y-97496666D01*
X109502691Y-97499500D01*
X109354798Y-97499500D01*
X109354792Y-97499500D01*
X109354788Y-97499501D01*
X109238621Y-97514794D01*
X109238616Y-97514796D01*
X109119818Y-97564003D01*
X109050348Y-97571472D01*
X108987869Y-97540196D01*
X108952218Y-97480107D01*
X108954712Y-97410282D01*
X108984685Y-97361760D01*
X109046446Y-97299999D01*
X109041994Y-97295547D01*
X109033564Y-97280109D01*
X109300000Y-97280109D01*
X109300000Y-97319891D01*
X109315224Y-97356645D01*
X109343355Y-97384776D01*
X109380109Y-97400000D01*
X109419891Y-97400000D01*
X109456645Y-97384776D01*
X109484776Y-97356645D01*
X109500000Y-97319891D01*
X109500000Y-97280109D01*
X109484776Y-97243355D01*
X109456645Y-97215224D01*
X109419891Y-97200000D01*
X109380109Y-97200000D01*
X109343355Y-97215224D01*
X109315224Y-97243355D01*
X109300000Y-97280109D01*
X109033564Y-97280109D01*
X109008509Y-97234224D01*
X109013493Y-97164532D01*
X109055365Y-97108599D01*
X109103934Y-97088818D01*
X109103530Y-97087308D01*
X109111372Y-97085205D01*
X109111380Y-97085205D01*
X109127548Y-97078507D01*
X109197016Y-97071039D01*
X109222449Y-97078506D01*
G37*
%TD.AperFunction*%
%TA.AperFunction,Conductor*%
G36*
X123027402Y-95242906D02*
G01*
X123034841Y-95249762D01*
X123149453Y-95364374D01*
X123149463Y-95364385D01*
X123153793Y-95368715D01*
X123153794Y-95368716D01*
X123265598Y-95480520D01*
X123333081Y-95519481D01*
X123402529Y-95559577D01*
X123545857Y-95597981D01*
X123605516Y-95634345D01*
X123636045Y-95697192D01*
X123636701Y-95701567D01*
X123640861Y-95733159D01*
X123637915Y-95733546D01*
X123637915Y-95766451D01*
X123640861Y-95766839D01*
X123629911Y-95849999D01*
X123629912Y-95850000D01*
X124712500Y-95850000D01*
X124712500Y-95774500D01*
X124732185Y-95707461D01*
X124784989Y-95661706D01*
X124836500Y-95650500D01*
X124888500Y-95650500D01*
X124955539Y-95670185D01*
X125001294Y-95722989D01*
X125012500Y-95774500D01*
X125012500Y-96225500D01*
X124992815Y-96292539D01*
X124940011Y-96338294D01*
X124888500Y-96349500D01*
X124836500Y-96349500D01*
X124769461Y-96329815D01*
X124723706Y-96277011D01*
X124712500Y-96225500D01*
X124712500Y-96150000D01*
X123629912Y-96150000D01*
X123640861Y-96233161D01*
X123637915Y-96233548D01*
X123637915Y-96266449D01*
X123640861Y-96266837D01*
X123637590Y-96291684D01*
X123609324Y-96355581D01*
X123551000Y-96394053D01*
X123514651Y-96399500D01*
X123065783Y-96399500D01*
X122998744Y-96379815D01*
X122978102Y-96363181D01*
X122836819Y-96221898D01*
X122803334Y-96160575D01*
X122800500Y-96134217D01*
X122800500Y-95371277D01*
X122820185Y-95304238D01*
X122827555Y-95293962D01*
X122829812Y-95291131D01*
X122829816Y-95291127D01*
X122842167Y-95271470D01*
X122894500Y-95225180D01*
X122963553Y-95214531D01*
X123027402Y-95242906D01*
G37*
%TD.AperFunction*%
%TA.AperFunction,Conductor*%
G36*
X117784032Y-94269685D02*
G01*
X117804674Y-94286319D01*
X117882729Y-94364374D01*
X117882750Y-94364397D01*
X117967995Y-94449642D01*
X118001480Y-94510965D01*
X117996496Y-94580657D01*
X117967996Y-94625004D01*
X117933022Y-94659977D01*
X117923315Y-94693039D01*
X117870511Y-94738794D01*
X117819000Y-94750000D01*
X116674000Y-94750000D01*
X116606961Y-94730315D01*
X116561206Y-94677511D01*
X116550000Y-94626000D01*
X116550000Y-94374000D01*
X116569685Y-94306961D01*
X116622489Y-94261206D01*
X116674000Y-94250000D01*
X117716993Y-94250000D01*
X117784032Y-94269685D01*
G37*
%TD.AperFunction*%
%TA.AperFunction,Conductor*%
G36*
X116622539Y-92769685D02*
G01*
X116668294Y-92822489D01*
X116679500Y-92874000D01*
X116679500Y-93126000D01*
X116659815Y-93193039D01*
X116607011Y-93238794D01*
X116555500Y-93250000D01*
X115544500Y-93250000D01*
X115477461Y-93230315D01*
X115431706Y-93177511D01*
X115420500Y-93126000D01*
X115420500Y-92874000D01*
X115440185Y-92806961D01*
X115492989Y-92761206D01*
X115544500Y-92750000D01*
X116555500Y-92750000D01*
X116622539Y-92769685D01*
G37*
%TD.AperFunction*%
%TA.AperFunction,Conductor*%
G36*
X122593039Y-70120185D02*
G01*
X122638794Y-70172989D01*
X122650000Y-70224500D01*
X122650000Y-70390000D01*
X124026000Y-70390000D01*
X124093039Y-70409685D01*
X124138794Y-70462489D01*
X124150000Y-70514000D01*
X124150000Y-70766000D01*
X124130315Y-70833039D01*
X124077511Y-70878794D01*
X124026000Y-70890000D01*
X122650000Y-70890000D01*
X122650000Y-71137844D01*
X122656401Y-71197372D01*
X122656403Y-71197379D01*
X122668925Y-71230952D01*
X122673909Y-71300643D01*
X122668925Y-71317617D01*
X122655909Y-71352514D01*
X122655908Y-71352516D01*
X122649501Y-71412116D01*
X122649501Y-71412123D01*
X122649500Y-71412135D01*
X122649500Y-72407870D01*
X122649501Y-72407876D01*
X122655908Y-72467481D01*
X122668659Y-72501669D01*
X122673642Y-72571361D01*
X122668659Y-72588331D01*
X122655908Y-72622517D01*
X122651870Y-72660076D01*
X122625131Y-72724627D01*
X122616263Y-72734498D01*
X122539480Y-72811283D01*
X122539478Y-72811286D01*
X116172015Y-79178748D01*
X116110692Y-79212233D01*
X116041000Y-79207249D01*
X115985067Y-79165377D01*
X115968153Y-79134403D01*
X115956565Y-79103336D01*
X115951579Y-79033644D01*
X115956564Y-79016666D01*
X115993597Y-78917376D01*
X115993598Y-78917372D01*
X115999999Y-78857844D01*
X116000000Y-78857827D01*
X116000000Y-78610000D01*
X115300000Y-78610000D01*
X115300000Y-79886000D01*
X115280315Y-79953039D01*
X115227511Y-79998794D01*
X115176000Y-80010000D01*
X113900000Y-80010000D01*
X113900000Y-80710000D01*
X114147828Y-80710000D01*
X114147844Y-80709999D01*
X114207372Y-80703598D01*
X114207376Y-80703597D01*
X114306666Y-80666564D01*
X114376358Y-80661580D01*
X114393336Y-80666565D01*
X114424403Y-80678153D01*
X114480335Y-80720025D01*
X114504751Y-80785490D01*
X114489898Y-80853763D01*
X114468749Y-80882014D01*
X114431287Y-80919477D01*
X114431286Y-80919478D01*
X114319481Y-81031282D01*
X114319477Y-81031287D01*
X114277222Y-81104477D01*
X114277222Y-81104478D01*
X114240423Y-81168214D01*
X114240423Y-81168215D01*
X114199499Y-81320943D01*
X114199499Y-81320945D01*
X114199499Y-81489046D01*
X114199500Y-81489059D01*
X114199500Y-83299902D01*
X114179815Y-83366941D01*
X114163181Y-83387583D01*
X112339898Y-85210865D01*
X112339894Y-85210870D01*
X112299684Y-85280518D01*
X112299684Y-85280519D01*
X112260840Y-85347797D01*
X112260840Y-85347798D01*
X112219916Y-85500526D01*
X112219916Y-85500528D01*
X112219916Y-85517589D01*
X112200231Y-85584628D01*
X112192862Y-85594903D01*
X112190601Y-85597737D01*
X112094628Y-85750476D01*
X112035048Y-85920745D01*
X112035047Y-85920750D01*
X112014852Y-86099996D01*
X112014852Y-86100003D01*
X112035047Y-86279249D01*
X112035048Y-86279254D01*
X112094628Y-86449522D01*
X112119504Y-86489112D01*
X112138504Y-86556348D01*
X112118136Y-86623184D01*
X112064869Y-86668398D01*
X112014510Y-86679084D01*
X110957086Y-86679084D01*
X110957070Y-86679083D01*
X110949474Y-86679083D01*
X110791359Y-86679083D01*
X110714995Y-86699545D01*
X110638630Y-86720007D01*
X110638625Y-86720010D01*
X110501706Y-86799059D01*
X110501698Y-86799065D01*
X110219481Y-87081282D01*
X110219477Y-87081287D01*
X110207979Y-87101203D01*
X110157411Y-87149417D01*
X110143926Y-87155383D01*
X110107618Y-87168925D01*
X110037926Y-87173909D01*
X110020952Y-87168925D01*
X109987379Y-87156403D01*
X109987372Y-87156401D01*
X109927844Y-87150000D01*
X109680000Y-87150000D01*
X109680000Y-88526000D01*
X109660315Y-88593039D01*
X109607511Y-88638794D01*
X109556000Y-88650000D01*
X108479999Y-88650000D01*
X108477297Y-88652702D01*
X108415974Y-88686187D01*
X108346282Y-88681201D01*
X108301936Y-88652701D01*
X108266819Y-88617584D01*
X108233334Y-88556261D01*
X108230500Y-88529903D01*
X108230500Y-87602155D01*
X108480000Y-87602155D01*
X108480000Y-88150000D01*
X109180000Y-88150000D01*
X109180000Y-87150000D01*
X108932155Y-87150000D01*
X108872627Y-87156401D01*
X108872620Y-87156403D01*
X108737913Y-87206645D01*
X108737906Y-87206649D01*
X108622812Y-87292809D01*
X108622809Y-87292812D01*
X108536649Y-87407906D01*
X108536645Y-87407913D01*
X108486403Y-87542620D01*
X108486401Y-87542627D01*
X108480000Y-87602155D01*
X108230500Y-87602155D01*
X108230500Y-84979060D01*
X108230501Y-84979047D01*
X108230501Y-84810945D01*
X108230501Y-84810943D01*
X108189577Y-84658215D01*
X108189031Y-84657270D01*
X108166089Y-84617533D01*
X108110520Y-84521284D01*
X108101417Y-84512181D01*
X108067932Y-84450858D01*
X108072916Y-84381166D01*
X108114788Y-84325233D01*
X108180252Y-84300816D01*
X108189098Y-84300500D01*
X109117059Y-84300500D01*
X109184098Y-84320185D01*
X109204740Y-84336818D01*
X109297738Y-84429816D01*
X109379617Y-84481264D01*
X109443303Y-84521281D01*
X109450478Y-84525789D01*
X109518306Y-84549523D01*
X109620745Y-84585368D01*
X109620750Y-84585369D01*
X109750803Y-84600022D01*
X109815217Y-84627088D01*
X109841912Y-84657268D01*
X109870184Y-84702262D01*
X109997738Y-84829816D01*
X110150478Y-84925789D01*
X110302681Y-84979047D01*
X110320745Y-84985368D01*
X110320750Y-84985369D01*
X110499996Y-85005565D01*
X110500000Y-85005565D01*
X110500004Y-85005565D01*
X110679249Y-84985369D01*
X110679252Y-84985368D01*
X110679255Y-84985368D01*
X110849522Y-84925789D01*
X111002262Y-84829816D01*
X111129816Y-84702262D01*
X111225789Y-84549522D01*
X111285368Y-84379255D01*
X111286390Y-84370184D01*
X111305565Y-84200003D01*
X111305565Y-84199996D01*
X111285369Y-84020750D01*
X111285368Y-84020745D01*
X111225788Y-83850476D01*
X111129815Y-83697737D01*
X111127555Y-83694903D01*
X111126665Y-83692724D01*
X111126111Y-83691842D01*
X111126265Y-83691744D01*
X111101146Y-83630216D01*
X111100501Y-83617589D01*
X111100501Y-83572415D01*
X111059576Y-83419685D01*
X111059573Y-83419680D01*
X110980524Y-83282761D01*
X110980518Y-83282753D01*
X109406119Y-81708355D01*
X109406117Y-81708352D01*
X109287244Y-81589479D01*
X109272093Y-81580732D01*
X109223878Y-81530164D01*
X109210656Y-81461557D01*
X109236624Y-81396693D01*
X109246397Y-81385680D01*
X109329816Y-81302262D01*
X109425789Y-81149522D01*
X109485368Y-80979255D01*
X109492103Y-80919480D01*
X109505565Y-80800003D01*
X109505565Y-80799996D01*
X109485369Y-80620750D01*
X109485368Y-80620745D01*
X109426354Y-80452093D01*
X109425789Y-80450478D01*
X109329816Y-80297738D01*
X109289922Y-80257844D01*
X111300000Y-80257844D01*
X111306401Y-80317372D01*
X111306403Y-80317379D01*
X111356645Y-80452086D01*
X111356649Y-80452093D01*
X111442809Y-80567187D01*
X111442812Y-80567190D01*
X111557906Y-80653350D01*
X111557913Y-80653354D01*
X111692620Y-80703596D01*
X111692627Y-80703598D01*
X111752155Y-80709999D01*
X111752172Y-80710000D01*
X112000000Y-80710000D01*
X112500000Y-80710000D01*
X112747828Y-80710000D01*
X112747844Y-80709999D01*
X112807372Y-80703598D01*
X112807376Y-80703597D01*
X112906666Y-80666564D01*
X112976358Y-80661580D01*
X112993334Y-80666564D01*
X113092623Y-80703597D01*
X113092627Y-80703598D01*
X113152155Y-80709999D01*
X113152172Y-80710000D01*
X113400000Y-80710000D01*
X113400000Y-80010000D01*
X112500000Y-80010000D01*
X112500000Y-80710000D01*
X112000000Y-80710000D01*
X112000000Y-80010000D01*
X111300000Y-80010000D01*
X111300000Y-80257844D01*
X109289922Y-80257844D01*
X109269759Y-80237681D01*
X109236274Y-80176358D01*
X109241258Y-80106666D01*
X109269759Y-80062319D01*
X109329816Y-80002262D01*
X109425789Y-79849522D01*
X109485368Y-79679255D01*
X109485369Y-79679249D01*
X109505565Y-79500003D01*
X109505565Y-79499996D01*
X109485369Y-79320750D01*
X109485368Y-79320745D01*
X109425788Y-79150476D01*
X109351425Y-79032129D01*
X109329816Y-78997738D01*
X109202262Y-78870184D01*
X109182623Y-78857844D01*
X111300000Y-78857844D01*
X111306401Y-78917372D01*
X111306403Y-78917383D01*
X111343434Y-79016668D01*
X111348418Y-79086360D01*
X111343434Y-79103332D01*
X111306403Y-79202616D01*
X111306401Y-79202627D01*
X111300000Y-79262155D01*
X111300000Y-79510000D01*
X112000000Y-79510000D01*
X112500000Y-79510000D01*
X113400000Y-79510000D01*
X113900000Y-79510000D01*
X114800000Y-79510000D01*
X114800000Y-78610000D01*
X113900000Y-78610000D01*
X113900000Y-79510000D01*
X113400000Y-79510000D01*
X113400000Y-78610000D01*
X112500000Y-78610000D01*
X112500000Y-79510000D01*
X112000000Y-79510000D01*
X112000000Y-78610000D01*
X111300000Y-78610000D01*
X111300000Y-78857844D01*
X109182623Y-78857844D01*
X109078225Y-78792246D01*
X109049523Y-78774211D01*
X108879254Y-78714631D01*
X108879249Y-78714630D01*
X108700004Y-78694435D01*
X108699996Y-78694435D01*
X108520750Y-78714630D01*
X108520745Y-78714631D01*
X108350476Y-78774211D01*
X108197737Y-78870184D01*
X108174741Y-78893181D01*
X108113418Y-78926666D01*
X108087060Y-78929500D01*
X107770094Y-78929500D01*
X107703055Y-78909815D01*
X107657300Y-78857011D01*
X107646804Y-78792246D01*
X107650500Y-78757873D01*
X107650499Y-77762128D01*
X107644091Y-77702517D01*
X107631340Y-77668332D01*
X107626357Y-77598642D01*
X107631338Y-77581672D01*
X107644091Y-77547483D01*
X107650500Y-77487873D01*
X107650500Y-77457844D01*
X111300000Y-77457844D01*
X111306401Y-77517372D01*
X111306403Y-77517383D01*
X111343434Y-77616668D01*
X111348418Y-77686360D01*
X111343434Y-77703332D01*
X111306403Y-77802616D01*
X111306401Y-77802627D01*
X111300000Y-77862155D01*
X111300000Y-78110000D01*
X112000000Y-78110000D01*
X112500000Y-78110000D01*
X113400000Y-78110000D01*
X113900000Y-78110000D01*
X114800000Y-78110000D01*
X115300000Y-78110000D01*
X116000000Y-78110000D01*
X116000000Y-77862172D01*
X115999999Y-77862155D01*
X115993598Y-77802627D01*
X115993597Y-77802623D01*
X115956564Y-77703334D01*
X115951580Y-77633642D01*
X115956564Y-77616666D01*
X115993597Y-77517376D01*
X115993598Y-77517372D01*
X115999999Y-77457844D01*
X116000000Y-77457827D01*
X116000000Y-77210000D01*
X115300000Y-77210000D01*
X115300000Y-78110000D01*
X114800000Y-78110000D01*
X114800000Y-77210000D01*
X113900000Y-77210000D01*
X113900000Y-78110000D01*
X113400000Y-78110000D01*
X113400000Y-77210000D01*
X112500000Y-77210000D01*
X112500000Y-78110000D01*
X112000000Y-78110000D01*
X112000000Y-77210000D01*
X111300000Y-77210000D01*
X111300000Y-77457844D01*
X107650500Y-77457844D01*
X107650499Y-76492128D01*
X107647277Y-76462155D01*
X111300000Y-76462155D01*
X111300000Y-76710000D01*
X112000000Y-76710000D01*
X112500000Y-76710000D01*
X113400000Y-76710000D01*
X113900000Y-76710000D01*
X114800000Y-76710000D01*
X115300000Y-76710000D01*
X116000000Y-76710000D01*
X116000000Y-76462172D01*
X115999999Y-76462155D01*
X115993598Y-76402627D01*
X115993596Y-76402620D01*
X115943354Y-76267913D01*
X115943350Y-76267906D01*
X115857190Y-76152812D01*
X115857187Y-76152809D01*
X115742093Y-76066649D01*
X115742086Y-76066645D01*
X115607379Y-76016403D01*
X115607372Y-76016401D01*
X115547844Y-76010000D01*
X115300000Y-76010000D01*
X115300000Y-76710000D01*
X114800000Y-76710000D01*
X114800000Y-76010000D01*
X114552155Y-76010000D01*
X114492627Y-76016401D01*
X114492616Y-76016403D01*
X114393332Y-76053434D01*
X114323640Y-76058418D01*
X114306668Y-76053434D01*
X114207383Y-76016403D01*
X114207372Y-76016401D01*
X114147844Y-76010000D01*
X113900000Y-76010000D01*
X113900000Y-76710000D01*
X113400000Y-76710000D01*
X113400000Y-76010000D01*
X113152155Y-76010000D01*
X113092627Y-76016401D01*
X113092616Y-76016403D01*
X112993332Y-76053434D01*
X112923640Y-76058418D01*
X112906668Y-76053434D01*
X112807383Y-76016403D01*
X112807372Y-76016401D01*
X112747844Y-76010000D01*
X112500000Y-76010000D01*
X112500000Y-76710000D01*
X112000000Y-76710000D01*
X112000000Y-76010000D01*
X111752155Y-76010000D01*
X111692627Y-76016401D01*
X111692620Y-76016403D01*
X111557913Y-76066645D01*
X111557906Y-76066649D01*
X111442812Y-76152809D01*
X111442809Y-76152812D01*
X111356649Y-76267906D01*
X111356645Y-76267913D01*
X111306403Y-76402620D01*
X111306401Y-76402627D01*
X111300000Y-76462155D01*
X107647277Y-76462155D01*
X107644091Y-76432517D01*
X107631340Y-76398332D01*
X107626357Y-76328642D01*
X107631338Y-76311672D01*
X107644091Y-76277483D01*
X107650500Y-76217873D01*
X107650499Y-75222128D01*
X107644091Y-75162517D01*
X107631340Y-75128332D01*
X107626357Y-75058642D01*
X107631338Y-75041672D01*
X107644091Y-75007483D01*
X107650500Y-74947873D01*
X107650499Y-74065566D01*
X107670183Y-73998528D01*
X107722987Y-73952773D01*
X107792146Y-73942829D01*
X107815454Y-73948525D01*
X107920745Y-73985368D01*
X107920750Y-73985369D01*
X108099996Y-74005565D01*
X108100000Y-74005565D01*
X108100004Y-74005565D01*
X108279249Y-73985369D01*
X108279252Y-73985368D01*
X108279255Y-73985368D01*
X108449522Y-73925789D01*
X108602262Y-73829816D01*
X108729816Y-73702262D01*
X108825789Y-73549522D01*
X108885368Y-73379255D01*
X108905565Y-73200000D01*
X108897632Y-73129594D01*
X108885369Y-73020750D01*
X108885368Y-73020745D01*
X108834626Y-72875734D01*
X108825789Y-72850478D01*
X108729816Y-72697738D01*
X108602262Y-72570184D01*
X108562182Y-72545000D01*
X108449523Y-72474211D01*
X108279254Y-72414631D01*
X108279249Y-72414630D01*
X108100004Y-72394435D01*
X108099996Y-72394435D01*
X107920750Y-72414630D01*
X107920742Y-72414632D01*
X107815453Y-72451474D01*
X107745674Y-72455035D01*
X107685047Y-72420306D01*
X107652820Y-72358312D01*
X107650499Y-72334441D01*
X107650499Y-71412128D01*
X107644091Y-71352517D01*
X107631073Y-71317616D01*
X107626090Y-71247926D01*
X107631075Y-71230949D01*
X107643597Y-71197375D01*
X107643598Y-71197372D01*
X107649999Y-71137844D01*
X107650000Y-71137827D01*
X107650000Y-70890000D01*
X106274000Y-70890000D01*
X106206961Y-70870315D01*
X106161206Y-70817511D01*
X106150000Y-70766000D01*
X106150000Y-70514000D01*
X106169685Y-70446961D01*
X106222489Y-70401206D01*
X106274000Y-70390000D01*
X107650000Y-70390000D01*
X107650000Y-70224500D01*
X107669685Y-70157461D01*
X107722489Y-70111706D01*
X107774000Y-70100500D01*
X122526000Y-70100500D01*
X122593039Y-70120185D01*
G37*
%TD.AperFunction*%
%TA.AperFunction,Conductor*%
G36*
X122596945Y-81420185D02*
G01*
X122642700Y-81472989D01*
X122653195Y-81537752D01*
X122649500Y-81572127D01*
X122649500Y-81572128D01*
X122649500Y-81572132D01*
X122649500Y-82567870D01*
X122649501Y-82567876D01*
X122655908Y-82627481D01*
X122668659Y-82661669D01*
X122673642Y-82731361D01*
X122668659Y-82748331D01*
X122655908Y-82782518D01*
X122649501Y-82842116D01*
X122649501Y-82842123D01*
X122649500Y-82842135D01*
X122649500Y-83837870D01*
X122649501Y-83837876D01*
X122655908Y-83897481D01*
X122668659Y-83931669D01*
X122673642Y-84001361D01*
X122668659Y-84018331D01*
X122655908Y-84052518D01*
X122649501Y-84112116D01*
X122649500Y-84112135D01*
X122649500Y-84175503D01*
X122629815Y-84242542D01*
X122577011Y-84288297D01*
X122507853Y-84298241D01*
X122459532Y-84280499D01*
X122449526Y-84274212D01*
X122279254Y-84214631D01*
X122279249Y-84214630D01*
X122100004Y-84194435D01*
X122099996Y-84194435D01*
X121920750Y-84214630D01*
X121920745Y-84214631D01*
X121750476Y-84274211D01*
X121597737Y-84370184D01*
X121470184Y-84497737D01*
X121374210Y-84650478D01*
X121317869Y-84811494D01*
X121277147Y-84868271D01*
X121241789Y-84887579D01*
X121238330Y-84888789D01*
X121238326Y-84888791D01*
X121085588Y-84984763D01*
X120958035Y-85112316D01*
X120862062Y-85265055D01*
X120802482Y-85435324D01*
X120802481Y-85435329D01*
X120782286Y-85614575D01*
X120782286Y-85614582D01*
X120802481Y-85793828D01*
X120802482Y-85793833D01*
X120862062Y-85964102D01*
X120947451Y-86099996D01*
X120958035Y-86116841D01*
X121085589Y-86244395D01*
X121238329Y-86340368D01*
X121408596Y-86399947D01*
X121495520Y-86409740D01*
X121559931Y-86436805D01*
X121569316Y-86445279D01*
X121601978Y-86477941D01*
X121635463Y-86539264D01*
X121630479Y-86608956D01*
X121588607Y-86664889D01*
X121523143Y-86689306D01*
X121482205Y-86685397D01*
X121458641Y-86679083D01*
X121300527Y-86679083D01*
X121292931Y-86679083D01*
X121292915Y-86679084D01*
X114469360Y-86679084D01*
X114402321Y-86659399D01*
X114356566Y-86606595D01*
X114346622Y-86537437D01*
X114352319Y-86514129D01*
X114399511Y-86379262D01*
X114399514Y-86379249D01*
X114419710Y-86200003D01*
X114419710Y-86199996D01*
X114399514Y-86020750D01*
X114399511Y-86020737D01*
X114341652Y-85855387D01*
X114338090Y-85785608D01*
X114371010Y-85726753D01*
X114695162Y-85402602D01*
X114756485Y-85369117D01*
X114826177Y-85374101D01*
X114870524Y-85402602D01*
X114897738Y-85429816D01*
X114988080Y-85486582D01*
X115037427Y-85517589D01*
X115050478Y-85525789D01*
X115220745Y-85585368D01*
X115243286Y-85587907D01*
X115307699Y-85614973D01*
X115346444Y-85670173D01*
X115374209Y-85749519D01*
X115374211Y-85749522D01*
X115470184Y-85902262D01*
X115597738Y-86029816D01*
X115750478Y-86125789D01*
X115904647Y-86179735D01*
X115920745Y-86185368D01*
X115920750Y-86185369D01*
X116099996Y-86205565D01*
X116100000Y-86205565D01*
X116100004Y-86205565D01*
X116279249Y-86185369D01*
X116279252Y-86185368D01*
X116279255Y-86185368D01*
X116449522Y-86125789D01*
X116602262Y-86029816D01*
X116729816Y-85902262D01*
X116825789Y-85749522D01*
X116885368Y-85579255D01*
X116895161Y-85492329D01*
X116922226Y-85427918D01*
X116930690Y-85418543D01*
X120912416Y-81436819D01*
X120973739Y-81403334D01*
X121000097Y-81400500D01*
X122529906Y-81400500D01*
X122596945Y-81420185D01*
G37*
%TD.AperFunction*%
%TD*%
M02*
