M48
; DRILL file {KiCad 8.0.2-1} date 2025-02-04T16:39:34+0700
; FORMAT={-:-/ absolute / metric / decimal}
; #@! TF.CreationDate,2025-02-04T16:39:34+07:00
; #@! TF.GenerationSoftware,Kicad,Pcbnew,8.0.2-1
; #@! TF.FileFunction,Plated,1,2,PTH
FMAT,2
METRIC
; #@! TA.AperFunction,Plated,PTH,ComponentDrill
T1C0.200
; #@! TA.AperFunction,Plated,PTH,ViaDrill
T2C0.300
; #@! TA.AperFunction,Plated,PTH,ComponentDrill
T3C1.000
%
G90
G05
T1
X108.3Y-97.3
X109.4Y-97.3
T2
X104.8Y-70.72
X104.9Y-91.2
X108.1Y-73.2
X108.2Y-99.0
X108.6Y-85.1
X108.6Y-86.3
X108.7Y-79.5
X108.7Y-80.8
X109.6Y-85.1
X109.6Y-86.3
X109.8Y-83.8
X110.2Y-106.2
X110.3Y-91.1
X110.5Y-84.2
X110.95Y-104.6
X111.6Y-73.8
X111.6Y-74.8
X111.8Y-106.2
X111.9Y-90.3
X111.9Y-91.1
X111.9Y-92.7
X112.4Y-104.6
X112.6Y-73.8
X112.6Y-74.8
X112.82Y-86.1
X113.2Y-94.5
X113.2Y-95.3
X113.4Y-106.2
X113.6Y-73.8
X113.6Y-74.8
X113.614Y-86.2
X113.95Y-103.2
X114.0Y-90.5
X114.6Y-73.8
X114.6Y-74.8
X114.8Y-106.2
X115.4Y-84.8
X115.45Y-103.55
X115.6Y-73.8
X115.6Y-74.8
X116.0Y-91.694
X116.059Y-81.069
X116.1Y-85.4
X116.2Y-106.2
X116.6Y-73.8
X116.6Y-74.8
X116.616Y-81.644
X117.25Y-86.3
X117.85Y-94.5
X117.9Y-92.018
X118.02Y-86.31
X118.8Y-86.3
X119.9Y-103.3
X120.33Y-98.547
X120.45Y-92.694
X120.45Y-93.494
X121.588Y-85.615
X121.793Y-94.007
X121.96Y-81.68
X121.97Y-82.49
X121.97Y-83.33
X122.1Y-85.0
X122.2Y-94.789
X123.3Y-96.1
X123.9Y-88.2
X125.825Y-73.4
T3
X105.2Y-93.1
X105.2Y-95.64
X105.2Y-98.18
X105.2Y-100.72
X105.2Y-103.26
X105.2Y-105.8
M30
