%TF.GenerationSoftware,KiCad,Pcbnew,8.0.2-1*%
%TF.CreationDate,2025-02-04T16:39:29+07:00*%
%TF.ProjectId,ESP32-iPod-BLE,45535033-322d-4695-906f-642d424c452e,rev?*%
%TF.SameCoordinates,Original*%
%TF.FileFunction,Legend,Bot*%
%TF.FilePolarity,Positive*%
%FSLAX46Y46*%
G04 Gerber Fmt 4.6, Leading zero omitted, Abs format (unit mm)*
G04 Created by KiCad (PCBNEW 8.0.2-1) date 2025-02-04 16:39:29*
%MOMM*%
%LPD*%
G01*
G04 APERTURE LIST*
%ADD10C,0.150000*%
%ADD11C,0.000000*%
%ADD12C,0.200000*%
%ADD13C,0.100000*%
%ADD14C,0.120000*%
G04 APERTURE END LIST*
D10*
X125306533Y-86265350D02*
X125873200Y-86265350D01*
X125873200Y-86265350D02*
X125939866Y-86298684D01*
X125939866Y-86298684D02*
X125973200Y-86332017D01*
X125973200Y-86332017D02*
X126006533Y-86398684D01*
X126006533Y-86398684D02*
X126006533Y-86532017D01*
X126006533Y-86532017D02*
X125973200Y-86598684D01*
X125973200Y-86598684D02*
X125939866Y-86632017D01*
X125939866Y-86632017D02*
X125873200Y-86665350D01*
X125873200Y-86665350D02*
X125306533Y-86665350D01*
X125973200Y-86965350D02*
X126006533Y-87065350D01*
X126006533Y-87065350D02*
X126006533Y-87232017D01*
X126006533Y-87232017D02*
X125973200Y-87298683D01*
X125973200Y-87298683D02*
X125939866Y-87332017D01*
X125939866Y-87332017D02*
X125873200Y-87365350D01*
X125873200Y-87365350D02*
X125806533Y-87365350D01*
X125806533Y-87365350D02*
X125739866Y-87332017D01*
X125739866Y-87332017D02*
X125706533Y-87298683D01*
X125706533Y-87298683D02*
X125673200Y-87232017D01*
X125673200Y-87232017D02*
X125639866Y-87098683D01*
X125639866Y-87098683D02*
X125606533Y-87032017D01*
X125606533Y-87032017D02*
X125573200Y-86998683D01*
X125573200Y-86998683D02*
X125506533Y-86965350D01*
X125506533Y-86965350D02*
X125439866Y-86965350D01*
X125439866Y-86965350D02*
X125373200Y-86998683D01*
X125373200Y-86998683D02*
X125339866Y-87032017D01*
X125339866Y-87032017D02*
X125306533Y-87098683D01*
X125306533Y-87098683D02*
X125306533Y-87265350D01*
X125306533Y-87265350D02*
X125339866Y-87365350D01*
X125639866Y-87665350D02*
X125639866Y-87898684D01*
X126006533Y-87998684D02*
X126006533Y-87665350D01*
X126006533Y-87665350D02*
X125306533Y-87665350D01*
X125306533Y-87665350D02*
X125306533Y-87998684D01*
X126073200Y-88132017D02*
X126073200Y-88665350D01*
X125639866Y-88832016D02*
X125639866Y-89065350D01*
X126006533Y-89165350D02*
X126006533Y-88832016D01*
X126006533Y-88832016D02*
X125306533Y-88832016D01*
X125306533Y-88832016D02*
X125306533Y-89165350D01*
X125973200Y-89432016D02*
X126006533Y-89532016D01*
X126006533Y-89532016D02*
X126006533Y-89698683D01*
X126006533Y-89698683D02*
X125973200Y-89765349D01*
X125973200Y-89765349D02*
X125939866Y-89798683D01*
X125939866Y-89798683D02*
X125873200Y-89832016D01*
X125873200Y-89832016D02*
X125806533Y-89832016D01*
X125806533Y-89832016D02*
X125739866Y-89798683D01*
X125739866Y-89798683D02*
X125706533Y-89765349D01*
X125706533Y-89765349D02*
X125673200Y-89698683D01*
X125673200Y-89698683D02*
X125639866Y-89565349D01*
X125639866Y-89565349D02*
X125606533Y-89498683D01*
X125606533Y-89498683D02*
X125573200Y-89465349D01*
X125573200Y-89465349D02*
X125506533Y-89432016D01*
X125506533Y-89432016D02*
X125439866Y-89432016D01*
X125439866Y-89432016D02*
X125373200Y-89465349D01*
X125373200Y-89465349D02*
X125339866Y-89498683D01*
X125339866Y-89498683D02*
X125306533Y-89565349D01*
X125306533Y-89565349D02*
X125306533Y-89732016D01*
X125306533Y-89732016D02*
X125339866Y-89832016D01*
X126006533Y-90132016D02*
X125306533Y-90132016D01*
X125306533Y-90132016D02*
X125306533Y-90398683D01*
X125306533Y-90398683D02*
X125339866Y-90465350D01*
X125339866Y-90465350D02*
X125373200Y-90498683D01*
X125373200Y-90498683D02*
X125439866Y-90532016D01*
X125439866Y-90532016D02*
X125539866Y-90532016D01*
X125539866Y-90532016D02*
X125606533Y-90498683D01*
X125606533Y-90498683D02*
X125639866Y-90465350D01*
X125639866Y-90465350D02*
X125673200Y-90398683D01*
X125673200Y-90398683D02*
X125673200Y-90132016D01*
X126073200Y-90665350D02*
X126073200Y-91198683D01*
X126006533Y-91365349D02*
X125306533Y-91365349D01*
X125306533Y-91365349D02*
X125806533Y-91598683D01*
X125806533Y-91598683D02*
X125306533Y-91832016D01*
X125306533Y-91832016D02*
X126006533Y-91832016D01*
X125939866Y-92565349D02*
X125973200Y-92532016D01*
X125973200Y-92532016D02*
X126006533Y-92432016D01*
X126006533Y-92432016D02*
X126006533Y-92365349D01*
X126006533Y-92365349D02*
X125973200Y-92265349D01*
X125973200Y-92265349D02*
X125906533Y-92198683D01*
X125906533Y-92198683D02*
X125839866Y-92165349D01*
X125839866Y-92165349D02*
X125706533Y-92132016D01*
X125706533Y-92132016D02*
X125606533Y-92132016D01*
X125606533Y-92132016D02*
X125473200Y-92165349D01*
X125473200Y-92165349D02*
X125406533Y-92198683D01*
X125406533Y-92198683D02*
X125339866Y-92265349D01*
X125339866Y-92265349D02*
X125306533Y-92365349D01*
X125306533Y-92365349D02*
X125306533Y-92432016D01*
X125306533Y-92432016D02*
X125339866Y-92532016D01*
X125339866Y-92532016D02*
X125373200Y-92565349D01*
X126006533Y-92865349D02*
X125306533Y-92865349D01*
X126006533Y-93265349D02*
X125606533Y-92965349D01*
X125306533Y-93265349D02*
X125706533Y-92865349D01*
X123588866Y-72236779D02*
X123588866Y-72998684D01*
X123969819Y-72617731D02*
X123207914Y-72617731D01*
X123488866Y-70636779D02*
X123488866Y-71398684D01*
D11*
G36*
X112178020Y-73834385D02*
G01*
X111622713Y-73834387D01*
X111622713Y-73733951D01*
X112178019Y-73733949D01*
X112178020Y-73834385D01*
G37*
G36*
X111917308Y-73068173D02*
G01*
X111932294Y-73069187D01*
X111946962Y-73070875D01*
X111961310Y-73073238D01*
X111975333Y-73076272D01*
X111989030Y-73079979D01*
X112002397Y-73084354D01*
X112015433Y-73089397D01*
X112028133Y-73095109D01*
X112040497Y-73101486D01*
X112052520Y-73108528D01*
X112064199Y-73116233D01*
X112075534Y-73124601D01*
X112086517Y-73133630D01*
X112097150Y-73143318D01*
X112107429Y-73153665D01*
X112117544Y-73164693D01*
X112127018Y-73175945D01*
X112135846Y-73187422D01*
X112144027Y-73199119D01*
X112151562Y-73211032D01*
X112158447Y-73223161D01*
X112164683Y-73235504D01*
X112170268Y-73248057D01*
X112175201Y-73260814D01*
X112179478Y-73273778D01*
X112183101Y-73286941D01*
X112186071Y-73300305D01*
X112188380Y-73313866D01*
X112190034Y-73327621D01*
X112191023Y-73341565D01*
X112191354Y-73355700D01*
X112191232Y-73364238D01*
X112190865Y-73372705D01*
X112190253Y-73381098D01*
X112189397Y-73389416D01*
X112188298Y-73397658D01*
X112186957Y-73405819D01*
X112185374Y-73413901D01*
X112183550Y-73421900D01*
X112181485Y-73429815D01*
X112179180Y-73437642D01*
X112176636Y-73445385D01*
X112173853Y-73453035D01*
X112170832Y-73460593D01*
X112167573Y-73468059D01*
X112164077Y-73475429D01*
X112160346Y-73482700D01*
X112157846Y-73487353D01*
X112155271Y-73491909D01*
X112152620Y-73496364D01*
X112149891Y-73500721D01*
X112147090Y-73504979D01*
X112144209Y-73509138D01*
X112141255Y-73513200D01*
X112138226Y-73517163D01*
X112135125Y-73521028D01*
X112131946Y-73524795D01*
X112128695Y-73528465D01*
X112125370Y-73532037D01*
X112121973Y-73535512D01*
X112118503Y-73538892D01*
X112114960Y-73542171D01*
X112111345Y-73545354D01*
X112211357Y-73545355D01*
X112220639Y-73545270D01*
X112229632Y-73545017D01*
X112238335Y-73544597D01*
X112246747Y-73544008D01*
X112254867Y-73543252D01*
X112262694Y-73542329D01*
X112270226Y-73541239D01*
X112277463Y-73539983D01*
X112284404Y-73538561D01*
X112291047Y-73536973D01*
X112297393Y-73535218D01*
X112303437Y-73533298D01*
X112309181Y-73531215D01*
X112314624Y-73528966D01*
X112319763Y-73526553D01*
X112324599Y-73523976D01*
X112334817Y-73517758D01*
X112344361Y-73511119D01*
X112353232Y-73504042D01*
X112361432Y-73496511D01*
X112368964Y-73488507D01*
X112375829Y-73480014D01*
X112382030Y-73471015D01*
X112387570Y-73461495D01*
X112392448Y-73451434D01*
X112396671Y-73440817D01*
X112400237Y-73429627D01*
X112403150Y-73417846D01*
X112405412Y-73405458D01*
X112407025Y-73392448D01*
X112407991Y-73378795D01*
X112408313Y-73364484D01*
X112407868Y-73350063D01*
X112407307Y-73343017D01*
X112406523Y-73336084D01*
X112405513Y-73329256D01*
X112404280Y-73322538D01*
X112402820Y-73315927D01*
X112401135Y-73309426D01*
X112399223Y-73303029D01*
X112397083Y-73296739D01*
X112394718Y-73290555D01*
X112392122Y-73284475D01*
X112389300Y-73278499D01*
X112386249Y-73272626D01*
X112382969Y-73266858D01*
X112379460Y-73261192D01*
X112375721Y-73255628D01*
X112371751Y-73250163D01*
X112367553Y-73244799D01*
X112363122Y-73239537D01*
X112358460Y-73234371D01*
X112353567Y-73229305D01*
X112343082Y-73219467D01*
X112331665Y-73210016D01*
X112319313Y-73200946D01*
X112306023Y-73192254D01*
X112291791Y-73183933D01*
X112283959Y-73179594D01*
X112283959Y-73082545D01*
X112302690Y-73087201D01*
X112313801Y-73090225D01*
X112324666Y-73093699D01*
X112335285Y-73097622D01*
X112345658Y-73101990D01*
X112355778Y-73106806D01*
X112365651Y-73112065D01*
X112375268Y-73117768D01*
X112384633Y-73123913D01*
X112393742Y-73130497D01*
X112402594Y-73137521D01*
X112411188Y-73144982D01*
X112419521Y-73152880D01*
X112427592Y-73161211D01*
X112435401Y-73169977D01*
X112442946Y-73179174D01*
X112450223Y-73188801D01*
X112456918Y-73198385D01*
X112463185Y-73208123D01*
X112469026Y-73218010D01*
X112474442Y-73228048D01*
X112479429Y-73238232D01*
X112483991Y-73248562D01*
X112488119Y-73259033D01*
X112491817Y-73269645D01*
X112495083Y-73280395D01*
X112497916Y-73291281D01*
X112500317Y-73302297D01*
X112502283Y-73313446D01*
X112503814Y-73324722D01*
X112504909Y-73336125D01*
X112505565Y-73347651D01*
X112505786Y-73359299D01*
X112505891Y-73359511D01*
X112505803Y-73367221D01*
X112505530Y-73374913D01*
X112505078Y-73382584D01*
X112504446Y-73390234D01*
X112503634Y-73397861D01*
X112502643Y-73405463D01*
X112501473Y-73413039D01*
X112500122Y-73420590D01*
X112498596Y-73428111D01*
X112496889Y-73435602D01*
X112495005Y-73443062D01*
X112492943Y-73450491D01*
X112490704Y-73457883D01*
X112488288Y-73465242D01*
X112485695Y-73472561D01*
X112482926Y-73479844D01*
X112476497Y-73495112D01*
X112469554Y-73509641D01*
X112462100Y-73523431D01*
X112454137Y-73536478D01*
X112445668Y-73548781D01*
X112436694Y-73560337D01*
X112427217Y-73571146D01*
X112417242Y-73581205D01*
X112406770Y-73590513D01*
X112395802Y-73599066D01*
X112384342Y-73606867D01*
X112372390Y-73613908D01*
X112359952Y-73620191D01*
X112347029Y-73625712D01*
X112333620Y-73630472D01*
X112319731Y-73634466D01*
X112310703Y-73636471D01*
X112300433Y-73638201D01*
X112288897Y-73639656D01*
X112276074Y-73640843D01*
X112261942Y-73641762D01*
X112246477Y-73642413D01*
X112229659Y-73642803D01*
X112211464Y-73642933D01*
X111622924Y-73642933D01*
X111622924Y-73545461D01*
X111690236Y-73545460D01*
X111680774Y-73536847D01*
X111671919Y-73527757D01*
X111663671Y-73518191D01*
X111656030Y-73508152D01*
X111648997Y-73497640D01*
X111642572Y-73486661D01*
X111636755Y-73475210D01*
X111631549Y-73463296D01*
X111626953Y-73450912D01*
X111622968Y-73438067D01*
X111619594Y-73424760D01*
X111616832Y-73410993D01*
X111614683Y-73396770D01*
X111613148Y-73382088D01*
X111612225Y-73366951D01*
X111611916Y-73351362D01*
X111611960Y-73349774D01*
X111710025Y-73349774D01*
X111710131Y-73349774D01*
X111710338Y-73360033D01*
X111710957Y-73370054D01*
X111711992Y-73379844D01*
X111713443Y-73389404D01*
X111715313Y-73398740D01*
X111717606Y-73407852D01*
X111720316Y-73416750D01*
X111723453Y-73425431D01*
X111727014Y-73433904D01*
X111731005Y-73442173D01*
X111735420Y-73450240D01*
X111740268Y-73458105D01*
X111745549Y-73465780D01*
X111751265Y-73473263D01*
X111757413Y-73480560D01*
X111764000Y-73487677D01*
X111770885Y-73494436D01*
X111778004Y-73500749D01*
X111785352Y-73506616D01*
X111792927Y-73512040D01*
X111800720Y-73517022D01*
X111808729Y-73521559D01*
X111816953Y-73525659D01*
X111825383Y-73529320D01*
X111834017Y-73532545D01*
X111842850Y-73535335D01*
X111851877Y-73537691D01*
X111861095Y-73539616D01*
X111870499Y-73541111D01*
X111880085Y-73542174D01*
X111889848Y-73542813D01*
X111899784Y-73543026D01*
X111909712Y-73542810D01*
X111919453Y-73542160D01*
X111929016Y-73541074D01*
X111938400Y-73539554D01*
X111947610Y-73537592D01*
X111956651Y-73535190D01*
X111965525Y-73532345D01*
X111974238Y-73529057D01*
X111982793Y-73525320D01*
X111991189Y-73521135D01*
X111999435Y-73516501D01*
X112007536Y-73511416D01*
X112015491Y-73505873D01*
X112023306Y-73499877D01*
X112030985Y-73493424D01*
X112038532Y-73486511D01*
X112045100Y-73479978D01*
X112051235Y-73473267D01*
X112056936Y-73466373D01*
X112062202Y-73459283D01*
X112067040Y-73451990D01*
X112071449Y-73444483D01*
X112075430Y-73436754D01*
X112078986Y-73428792D01*
X112082118Y-73420587D01*
X112084827Y-73412134D01*
X112087116Y-73403417D01*
X112088984Y-73394433D01*
X112090434Y-73385165D01*
X112091471Y-73375610D01*
X112092089Y-73365756D01*
X112092296Y-73355595D01*
X112092072Y-73345406D01*
X112091404Y-73335473D01*
X112090288Y-73325793D01*
X112088723Y-73316362D01*
X112086706Y-73307176D01*
X112084235Y-73298230D01*
X112081310Y-73289523D01*
X112077929Y-73281049D01*
X112074088Y-73272803D01*
X112069785Y-73264784D01*
X112065020Y-73256987D01*
X112059791Y-73249406D01*
X112054095Y-73242040D01*
X112047932Y-73234884D01*
X112041298Y-73227934D01*
X112034193Y-73221187D01*
X112026997Y-73214808D01*
X112019617Y-73208851D01*
X112012047Y-73203314D01*
X112004284Y-73198193D01*
X111996326Y-73193491D01*
X111988164Y-73189203D01*
X111979797Y-73185330D01*
X111971222Y-73181868D01*
X111962434Y-73178821D01*
X111953426Y-73176183D01*
X111944199Y-73173955D01*
X111934745Y-73172133D01*
X111925063Y-73170719D01*
X111915146Y-73169709D01*
X111904995Y-73169106D01*
X111894598Y-73168904D01*
X111885132Y-73169107D01*
X111875856Y-73169715D01*
X111866771Y-73170732D01*
X111857871Y-73172156D01*
X111849153Y-73173991D01*
X111840615Y-73176239D01*
X111832251Y-73178899D01*
X111824060Y-73181975D01*
X111816037Y-73185468D01*
X111808181Y-73189379D01*
X111800485Y-73193710D01*
X111792949Y-73198461D01*
X111785567Y-73203637D01*
X111778338Y-73209237D01*
X111771257Y-73215263D01*
X111764317Y-73221716D01*
X111757690Y-73228421D01*
X111751500Y-73235284D01*
X111745748Y-73242307D01*
X111740431Y-73249494D01*
X111735546Y-73256849D01*
X111731093Y-73264374D01*
X111727072Y-73272073D01*
X111723479Y-73279951D01*
X111720314Y-73288009D01*
X111717576Y-73296252D01*
X111715263Y-73304683D01*
X111713374Y-73313304D01*
X111711905Y-73322121D01*
X111710859Y-73331136D01*
X111710234Y-73340352D01*
X111710025Y-73349774D01*
X111611960Y-73349774D01*
X111612380Y-73334698D01*
X111613766Y-73318317D01*
X111616075Y-73302227D01*
X111619304Y-73286429D01*
X111623454Y-73270929D01*
X111628521Y-73255729D01*
X111634505Y-73240831D01*
X111641405Y-73226240D01*
X111649221Y-73211960D01*
X111657946Y-73197993D01*
X111667583Y-73184342D01*
X111678130Y-73171012D01*
X111689586Y-73158005D01*
X111701950Y-73145327D01*
X111715218Y-73132977D01*
X111729391Y-73120963D01*
X111737737Y-73114558D01*
X111746416Y-73108561D01*
X111755428Y-73102972D01*
X111764772Y-73097792D01*
X111774445Y-73093023D01*
X111784446Y-73088664D01*
X111794770Y-73084718D01*
X111805420Y-73081183D01*
X111816390Y-73078060D01*
X111827679Y-73075352D01*
X111839286Y-73073058D01*
X111851208Y-73071182D01*
X111863443Y-73069717D01*
X111875988Y-73068672D01*
X111888844Y-73068046D01*
X111894598Y-73067952D01*
X111902007Y-73067833D01*
X111917308Y-73068173D01*
G37*
G36*
X112162886Y-71548704D02*
G01*
X112162886Y-71618870D01*
X111861578Y-71618870D01*
X111852237Y-71618972D01*
X111843222Y-71619274D01*
X111834535Y-71619773D01*
X111826174Y-71620476D01*
X111818139Y-71621379D01*
X111810430Y-71622482D01*
X111803046Y-71623784D01*
X111795988Y-71625286D01*
X111789255Y-71626987D01*
X111782846Y-71628890D01*
X111776761Y-71630991D01*
X111771001Y-71633293D01*
X111765567Y-71635791D01*
X111760451Y-71638488D01*
X111755661Y-71641388D01*
X111751195Y-71644482D01*
X111744370Y-71649822D01*
X111737988Y-71655406D01*
X111732045Y-71661234D01*
X111726546Y-71667307D01*
X111721487Y-71673621D01*
X111716868Y-71680182D01*
X111712691Y-71686987D01*
X111708953Y-71694038D01*
X111705656Y-71701335D01*
X111702799Y-71708877D01*
X111700382Y-71716665D01*
X111698405Y-71724700D01*
X111696868Y-71732982D01*
X111695769Y-71741511D01*
X111695109Y-71750287D01*
X111694893Y-71759311D01*
X111695139Y-71768345D01*
X111695883Y-71777150D01*
X111697124Y-71785726D01*
X111698862Y-71794076D01*
X111701095Y-71802195D01*
X111703827Y-71810086D01*
X111705378Y-71813945D01*
X111707056Y-71817747D01*
X111708853Y-71821492D01*
X111710778Y-71825178D01*
X111715001Y-71832381D01*
X111719721Y-71839356D01*
X111724939Y-71846099D01*
X111730654Y-71852611D01*
X111736869Y-71858895D01*
X111743579Y-71864948D01*
X111750788Y-71870769D01*
X111758496Y-71876363D01*
X111763179Y-71879380D01*
X111768097Y-71882202D01*
X111773249Y-71884828D01*
X111778636Y-71887259D01*
X111784259Y-71889494D01*
X111790117Y-71891534D01*
X111796209Y-71893379D01*
X111802535Y-71895029D01*
X111809098Y-71896486D01*
X111815892Y-71897745D01*
X111822923Y-71898812D01*
X111830187Y-71899684D01*
X111837684Y-71900363D01*
X111845416Y-71900846D01*
X111853380Y-71901138D01*
X111861577Y-71901233D01*
X112162886Y-71901233D01*
X112162886Y-71972142D01*
X111869622Y-71972142D01*
X111859937Y-71972207D01*
X111850648Y-71972403D01*
X111841750Y-71972734D01*
X111833241Y-71973200D01*
X111825120Y-71973806D01*
X111817383Y-71974554D01*
X111810028Y-71975444D01*
X111803052Y-71976481D01*
X111797279Y-71977424D01*
X111791628Y-71978623D01*
X111786098Y-71980083D01*
X111780693Y-71981799D01*
X111775411Y-71983774D01*
X111770253Y-71986006D01*
X111765218Y-71988496D01*
X111760308Y-71991245D01*
X111755525Y-71994251D01*
X111750865Y-71997515D01*
X111746334Y-72001038D01*
X111741929Y-72004818D01*
X111737650Y-72008856D01*
X111733499Y-72013152D01*
X111729477Y-72017706D01*
X111725582Y-72022520D01*
X111721872Y-72027493D01*
X111718399Y-72032535D01*
X111715165Y-72037645D01*
X111712170Y-72042820D01*
X111709413Y-72048064D01*
X111706895Y-72053376D01*
X111704616Y-72058756D01*
X111702577Y-72064203D01*
X111700776Y-72069719D01*
X111699216Y-72075304D01*
X111697895Y-72080957D01*
X111696814Y-72086678D01*
X111695973Y-72092469D01*
X111695372Y-72098328D01*
X111695011Y-72104255D01*
X111694891Y-72110255D01*
X111695129Y-72119539D01*
X111695848Y-72128580D01*
X111697045Y-72137377D01*
X111698722Y-72145929D01*
X111700878Y-72154239D01*
X111703513Y-72162303D01*
X111706627Y-72170122D01*
X111710222Y-72177697D01*
X111714297Y-72185025D01*
X111718853Y-72192108D01*
X111723888Y-72198946D01*
X111729404Y-72205534D01*
X111735400Y-72211876D01*
X111741877Y-72217973D01*
X111748835Y-72223822D01*
X111756274Y-72229423D01*
X111760995Y-72232614D01*
X111766031Y-72235599D01*
X111771384Y-72238378D01*
X111777050Y-72240953D01*
X111783032Y-72243319D01*
X111789330Y-72245481D01*
X111795940Y-72247437D01*
X111802869Y-72249187D01*
X111810109Y-72250730D01*
X111817665Y-72252069D01*
X111825537Y-72253202D01*
X111833724Y-72254128D01*
X111842226Y-72254849D01*
X111851043Y-72255363D01*
X111860175Y-72255672D01*
X111869622Y-72255775D01*
X112162886Y-72255775D01*
X112162886Y-72326684D01*
X111864541Y-72326683D01*
X111851407Y-72326488D01*
X111838715Y-72325907D01*
X111826463Y-72324931D01*
X111814653Y-72323570D01*
X111803283Y-72321819D01*
X111792355Y-72319679D01*
X111781866Y-72317151D01*
X111771818Y-72314235D01*
X111762211Y-72310929D01*
X111753043Y-72307238D01*
X111744316Y-72303157D01*
X111736028Y-72298689D01*
X111728181Y-72293834D01*
X111720772Y-72288590D01*
X111713802Y-72282959D01*
X111707273Y-72276942D01*
X111697527Y-72266968D01*
X111688412Y-72256969D01*
X111679925Y-72246946D01*
X111672069Y-72236899D01*
X111664842Y-72226830D01*
X111658245Y-72216737D01*
X111652275Y-72206620D01*
X111646935Y-72196482D01*
X111642224Y-72186321D01*
X111638142Y-72176138D01*
X111634688Y-72165934D01*
X111631862Y-72155706D01*
X111629665Y-72145459D01*
X111628095Y-72135191D01*
X111627154Y-72124902D01*
X111626840Y-72114593D01*
X111626923Y-72108479D01*
X111627168Y-72102399D01*
X111627577Y-72096355D01*
X111628153Y-72090345D01*
X111628893Y-72084368D01*
X111629797Y-72078428D01*
X111630869Y-72072522D01*
X111632105Y-72066651D01*
X111633508Y-72060814D01*
X111635077Y-72055013D01*
X111636813Y-72049245D01*
X111638716Y-72043513D01*
X111640788Y-72037815D01*
X111643025Y-72032152D01*
X111645432Y-72026524D01*
X111648008Y-72020931D01*
X111650899Y-72014995D01*
X111653900Y-72009253D01*
X111657010Y-72003706D01*
X111660229Y-71998350D01*
X111663555Y-71993189D01*
X111666991Y-71988223D01*
X111670535Y-71983452D01*
X111674187Y-71978876D01*
X111677947Y-71974493D01*
X111681814Y-71970306D01*
X111685789Y-71966313D01*
X111689871Y-71962516D01*
X111694062Y-71958914D01*
X111698359Y-71955508D01*
X111702763Y-71952296D01*
X111707273Y-71949281D01*
X111725582Y-71937534D01*
X111722586Y-71935733D01*
X111719790Y-71933981D01*
X111717193Y-71932275D01*
X111714801Y-71930615D01*
X111713679Y-71929802D01*
X111712611Y-71928999D01*
X111711592Y-71928211D01*
X111710625Y-71927429D01*
X111709710Y-71926658D01*
X111708846Y-71925899D01*
X111708033Y-71925150D01*
X111707273Y-71924411D01*
X111697527Y-71916130D01*
X111688413Y-71907556D01*
X111679925Y-71898686D01*
X111672069Y-71889521D01*
X111664842Y-71880055D01*
X111658244Y-71870288D01*
X111652275Y-71860216D01*
X111646935Y-71849837D01*
X111642223Y-71839150D01*
X111638142Y-71828154D01*
X111634687Y-71816842D01*
X111631863Y-71805215D01*
X111629665Y-71793269D01*
X111628094Y-71781003D01*
X111627154Y-71768415D01*
X111626840Y-71755500D01*
X111627154Y-71742693D01*
X111627546Y-71736491D01*
X111628095Y-71730423D01*
X111628800Y-71724490D01*
X111629665Y-71718691D01*
X111630685Y-71713027D01*
X111631863Y-71707497D01*
X111633198Y-71702102D01*
X111634690Y-71696841D01*
X111636336Y-71691713D01*
X111638141Y-71686722D01*
X111640104Y-71681864D01*
X111642223Y-71677140D01*
X111644501Y-71672553D01*
X111646935Y-71668095D01*
X111649526Y-71663775D01*
X111652275Y-71659589D01*
X111655180Y-71655536D01*
X111658244Y-71651618D01*
X111661465Y-71647834D01*
X111664842Y-71644184D01*
X111668376Y-71640668D01*
X111672069Y-71637287D01*
X111675919Y-71634039D01*
X111679925Y-71630926D01*
X111684092Y-71627947D01*
X111688412Y-71625101D01*
X111692890Y-71622390D01*
X111697527Y-71619812D01*
X111702323Y-71617369D01*
X111707273Y-71615060D01*
X111637846Y-71615060D01*
X111637847Y-71548703D01*
X112162886Y-71548704D01*
G37*
G36*
X113354251Y-71206226D02*
G01*
X113449501Y-71206226D01*
X113449501Y-74206177D01*
X110449550Y-74206177D01*
X110449550Y-74110928D01*
X110544799Y-74110928D01*
X113354252Y-74110928D01*
X113354252Y-71301475D01*
X110544800Y-71301476D01*
X110544799Y-74110928D01*
X110449550Y-74110928D01*
X110449550Y-71206226D01*
X113354251Y-71206226D01*
G37*
G36*
X111637847Y-71548703D02*
G01*
X111637741Y-71548703D01*
X111637847Y-71548491D01*
X111637847Y-71548703D01*
G37*
G36*
X111554026Y-73819251D02*
G01*
X111453591Y-73819250D01*
X111453591Y-73749083D01*
X111554027Y-73749083D01*
X111554026Y-73819251D01*
G37*
G36*
X112177913Y-71633793D02*
G01*
X111861472Y-71633793D01*
X111852796Y-71633882D01*
X111844423Y-71634149D01*
X111836360Y-71634595D01*
X111828605Y-71635218D01*
X111821160Y-71636019D01*
X111814026Y-71636996D01*
X111807204Y-71638149D01*
X111800697Y-71639481D01*
X111794506Y-71640988D01*
X111788630Y-71642671D01*
X111783071Y-71644529D01*
X111777831Y-71646561D01*
X111772911Y-71648769D01*
X111768313Y-71651153D01*
X111764037Y-71653710D01*
X111760084Y-71656443D01*
X111753957Y-71661229D01*
X111748236Y-71666225D01*
X111742918Y-71671435D01*
X111738002Y-71676857D01*
X111733489Y-71682495D01*
X111729375Y-71688347D01*
X111725661Y-71694416D01*
X111722341Y-71700706D01*
X111719419Y-71707215D01*
X111716890Y-71713949D01*
X111714754Y-71720905D01*
X111713011Y-71728087D01*
X111711656Y-71735496D01*
X111710690Y-71743133D01*
X111710112Y-71750999D01*
X111709919Y-71759099D01*
X111710139Y-71767202D01*
X111710799Y-71775082D01*
X111711900Y-71782742D01*
X111713445Y-71790185D01*
X111714383Y-71793826D01*
X111715433Y-71797411D01*
X111716594Y-71800947D01*
X111717867Y-71804429D01*
X111719251Y-71807858D01*
X111720747Y-71811236D01*
X111722354Y-71814562D01*
X111724073Y-71817837D01*
X111725907Y-71821061D01*
X111727852Y-71824234D01*
X111732078Y-71830430D01*
X111736758Y-71836431D01*
X111741887Y-71842235D01*
X111747472Y-71847846D01*
X111753514Y-71853269D01*
X111760009Y-71858504D01*
X111766962Y-71863557D01*
X111771150Y-71866231D01*
X111775574Y-71868734D01*
X111780233Y-71871070D01*
X111785127Y-71873236D01*
X111790252Y-71875230D01*
X111795607Y-71877054D01*
X111801192Y-71878706D01*
X111807008Y-71880186D01*
X111813051Y-71881494D01*
X111819317Y-71882629D01*
X111825807Y-71883590D01*
X111832522Y-71884378D01*
X111839458Y-71884991D01*
X111846613Y-71885430D01*
X111853986Y-71885694D01*
X111861580Y-71885782D01*
X112178020Y-71885782D01*
X112178020Y-71986958D01*
X111869622Y-71986957D01*
X111860276Y-71987023D01*
X111851293Y-71987218D01*
X111842671Y-71987544D01*
X111834419Y-71988004D01*
X111826539Y-71988598D01*
X111819036Y-71989325D01*
X111811910Y-71990191D01*
X111805168Y-71991192D01*
X111800073Y-71992035D01*
X111795101Y-71993098D01*
X111790251Y-71994382D01*
X111785522Y-71995886D01*
X111780912Y-71997615D01*
X111776418Y-71999565D01*
X111772038Y-72001741D01*
X111767770Y-72004143D01*
X111763612Y-72006772D01*
X111759565Y-72009630D01*
X111755623Y-72012716D01*
X111751785Y-72016030D01*
X111748049Y-72019579D01*
X111744416Y-72023359D01*
X111740877Y-72027372D01*
X111737436Y-72031620D01*
X111734075Y-72036125D01*
X111730936Y-72040672D01*
X111728020Y-72045264D01*
X111725323Y-72049903D01*
X111722847Y-72054591D01*
X111720590Y-72059332D01*
X111718552Y-72064129D01*
X111716731Y-72068979D01*
X111715129Y-72073892D01*
X111713742Y-72078865D01*
X111712571Y-72083903D01*
X111711614Y-72089007D01*
X111710871Y-72094183D01*
X111710341Y-72099428D01*
X111710025Y-72104753D01*
X111709919Y-72110148D01*
X111710130Y-72118557D01*
X111710765Y-72126722D01*
X111711824Y-72134645D01*
X111713310Y-72142330D01*
X111715227Y-72149780D01*
X111717571Y-72156998D01*
X111720347Y-72163987D01*
X111723558Y-72170750D01*
X111727204Y-72177292D01*
X111731287Y-72183617D01*
X111735809Y-72189726D01*
X111740773Y-72195620D01*
X111746177Y-72201307D01*
X111752024Y-72206788D01*
X111758317Y-72212067D01*
X111765058Y-72217146D01*
X111769283Y-72219974D01*
X111773823Y-72222622D01*
X111778674Y-72225091D01*
X111783836Y-72227380D01*
X111789310Y-72229489D01*
X111795091Y-72231417D01*
X111801181Y-72233165D01*
X111807577Y-72234727D01*
X111814277Y-72236110D01*
X111821282Y-72237309D01*
X111828590Y-72238325D01*
X111836198Y-72239158D01*
X111844107Y-72239806D01*
X111852315Y-72240269D01*
X111860820Y-72240550D01*
X111869622Y-72240640D01*
X112177808Y-72240641D01*
X112177808Y-72341712D01*
X111864330Y-72341711D01*
X111850499Y-72341499D01*
X111837098Y-72340860D01*
X111824135Y-72339795D01*
X111811612Y-72338307D01*
X111799530Y-72336394D01*
X111787892Y-72334059D01*
X111776700Y-72331303D01*
X111765958Y-72328124D01*
X111755667Y-72324527D01*
X111745829Y-72320508D01*
X111736449Y-72316074D01*
X111727527Y-72311216D01*
X111719067Y-72305943D01*
X111711070Y-72300255D01*
X111703541Y-72294151D01*
X111696478Y-72287632D01*
X111686246Y-72277125D01*
X111676666Y-72266565D01*
X111667738Y-72255954D01*
X111659463Y-72245294D01*
X111651843Y-72234584D01*
X111644879Y-72223834D01*
X111638574Y-72213041D01*
X111632925Y-72202212D01*
X111627937Y-72191342D01*
X111623610Y-72180443D01*
X111619946Y-72169511D01*
X111616944Y-72158552D01*
X111614608Y-72147568D01*
X111612938Y-72136560D01*
X111611935Y-72125533D01*
X111611600Y-72114488D01*
X111611689Y-72107991D01*
X111611957Y-72101522D01*
X111612403Y-72095079D01*
X111613025Y-72088667D01*
X111613826Y-72082284D01*
X111614803Y-72075932D01*
X111615958Y-72069616D01*
X111617288Y-72063332D01*
X111618794Y-72057083D01*
X111620479Y-72050873D01*
X111622336Y-72044701D01*
X111624369Y-72038572D01*
X111626577Y-72032481D01*
X111628960Y-72026434D01*
X111631516Y-72020431D01*
X111634248Y-72014474D01*
X111637329Y-72008124D01*
X111640537Y-72001970D01*
X111643873Y-71996013D01*
X111647334Y-71990254D01*
X111650923Y-71984695D01*
X111654634Y-71979337D01*
X111658469Y-71974176D01*
X111662426Y-71969218D01*
X111666506Y-71964463D01*
X111670705Y-71959909D01*
X111675024Y-71955561D01*
X111679463Y-71951417D01*
X111684018Y-71947477D01*
X111688691Y-71943744D01*
X111693481Y-71940218D01*
X111698383Y-71936900D01*
X111697642Y-71936158D01*
X111687275Y-71927334D01*
X111677566Y-71918169D01*
X111668520Y-71908664D01*
X111660133Y-71898822D01*
X111652409Y-71888647D01*
X111645350Y-71878142D01*
X111638956Y-71867310D01*
X111633230Y-71856148D01*
X111628171Y-71844667D01*
X111623784Y-71832866D01*
X111620066Y-71820747D01*
X111617022Y-71808315D01*
X111614652Y-71795572D01*
X111612957Y-71782519D01*
X111611939Y-71769162D01*
X111611600Y-71755503D01*
X111611780Y-71745485D01*
X111612319Y-71735757D01*
X111613218Y-71726319D01*
X111614472Y-71717169D01*
X111616088Y-71708311D01*
X111618057Y-71699743D01*
X111620385Y-71691466D01*
X111623070Y-71683482D01*
X111626110Y-71675789D01*
X111629506Y-71668391D01*
X111633257Y-71661286D01*
X111637362Y-71654478D01*
X111641822Y-71647962D01*
X111646635Y-71641743D01*
X111651801Y-71635820D01*
X111657319Y-71630194D01*
X111622609Y-71630194D01*
X111622607Y-71533357D01*
X112177913Y-71533357D01*
X112177913Y-71633793D01*
G37*
G36*
X111901795Y-72427608D02*
G01*
X111902565Y-72427617D01*
X111909161Y-72427840D01*
X111915761Y-72428212D01*
X111922366Y-72428733D01*
X111928977Y-72429403D01*
X111935592Y-72430221D01*
X111942212Y-72431189D01*
X111948838Y-72432305D01*
X111955469Y-72433570D01*
X111962103Y-72434986D01*
X111968744Y-72436547D01*
X111975391Y-72438258D01*
X111988693Y-72442128D01*
X112002018Y-72446593D01*
X112007226Y-72448522D01*
X112012248Y-72450462D01*
X112017089Y-72452411D01*
X112021746Y-72454373D01*
X112026219Y-72456344D01*
X112030510Y-72458326D01*
X112034619Y-72460318D01*
X112038545Y-72462322D01*
X112042289Y-72464338D01*
X112045850Y-72466363D01*
X112049230Y-72468401D01*
X112052427Y-72470450D01*
X112055443Y-72472511D01*
X112058278Y-72474584D01*
X112060931Y-72476668D01*
X112063402Y-72478766D01*
X112077033Y-72491413D01*
X112089785Y-72504310D01*
X112101658Y-72517458D01*
X112112653Y-72530856D01*
X112122769Y-72544508D01*
X112132007Y-72558409D01*
X112140365Y-72572562D01*
X112147844Y-72586967D01*
X112154445Y-72601624D01*
X112160165Y-72616531D01*
X112165004Y-72631693D01*
X112168966Y-72647106D01*
X112172047Y-72662770D01*
X112174248Y-72678688D01*
X112175569Y-72694858D01*
X112176008Y-72711282D01*
X112175570Y-72728783D01*
X112175021Y-72737293D01*
X112174253Y-72745646D01*
X112173264Y-72753838D01*
X112172056Y-72761870D01*
X112170628Y-72769744D01*
X112168981Y-72777457D01*
X112167114Y-72785010D01*
X112165026Y-72792405D01*
X112162720Y-72799641D01*
X112160191Y-72806713D01*
X112157446Y-72813629D01*
X112154478Y-72820384D01*
X112151293Y-72826978D01*
X112147884Y-72833412D01*
X112144257Y-72839687D01*
X112140409Y-72845803D01*
X112136340Y-72851758D01*
X112132053Y-72857553D01*
X112127545Y-72863187D01*
X112122816Y-72868662D01*
X112117867Y-72873976D01*
X112112698Y-72879131D01*
X112107308Y-72884124D01*
X112101697Y-72888957D01*
X112095866Y-72893631D01*
X112089815Y-72898142D01*
X112083543Y-72902493D01*
X112077050Y-72906687D01*
X112070337Y-72910717D01*
X112063403Y-72914588D01*
X112162886Y-72914588D01*
X112162886Y-72981899D01*
X111637741Y-72981897D01*
X111637741Y-72914587D01*
X111737224Y-72914587D01*
X111723863Y-72906845D01*
X111711363Y-72898419D01*
X111699724Y-72889313D01*
X111688946Y-72879527D01*
X111679028Y-72869059D01*
X111669974Y-72857910D01*
X111661781Y-72846081D01*
X111654449Y-72833572D01*
X111647980Y-72820382D01*
X111642372Y-72806515D01*
X111637628Y-72791969D01*
X111633743Y-72776743D01*
X111630724Y-72760839D01*
X111628566Y-72744257D01*
X111627271Y-72726997D01*
X111626843Y-72709164D01*
X111694890Y-72709164D01*
X111695128Y-72720102D01*
X111695843Y-72730805D01*
X111697032Y-72741277D01*
X111698697Y-72751512D01*
X111700837Y-72761515D01*
X111703452Y-72771286D01*
X111706540Y-72780823D01*
X111710104Y-72790129D01*
X111714141Y-72799199D01*
X111718652Y-72808037D01*
X111723635Y-72816641D01*
X111729093Y-72825013D01*
X111735022Y-72833151D01*
X111741421Y-72841056D01*
X111748294Y-72848729D01*
X111755639Y-72856168D01*
X111763347Y-72863261D01*
X111771271Y-72869897D01*
X111779411Y-72876070D01*
X111787765Y-72881788D01*
X111796337Y-72887047D01*
X111805125Y-72891847D01*
X111814127Y-72896190D01*
X111823346Y-72900077D01*
X111832780Y-72903503D01*
X111842430Y-72906473D01*
X111852296Y-72908985D01*
X111862379Y-72911042D01*
X111872678Y-72912639D01*
X111883192Y-72913781D01*
X111893920Y-72914465D01*
X111904864Y-72914694D01*
X111915019Y-72914456D01*
X111925005Y-72913741D01*
X111934825Y-72912552D01*
X111944472Y-72910887D01*
X111953951Y-72908747D01*
X111963264Y-72906134D01*
X111972407Y-72903044D01*
X111981382Y-72899480D01*
X111990187Y-72895443D01*
X111998823Y-72890933D01*
X112007291Y-72885949D01*
X112015591Y-72880493D01*
X112023723Y-72874566D01*
X112031684Y-72868163D01*
X112039480Y-72861290D01*
X112047104Y-72853945D01*
X112054409Y-72846313D01*
X112061243Y-72838569D01*
X112067605Y-72830702D01*
X112073496Y-72822696D01*
X112078916Y-72814541D01*
X112083865Y-72806225D01*
X112088342Y-72797733D01*
X112092348Y-72789057D01*
X112095882Y-72780180D01*
X112098947Y-72771088D01*
X112101538Y-72761773D01*
X112103659Y-72752221D01*
X112105308Y-72742419D01*
X112106486Y-72732354D01*
X112107195Y-72722015D01*
X112107429Y-72711388D01*
X112107195Y-72700700D01*
X112106491Y-72690190D01*
X112105319Y-72679857D01*
X112103680Y-72669701D01*
X112101569Y-72659723D01*
X112098990Y-72649923D01*
X112095943Y-72640303D01*
X112092427Y-72630863D01*
X112088442Y-72621600D01*
X112083989Y-72612520D01*
X112079066Y-72603618D01*
X112073675Y-72594900D01*
X112067815Y-72586362D01*
X112061486Y-72578007D01*
X112054688Y-72569834D01*
X112047423Y-72561845D01*
X112039821Y-72554174D01*
X112032022Y-72547002D01*
X112024025Y-72540324D01*
X112015829Y-72534142D01*
X112007434Y-72528455D01*
X111998838Y-72523263D01*
X111990045Y-72518567D01*
X111981051Y-72514366D01*
X111971858Y-72510659D01*
X111962465Y-72507447D01*
X111952870Y-72504730D01*
X111943078Y-72502506D01*
X111933084Y-72500779D01*
X111922890Y-72499544D01*
X111912496Y-72498804D01*
X111901901Y-72498557D01*
X111901795Y-72498557D01*
X111891119Y-72498799D01*
X111880647Y-72499525D01*
X111870374Y-72500735D01*
X111860303Y-72502432D01*
X111850434Y-72504609D01*
X111840766Y-72507274D01*
X111831300Y-72510425D01*
X111822036Y-72514061D01*
X111812974Y-72518183D01*
X111804116Y-72522793D01*
X111795458Y-72527889D01*
X111787004Y-72533472D01*
X111778752Y-72539542D01*
X111770704Y-72546100D01*
X111762858Y-72553147D01*
X111755216Y-72560681D01*
X111747911Y-72568538D01*
X111741077Y-72576554D01*
X111734714Y-72584738D01*
X111728825Y-72593094D01*
X111723404Y-72601630D01*
X111718455Y-72610351D01*
X111713979Y-72619263D01*
X111709971Y-72628375D01*
X111706437Y-72637690D01*
X111703374Y-72647217D01*
X111700781Y-72656962D01*
X111698661Y-72666929D01*
X111697013Y-72677127D01*
X111695832Y-72687562D01*
X111695126Y-72698239D01*
X111694890Y-72709164D01*
X111626843Y-72709164D01*
X111626840Y-72709059D01*
X111627270Y-72694130D01*
X111628561Y-72679309D01*
X111630715Y-72664594D01*
X111633729Y-72649985D01*
X111637605Y-72635485D01*
X111642344Y-72621093D01*
X111647945Y-72606807D01*
X111654410Y-72592629D01*
X111661737Y-72578559D01*
X111669929Y-72564598D01*
X111678982Y-72550744D01*
X111688901Y-72536998D01*
X111699685Y-72523362D01*
X111711333Y-72509834D01*
X111723846Y-72496415D01*
X111737224Y-72483105D01*
X111739787Y-72480735D01*
X111742513Y-72478387D01*
X111745403Y-72476061D01*
X111748457Y-72473760D01*
X111751677Y-72471481D01*
X111755059Y-72469225D01*
X111758609Y-72466992D01*
X111762319Y-72464783D01*
X111766197Y-72462596D01*
X111770240Y-72460435D01*
X111778822Y-72456182D01*
X111788065Y-72452028D01*
X111797972Y-72447968D01*
X111804439Y-72445489D01*
X111810861Y-72443171D01*
X111817237Y-72441014D01*
X111823569Y-72439017D01*
X111829856Y-72437181D01*
X111836098Y-72435506D01*
X111842292Y-72433991D01*
X111848442Y-72432636D01*
X111854545Y-72431442D01*
X111860603Y-72430406D01*
X111866615Y-72429530D01*
X111872580Y-72428814D01*
X111878499Y-72428260D01*
X111884371Y-72427860D01*
X111890196Y-72427622D01*
X111895974Y-72427543D01*
X111901795Y-72427608D01*
G37*
G36*
X112162991Y-73819251D02*
G01*
X111637847Y-73819251D01*
X111637846Y-73749083D01*
X112162991Y-73749083D01*
X112162991Y-73819251D01*
G37*
G36*
X111569056Y-73834385D02*
G01*
X111438457Y-73834385D01*
X111438458Y-73733949D01*
X111569056Y-73733949D01*
X111569056Y-73834385D01*
G37*
G36*
X111916252Y-73083286D02*
G01*
X111930493Y-73084238D01*
X111944414Y-73085825D01*
X111958009Y-73088047D01*
X111971285Y-73090903D01*
X111984240Y-73094393D01*
X111996875Y-73098517D01*
X112009189Y-73103275D01*
X112021184Y-73108667D01*
X112032859Y-73114692D01*
X112044214Y-73121351D01*
X112055249Y-73128644D01*
X112065969Y-73136569D01*
X112076367Y-73145127D01*
X112086448Y-73154319D01*
X112096210Y-73164142D01*
X112105861Y-73174657D01*
X112114889Y-73185364D01*
X112123295Y-73196268D01*
X112131076Y-73207364D01*
X112138236Y-73218654D01*
X112144773Y-73230138D01*
X112150688Y-73241817D01*
X112155980Y-73253691D01*
X112160649Y-73265759D01*
X112164697Y-73278022D01*
X112168121Y-73290480D01*
X112170923Y-73303133D01*
X112173103Y-73315982D01*
X112174657Y-73329026D01*
X112175592Y-73342265D01*
X112175903Y-73355700D01*
X112175789Y-73363796D01*
X112175447Y-73371809D01*
X112174876Y-73379742D01*
X112174078Y-73387593D01*
X112173051Y-73395364D01*
X112171796Y-73403054D01*
X112170312Y-73410666D01*
X112168600Y-73418195D01*
X112166661Y-73425647D01*
X112164493Y-73433019D01*
X112162098Y-73440313D01*
X112159473Y-73447529D01*
X112156620Y-73454665D01*
X112153539Y-73461724D01*
X112150231Y-73468706D01*
X112146694Y-73475610D01*
X112142668Y-73482973D01*
X112138448Y-73490061D01*
X112134035Y-73496874D01*
X112129429Y-73503413D01*
X112124626Y-73509678D01*
X112119632Y-73515665D01*
X112114441Y-73521379D01*
X112109056Y-73526820D01*
X112103477Y-73531986D01*
X112097703Y-73536879D01*
X112091733Y-73541497D01*
X112085570Y-73545843D01*
X112079211Y-73549913D01*
X112072655Y-73553712D01*
X112065903Y-73557236D01*
X112058959Y-73560488D01*
X112211146Y-73560487D01*
X112220956Y-73560397D01*
X112230463Y-73560120D01*
X112239669Y-73559663D01*
X112248571Y-73559022D01*
X112257170Y-73558197D01*
X112265468Y-73557192D01*
X112273463Y-73556000D01*
X112281155Y-73554628D01*
X112288545Y-73553073D01*
X112295631Y-73551336D01*
X112302414Y-73549418D01*
X112308896Y-73547317D01*
X112315074Y-73545035D01*
X112320951Y-73542571D01*
X112326525Y-73539925D01*
X112331796Y-73537098D01*
X112342869Y-73530374D01*
X112353227Y-73523167D01*
X112362871Y-73515464D01*
X112371801Y-73507256D01*
X112380015Y-73498525D01*
X112387519Y-73489264D01*
X112394304Y-73479455D01*
X112400376Y-73469088D01*
X112405734Y-73458149D01*
X112410377Y-73446626D01*
X112414306Y-73434504D01*
X112417523Y-73421772D01*
X112420021Y-73408417D01*
X112421808Y-73394427D01*
X112422880Y-73379787D01*
X112423236Y-73364485D01*
X112422750Y-73349070D01*
X112422142Y-73341526D01*
X112421291Y-73334093D01*
X112420198Y-73326772D01*
X112418861Y-73319561D01*
X112417281Y-73312461D01*
X112415458Y-73305468D01*
X112413393Y-73298587D01*
X112411085Y-73291816D01*
X112408533Y-73285156D01*
X112405739Y-73278605D01*
X112402703Y-73272165D01*
X112399422Y-73265835D01*
X112395900Y-73259615D01*
X112392134Y-73253505D01*
X112388126Y-73247506D01*
X112383875Y-73241616D01*
X112379382Y-73235836D01*
X112374645Y-73230167D01*
X112369665Y-73224607D01*
X112364444Y-73219157D01*
X112353272Y-73208587D01*
X112341130Y-73198458D01*
X112328018Y-73188767D01*
X112313936Y-73179516D01*
X112298882Y-73170705D01*
X112298882Y-73101912D01*
X112309360Y-73104761D01*
X112319600Y-73108029D01*
X112329598Y-73111716D01*
X112339361Y-73115820D01*
X112348885Y-73120345D01*
X112358168Y-73125288D01*
X112367214Y-73130649D01*
X112376021Y-73136428D01*
X112384588Y-73142624D01*
X112392917Y-73149239D01*
X112401003Y-73156271D01*
X112408851Y-73163721D01*
X112416459Y-73171588D01*
X112423827Y-73179872D01*
X112430954Y-73188575D01*
X112437841Y-73197691D01*
X112444223Y-73206806D01*
X112450194Y-73216054D01*
X112455752Y-73225430D01*
X112460900Y-73234938D01*
X112465635Y-73244579D01*
X112469958Y-73254351D01*
X112473870Y-73264254D01*
X112477370Y-73274289D01*
X112480458Y-73284455D01*
X112483134Y-73294752D01*
X112485400Y-73305182D01*
X112487252Y-73315741D01*
X112488693Y-73326434D01*
X112489722Y-73337258D01*
X112490340Y-73348213D01*
X112490547Y-73359299D01*
X112490461Y-73366687D01*
X112490205Y-73374048D01*
X112489777Y-73381381D01*
X112489179Y-73388686D01*
X112488409Y-73395964D01*
X112487465Y-73403213D01*
X112486353Y-73410434D01*
X112485070Y-73417627D01*
X112483614Y-73424791D01*
X112481988Y-73431926D01*
X112480191Y-73439033D01*
X112478223Y-73446110D01*
X112476084Y-73453161D01*
X112473773Y-73460179D01*
X112471291Y-73467168D01*
X112468638Y-73474129D01*
X112462554Y-73488575D01*
X112456009Y-73502307D01*
X112449000Y-73515325D01*
X112441530Y-73527630D01*
X112433599Y-73539219D01*
X112425205Y-73550095D01*
X112416349Y-73560259D01*
X112407030Y-73569708D01*
X112397249Y-73578446D01*
X112387007Y-73586470D01*
X112376298Y-73593782D01*
X112365128Y-73600380D01*
X112353495Y-73606264D01*
X112341399Y-73611439D01*
X112328839Y-73615900D01*
X112315817Y-73619649D01*
X112307307Y-73621545D01*
X112297500Y-73623183D01*
X112286386Y-73624565D01*
X112273971Y-73625694D01*
X112260251Y-73626570D01*
X112245226Y-73627195D01*
X112228893Y-73627568D01*
X112211251Y-73627693D01*
X112211041Y-73627798D01*
X111637635Y-73627798D01*
X111637635Y-73560490D01*
X111738600Y-73560490D01*
X111725048Y-73552564D01*
X111712371Y-73543954D01*
X111700570Y-73534656D01*
X111689644Y-73524672D01*
X111679593Y-73514001D01*
X111670418Y-73502644D01*
X111662115Y-73490601D01*
X111654687Y-73477872D01*
X111648135Y-73464457D01*
X111642455Y-73450357D01*
X111637651Y-73435570D01*
X111633722Y-73420099D01*
X111630664Y-73403942D01*
X111628480Y-73387100D01*
X111627171Y-73369574D01*
X111626735Y-73351362D01*
X111626779Y-73349775D01*
X111694785Y-73349775D01*
X111695011Y-73360734D01*
X111695693Y-73371469D01*
X111696828Y-73381979D01*
X111698418Y-73392263D01*
X111700459Y-73402323D01*
X111702955Y-73412159D01*
X111705906Y-73421772D01*
X111709311Y-73431159D01*
X111713168Y-73440326D01*
X111717480Y-73449268D01*
X111722246Y-73457988D01*
X111727468Y-73466485D01*
X111733142Y-73474761D01*
X111739270Y-73482815D01*
X111745852Y-73490649D01*
X111752887Y-73498261D01*
X111760310Y-73505525D01*
X111768001Y-73512323D01*
X111775960Y-73518652D01*
X111784173Y-73524512D01*
X111792630Y-73529903D01*
X111801327Y-73534826D01*
X111810255Y-73539279D01*
X111819404Y-73543263D01*
X111828766Y-73546782D01*
X111838333Y-73549828D01*
X111848096Y-73552406D01*
X111858049Y-73554517D01*
X111868181Y-73556156D01*
X111878484Y-73557328D01*
X111888951Y-73558032D01*
X111899572Y-73558266D01*
X111910183Y-73558028D01*
X111920622Y-73557315D01*
X111930890Y-73556125D01*
X111940986Y-73554459D01*
X111950912Y-73552319D01*
X111960665Y-73549705D01*
X111970251Y-73546616D01*
X111979661Y-73543053D01*
X111988903Y-73539018D01*
X111997973Y-73534504D01*
X112006871Y-73529522D01*
X112015599Y-73524065D01*
X112024154Y-73518136D01*
X112032540Y-73511735D01*
X112040756Y-73504862D01*
X112048797Y-73497520D01*
X112055889Y-73490450D01*
X112062526Y-73483172D01*
X112068700Y-73475678D01*
X112074417Y-73467960D01*
X112079676Y-73460015D01*
X112084477Y-73451833D01*
X112088819Y-73443406D01*
X112092705Y-73434732D01*
X112096132Y-73425803D01*
X112099102Y-73416611D01*
X112101614Y-73407151D01*
X112103670Y-73397416D01*
X112105271Y-73387399D01*
X112106409Y-73377095D01*
X112107095Y-73366495D01*
X112107323Y-73355595D01*
X112107078Y-73344664D01*
X112106341Y-73333976D01*
X112105113Y-73323532D01*
X112103394Y-73313331D01*
X112101183Y-73303375D01*
X112098483Y-73293664D01*
X112095292Y-73284198D01*
X112091608Y-73274977D01*
X112087432Y-73266000D01*
X112082767Y-73257271D01*
X112077610Y-73248788D01*
X112071963Y-73240551D01*
X112065821Y-73232561D01*
X112059192Y-73224817D01*
X112052071Y-73217321D01*
X112044458Y-73210074D01*
X112036748Y-73203250D01*
X112028816Y-73196868D01*
X112020664Y-73190927D01*
X112012291Y-73185427D01*
X112003695Y-73180368D01*
X111994878Y-73175748D01*
X111985839Y-73171571D01*
X111976578Y-73167834D01*
X111967097Y-73164537D01*
X111957393Y-73161678D01*
X111947467Y-73159262D01*
X111937317Y-73157285D01*
X111926946Y-73155747D01*
X111916351Y-73154648D01*
X111905533Y-73153992D01*
X111894492Y-73153771D01*
X111894386Y-73153771D01*
X111884239Y-73153994D01*
X111874269Y-73154664D01*
X111864483Y-73155780D01*
X111854876Y-73157340D01*
X111845450Y-73159349D01*
X111836204Y-73161804D01*
X111827138Y-73164701D01*
X111818253Y-73168045D01*
X111809548Y-73171835D01*
X111801021Y-73176070D01*
X111792674Y-73180751D01*
X111784507Y-73185874D01*
X111776519Y-73191442D01*
X111768710Y-73197457D01*
X111761080Y-73203913D01*
X111753628Y-73210815D01*
X111746516Y-73218037D01*
X111739857Y-73225455D01*
X111733657Y-73233068D01*
X111727913Y-73240877D01*
X111722630Y-73248881D01*
X111717804Y-73257080D01*
X111713433Y-73265475D01*
X111709522Y-73274065D01*
X111706071Y-73282848D01*
X111703078Y-73291826D01*
X111700547Y-73300999D01*
X111698473Y-73310366D01*
X111696859Y-73319928D01*
X111695707Y-73329684D01*
X111695016Y-73339631D01*
X111694785Y-73349775D01*
X111626779Y-73349775D01*
X111627172Y-73335513D01*
X111628482Y-73319954D01*
X111630664Y-73304687D01*
X111633721Y-73289709D01*
X111637652Y-73275022D01*
X111642456Y-73260627D01*
X111648135Y-73246524D01*
X111654687Y-73232708D01*
X111662115Y-73219187D01*
X111670417Y-73205958D01*
X111679593Y-73193019D01*
X111689644Y-73180373D01*
X111700570Y-73168018D01*
X111712371Y-73155957D01*
X111725048Y-73144187D01*
X111738600Y-73132710D01*
X111746437Y-73126692D01*
X111754588Y-73121062D01*
X111763055Y-73115819D01*
X111771838Y-73110963D01*
X111780932Y-73106495D01*
X111790343Y-73102414D01*
X111800066Y-73098722D01*
X111810104Y-73095417D01*
X111820455Y-73092502D01*
X111831120Y-73089971D01*
X111842100Y-73087833D01*
X111853391Y-73086081D01*
X111864996Y-73084721D01*
X111876914Y-73083747D01*
X111889145Y-73083162D01*
X111894492Y-73083080D01*
X111901689Y-73082968D01*
X111916252Y-73083286D01*
G37*
G36*
X112178020Y-72240641D02*
G01*
X112177808Y-72240641D01*
X112177808Y-72240535D01*
X112178020Y-72240641D01*
G37*
G36*
X111901901Y-72412475D02*
G01*
X111902867Y-72412487D01*
X111909774Y-72412722D01*
X111916693Y-72413111D01*
X111923623Y-72413657D01*
X111930563Y-72414359D01*
X111937512Y-72415216D01*
X111944468Y-72416228D01*
X111951431Y-72417396D01*
X111958398Y-72418719D01*
X111965368Y-72420196D01*
X111972343Y-72421828D01*
X111979318Y-72423615D01*
X111993266Y-72427654D01*
X112007204Y-72432305D01*
X112012798Y-72434375D01*
X112018191Y-72436458D01*
X112023384Y-72438556D01*
X112028378Y-72440669D01*
X112033177Y-72442795D01*
X112037782Y-72444939D01*
X112042194Y-72447100D01*
X112046416Y-72449278D01*
X112050450Y-72451475D01*
X112054297Y-72453691D01*
X112057958Y-72455929D01*
X112061438Y-72458185D01*
X112064736Y-72460468D01*
X112067855Y-72462768D01*
X112070797Y-72465093D01*
X112073563Y-72467442D01*
X112087758Y-72480606D01*
X112101043Y-72494063D01*
X112113427Y-72507808D01*
X112124902Y-72521839D01*
X112135468Y-72536151D01*
X112145123Y-72550743D01*
X112153865Y-72565610D01*
X112161695Y-72580750D01*
X112168609Y-72596158D01*
X112174607Y-72611833D01*
X112179685Y-72627770D01*
X112183844Y-72643966D01*
X112187082Y-72660420D01*
X112189396Y-72677125D01*
X112190786Y-72694080D01*
X112191249Y-72711282D01*
X112191357Y-72711282D01*
X112191045Y-72726270D01*
X112190117Y-72740837D01*
X112188570Y-72754978D01*
X112186406Y-72768693D01*
X112183629Y-72781981D01*
X112180238Y-72794838D01*
X112176233Y-72807265D01*
X112171617Y-72819258D01*
X112166391Y-72830818D01*
X112160556Y-72841945D01*
X112154114Y-72852630D01*
X112147064Y-72862878D01*
X112139410Y-72872686D01*
X112131151Y-72882052D01*
X112122291Y-72890976D01*
X112112826Y-72899454D01*
X112178126Y-72899454D01*
X112178127Y-72996926D01*
X111622818Y-72996925D01*
X111622818Y-72899454D01*
X111688435Y-72899454D01*
X111679185Y-72891033D01*
X111670527Y-72882161D01*
X111662461Y-72872835D01*
X111654987Y-72863052D01*
X111648106Y-72852809D01*
X111641820Y-72842105D01*
X111636128Y-72830935D01*
X111631034Y-72819298D01*
X111626537Y-72807191D01*
X111622633Y-72794611D01*
X111619330Y-72781556D01*
X111616626Y-72768023D01*
X111614520Y-72754009D01*
X111613016Y-72739513D01*
X111612113Y-72724532D01*
X111611814Y-72709165D01*
X111710025Y-72709165D01*
X111710241Y-72719380D01*
X111710890Y-72729351D01*
X111711972Y-72739081D01*
X111713491Y-72748573D01*
X111715446Y-72757831D01*
X111717838Y-72766860D01*
X111720670Y-72775663D01*
X111723942Y-72784240D01*
X111727656Y-72792601D01*
X111731812Y-72800744D01*
X111736412Y-72808674D01*
X111741457Y-72816396D01*
X111746951Y-72823912D01*
X111752890Y-72831227D01*
X111759280Y-72838344D01*
X111766116Y-72845267D01*
X111773327Y-72851894D01*
X111780712Y-72858084D01*
X111788277Y-72863837D01*
X111796027Y-72869154D01*
X111803962Y-72874038D01*
X111812092Y-72878491D01*
X111820417Y-72882512D01*
X111828942Y-72886106D01*
X111837672Y-72889271D01*
X111846611Y-72892008D01*
X111855763Y-72894321D01*
X111865131Y-72896210D01*
X111874723Y-72897678D01*
X111884539Y-72898725D01*
X111894584Y-72899351D01*
X111904864Y-72899559D01*
X111914318Y-72899344D01*
X111923591Y-72898698D01*
X111932687Y-72897620D01*
X111941611Y-72896105D01*
X111950365Y-72894157D01*
X111958952Y-72891768D01*
X111967375Y-72888939D01*
X111975640Y-72885669D01*
X111983748Y-72881954D01*
X111991703Y-72877793D01*
X111999510Y-72873185D01*
X112007168Y-72868127D01*
X112014686Y-72862617D01*
X112022063Y-72856655D01*
X112029305Y-72850237D01*
X112036415Y-72843362D01*
X112043234Y-72836194D01*
X112049603Y-72828901D01*
X112055523Y-72821475D01*
X112060995Y-72813915D01*
X112066024Y-72806217D01*
X112070606Y-72798375D01*
X112074746Y-72790392D01*
X112078444Y-72782258D01*
X112081702Y-72773969D01*
X112084519Y-72765526D01*
X112086902Y-72756922D01*
X112088847Y-72748155D01*
X112090358Y-72739222D01*
X112091435Y-72730120D01*
X112092082Y-72720842D01*
X112092296Y-72711387D01*
X112092082Y-72701347D01*
X112091440Y-72691504D01*
X112090367Y-72681854D01*
X112088864Y-72672395D01*
X112086926Y-72663117D01*
X112084554Y-72654025D01*
X112081745Y-72645107D01*
X112078496Y-72636365D01*
X112074809Y-72627792D01*
X112070679Y-72619386D01*
X112066105Y-72611144D01*
X112061086Y-72603056D01*
X112055619Y-72595124D01*
X112049705Y-72587343D01*
X112043339Y-72579707D01*
X112036520Y-72572217D01*
X112029444Y-72565071D01*
X112022215Y-72558398D01*
X112014832Y-72552196D01*
X112007286Y-72546463D01*
X111999572Y-72541197D01*
X111991683Y-72536397D01*
X111983616Y-72532061D01*
X111975362Y-72528190D01*
X111966916Y-72524779D01*
X111958270Y-72521828D01*
X111949422Y-72519336D01*
X111940363Y-72517301D01*
X111931087Y-72515718D01*
X111921589Y-72514591D01*
X111911862Y-72513916D01*
X111901901Y-72513691D01*
X111891929Y-72513914D01*
X111882171Y-72514575D01*
X111872625Y-72515686D01*
X111863286Y-72517240D01*
X111854152Y-72519242D01*
X111845218Y-72521694D01*
X111836481Y-72524597D01*
X111827937Y-72527952D01*
X111819582Y-72531761D01*
X111811414Y-72536025D01*
X111803429Y-72540747D01*
X111795624Y-72545927D01*
X111787991Y-72551567D01*
X111780534Y-72557669D01*
X111773244Y-72564234D01*
X111766117Y-72571263D01*
X111759260Y-72578621D01*
X111752859Y-72586127D01*
X111746911Y-72593788D01*
X111741412Y-72601606D01*
X111736367Y-72609588D01*
X111731765Y-72617734D01*
X111727612Y-72626050D01*
X111723902Y-72634539D01*
X111720636Y-72643206D01*
X111717811Y-72652054D01*
X111715424Y-72661086D01*
X111713476Y-72670309D01*
X111711964Y-72679724D01*
X111710885Y-72689338D01*
X111710240Y-72699148D01*
X111710025Y-72709165D01*
X111611814Y-72709165D01*
X111611812Y-72709059D01*
X111612264Y-72693392D01*
X111613626Y-72677825D01*
X111615889Y-72662361D01*
X111619055Y-72647003D01*
X111623126Y-72631755D01*
X111628094Y-72616620D01*
X111633957Y-72601603D01*
X111640718Y-72586703D01*
X111648372Y-72571927D01*
X111656920Y-72557275D01*
X111666358Y-72542756D01*
X111676686Y-72528367D01*
X111687901Y-72514115D01*
X111700000Y-72500000D01*
X111712986Y-72486030D01*
X111726855Y-72472204D01*
X111729691Y-72469563D01*
X111732689Y-72466959D01*
X111735849Y-72464391D01*
X111739173Y-72461857D01*
X111742664Y-72459357D01*
X111746321Y-72456892D01*
X111750147Y-72454459D01*
X111754144Y-72452057D01*
X111758313Y-72449685D01*
X111762657Y-72447345D01*
X111767176Y-72445034D01*
X111771872Y-72442751D01*
X111781806Y-72438269D01*
X111792468Y-72433893D01*
X111799240Y-72431314D01*
X111805976Y-72428898D01*
X111812678Y-72426644D01*
X111819343Y-72424554D01*
X111825970Y-72422626D01*
X111832558Y-72420863D01*
X111839105Y-72419264D01*
X111845611Y-72417833D01*
X111852073Y-72416565D01*
X111858491Y-72415467D01*
X111864862Y-72414535D01*
X111871184Y-72413772D01*
X111877460Y-72413176D01*
X111883683Y-72412750D01*
X111889855Y-72412494D01*
X111895974Y-72412409D01*
X111901901Y-72412475D01*
G37*
D10*
X117363220Y-104546009D02*
X117029887Y-104546009D01*
X116887030Y-105069819D02*
X117363220Y-105069819D01*
X117363220Y-105069819D02*
X117363220Y-104069819D01*
X117363220Y-104069819D02*
X116887030Y-104069819D01*
X116458458Y-105069819D02*
X116458458Y-104069819D01*
X116458458Y-104069819D02*
X115887030Y-105069819D01*
X115887030Y-105069819D02*
X115887030Y-104069819D01*
X115458458Y-104784104D02*
X114982268Y-104784104D01*
X115553696Y-105069819D02*
X115220363Y-104069819D01*
X115220363Y-104069819D02*
X114887030Y-105069819D01*
X124606533Y-74098684D02*
X124606533Y-73765350D01*
X124606533Y-73765350D02*
X123906533Y-73765350D01*
X124239866Y-74332017D02*
X124239866Y-74565351D01*
X124606533Y-74665351D02*
X124606533Y-74332017D01*
X124606533Y-74332017D02*
X123906533Y-74332017D01*
X123906533Y-74332017D02*
X123906533Y-74665351D01*
X124606533Y-74965350D02*
X123906533Y-74965350D01*
X123906533Y-74965350D02*
X123906533Y-75132017D01*
X123906533Y-75132017D02*
X123939866Y-75232017D01*
X123939866Y-75232017D02*
X124006533Y-75298684D01*
X124006533Y-75298684D02*
X124073200Y-75332017D01*
X124073200Y-75332017D02*
X124206533Y-75365350D01*
X124206533Y-75365350D02*
X124306533Y-75365350D01*
X124306533Y-75365350D02*
X124439866Y-75332017D01*
X124439866Y-75332017D02*
X124506533Y-75298684D01*
X124506533Y-75298684D02*
X124573200Y-75232017D01*
X124573200Y-75232017D02*
X124606533Y-75132017D01*
X124606533Y-75132017D02*
X124606533Y-74965350D01*
X124673200Y-75498684D02*
X124673200Y-76032017D01*
X124239866Y-76198683D02*
X124239866Y-76432017D01*
X124606533Y-76532017D02*
X124606533Y-76198683D01*
X124606533Y-76198683D02*
X123906533Y-76198683D01*
X123906533Y-76198683D02*
X123906533Y-76532017D01*
X123906533Y-76765350D02*
X124606533Y-77232016D01*
X123906533Y-77232016D02*
X124606533Y-76765350D01*
X123906533Y-77398683D02*
X123906533Y-77798683D01*
X124606533Y-77598683D02*
X123906533Y-77598683D01*
X122739411Y-105069819D02*
X123310839Y-105069819D01*
X123025125Y-105069819D02*
X123025125Y-104069819D01*
X123025125Y-104069819D02*
X123120363Y-104212676D01*
X123120363Y-104212676D02*
X123215601Y-104307914D01*
X123215601Y-104307914D02*
X123310839Y-104355533D01*
X122453696Y-104069819D02*
X122120363Y-105069819D01*
X122120363Y-105069819D02*
X121787030Y-104069819D01*
X121310839Y-104498390D02*
X121406077Y-104450771D01*
X121406077Y-104450771D02*
X121453696Y-104403152D01*
X121453696Y-104403152D02*
X121501315Y-104307914D01*
X121501315Y-104307914D02*
X121501315Y-104260295D01*
X121501315Y-104260295D02*
X121453696Y-104165057D01*
X121453696Y-104165057D02*
X121406077Y-104117438D01*
X121406077Y-104117438D02*
X121310839Y-104069819D01*
X121310839Y-104069819D02*
X121120363Y-104069819D01*
X121120363Y-104069819D02*
X121025125Y-104117438D01*
X121025125Y-104117438D02*
X120977506Y-104165057D01*
X120977506Y-104165057D02*
X120929887Y-104260295D01*
X120929887Y-104260295D02*
X120929887Y-104307914D01*
X120929887Y-104307914D02*
X120977506Y-104403152D01*
X120977506Y-104403152D02*
X121025125Y-104450771D01*
X121025125Y-104450771D02*
X121120363Y-104498390D01*
X121120363Y-104498390D02*
X121310839Y-104498390D01*
X121310839Y-104498390D02*
X121406077Y-104546009D01*
X121406077Y-104546009D02*
X121453696Y-104593628D01*
X121453696Y-104593628D02*
X121501315Y-104688866D01*
X121501315Y-104688866D02*
X121501315Y-104879342D01*
X121501315Y-104879342D02*
X121453696Y-104974580D01*
X121453696Y-104974580D02*
X121406077Y-105022200D01*
X121406077Y-105022200D02*
X121310839Y-105069819D01*
X121310839Y-105069819D02*
X121120363Y-105069819D01*
X121120363Y-105069819D02*
X121025125Y-105022200D01*
X121025125Y-105022200D02*
X120977506Y-104974580D01*
X120977506Y-104974580D02*
X120929887Y-104879342D01*
X120929887Y-104879342D02*
X120929887Y-104688866D01*
X120929887Y-104688866D02*
X120977506Y-104593628D01*
X120977506Y-104593628D02*
X121025125Y-104546009D01*
X121025125Y-104546009D02*
X121120363Y-104498390D01*
D12*
X111014171Y-75617292D02*
X111014171Y-76017292D01*
X111642742Y-76188720D02*
X111642742Y-75617292D01*
X111642742Y-75617292D02*
X110442742Y-75617292D01*
X110442742Y-75617292D02*
X110442742Y-76188720D01*
X111585600Y-76645863D02*
X111642742Y-76817292D01*
X111642742Y-76817292D02*
X111642742Y-77103006D01*
X111642742Y-77103006D02*
X111585600Y-77217292D01*
X111585600Y-77217292D02*
X111528457Y-77274434D01*
X111528457Y-77274434D02*
X111414171Y-77331577D01*
X111414171Y-77331577D02*
X111299885Y-77331577D01*
X111299885Y-77331577D02*
X111185600Y-77274434D01*
X111185600Y-77274434D02*
X111128457Y-77217292D01*
X111128457Y-77217292D02*
X111071314Y-77103006D01*
X111071314Y-77103006D02*
X111014171Y-76874434D01*
X111014171Y-76874434D02*
X110957028Y-76760149D01*
X110957028Y-76760149D02*
X110899885Y-76703006D01*
X110899885Y-76703006D02*
X110785600Y-76645863D01*
X110785600Y-76645863D02*
X110671314Y-76645863D01*
X110671314Y-76645863D02*
X110557028Y-76703006D01*
X110557028Y-76703006D02*
X110499885Y-76760149D01*
X110499885Y-76760149D02*
X110442742Y-76874434D01*
X110442742Y-76874434D02*
X110442742Y-77160149D01*
X110442742Y-77160149D02*
X110499885Y-77331577D01*
X111642742Y-77845863D02*
X110442742Y-77845863D01*
X110442742Y-77845863D02*
X110442742Y-78303006D01*
X110442742Y-78303006D02*
X110499885Y-78417291D01*
X110499885Y-78417291D02*
X110557028Y-78474434D01*
X110557028Y-78474434D02*
X110671314Y-78531577D01*
X110671314Y-78531577D02*
X110842742Y-78531577D01*
X110842742Y-78531577D02*
X110957028Y-78474434D01*
X110957028Y-78474434D02*
X111014171Y-78417291D01*
X111014171Y-78417291D02*
X111071314Y-78303006D01*
X111071314Y-78303006D02*
X111071314Y-77845863D01*
X110442742Y-78931577D02*
X110442742Y-79674434D01*
X110442742Y-79674434D02*
X110899885Y-79274434D01*
X110899885Y-79274434D02*
X110899885Y-79445863D01*
X110899885Y-79445863D02*
X110957028Y-79560149D01*
X110957028Y-79560149D02*
X111014171Y-79617291D01*
X111014171Y-79617291D02*
X111128457Y-79674434D01*
X111128457Y-79674434D02*
X111414171Y-79674434D01*
X111414171Y-79674434D02*
X111528457Y-79617291D01*
X111528457Y-79617291D02*
X111585600Y-79560149D01*
X111585600Y-79560149D02*
X111642742Y-79445863D01*
X111642742Y-79445863D02*
X111642742Y-79103006D01*
X111642742Y-79103006D02*
X111585600Y-78988720D01*
X111585600Y-78988720D02*
X111528457Y-78931577D01*
X110557028Y-80131577D02*
X110499885Y-80188720D01*
X110499885Y-80188720D02*
X110442742Y-80303006D01*
X110442742Y-80303006D02*
X110442742Y-80588720D01*
X110442742Y-80588720D02*
X110499885Y-80703006D01*
X110499885Y-80703006D02*
X110557028Y-80760148D01*
X110557028Y-80760148D02*
X110671314Y-80817291D01*
X110671314Y-80817291D02*
X110785600Y-80817291D01*
X110785600Y-80817291D02*
X110957028Y-80760148D01*
X110957028Y-80760148D02*
X111642742Y-80074434D01*
X111642742Y-80074434D02*
X111642742Y-80817291D01*
X111642742Y-82245863D02*
X110842742Y-82245863D01*
X110442742Y-82245863D02*
X110499885Y-82188720D01*
X110499885Y-82188720D02*
X110557028Y-82245863D01*
X110557028Y-82245863D02*
X110499885Y-82303006D01*
X110499885Y-82303006D02*
X110442742Y-82245863D01*
X110442742Y-82245863D02*
X110557028Y-82245863D01*
X111642742Y-82817292D02*
X110442742Y-82817292D01*
X110442742Y-82817292D02*
X110442742Y-83274435D01*
X110442742Y-83274435D02*
X110499885Y-83388720D01*
X110499885Y-83388720D02*
X110557028Y-83445863D01*
X110557028Y-83445863D02*
X110671314Y-83503006D01*
X110671314Y-83503006D02*
X110842742Y-83503006D01*
X110842742Y-83503006D02*
X110957028Y-83445863D01*
X110957028Y-83445863D02*
X111014171Y-83388720D01*
X111014171Y-83388720D02*
X111071314Y-83274435D01*
X111071314Y-83274435D02*
X111071314Y-82817292D01*
X111642742Y-84188720D02*
X111585600Y-84074435D01*
X111585600Y-84074435D02*
X111528457Y-84017292D01*
X111528457Y-84017292D02*
X111414171Y-83960149D01*
X111414171Y-83960149D02*
X111071314Y-83960149D01*
X111071314Y-83960149D02*
X110957028Y-84017292D01*
X110957028Y-84017292D02*
X110899885Y-84074435D01*
X110899885Y-84074435D02*
X110842742Y-84188720D01*
X110842742Y-84188720D02*
X110842742Y-84360149D01*
X110842742Y-84360149D02*
X110899885Y-84474435D01*
X110899885Y-84474435D02*
X110957028Y-84531578D01*
X110957028Y-84531578D02*
X111071314Y-84588720D01*
X111071314Y-84588720D02*
X111414171Y-84588720D01*
X111414171Y-84588720D02*
X111528457Y-84531578D01*
X111528457Y-84531578D02*
X111585600Y-84474435D01*
X111585600Y-84474435D02*
X111642742Y-84360149D01*
X111642742Y-84360149D02*
X111642742Y-84188720D01*
X111642742Y-85617292D02*
X110442742Y-85617292D01*
X111585600Y-85617292D02*
X111642742Y-85503006D01*
X111642742Y-85503006D02*
X111642742Y-85274434D01*
X111642742Y-85274434D02*
X111585600Y-85160149D01*
X111585600Y-85160149D02*
X111528457Y-85103006D01*
X111528457Y-85103006D02*
X111414171Y-85045863D01*
X111414171Y-85045863D02*
X111071314Y-85045863D01*
X111071314Y-85045863D02*
X110957028Y-85103006D01*
X110957028Y-85103006D02*
X110899885Y-85160149D01*
X110899885Y-85160149D02*
X110842742Y-85274434D01*
X110842742Y-85274434D02*
X110842742Y-85503006D01*
X110842742Y-85503006D02*
X110899885Y-85617292D01*
X111014171Y-87503006D02*
X111071314Y-87674434D01*
X111071314Y-87674434D02*
X111128457Y-87731577D01*
X111128457Y-87731577D02*
X111242742Y-87788720D01*
X111242742Y-87788720D02*
X111414171Y-87788720D01*
X111414171Y-87788720D02*
X111528457Y-87731577D01*
X111528457Y-87731577D02*
X111585600Y-87674434D01*
X111585600Y-87674434D02*
X111642742Y-87560149D01*
X111642742Y-87560149D02*
X111642742Y-87103006D01*
X111642742Y-87103006D02*
X110442742Y-87103006D01*
X110442742Y-87103006D02*
X110442742Y-87503006D01*
X110442742Y-87503006D02*
X110499885Y-87617292D01*
X110499885Y-87617292D02*
X110557028Y-87674434D01*
X110557028Y-87674434D02*
X110671314Y-87731577D01*
X110671314Y-87731577D02*
X110785600Y-87731577D01*
X110785600Y-87731577D02*
X110899885Y-87674434D01*
X110899885Y-87674434D02*
X110957028Y-87617292D01*
X110957028Y-87617292D02*
X111014171Y-87503006D01*
X111014171Y-87503006D02*
X111014171Y-87103006D01*
X111642742Y-88474434D02*
X111585600Y-88360149D01*
X111585600Y-88360149D02*
X111471314Y-88303006D01*
X111471314Y-88303006D02*
X110442742Y-88303006D01*
X110842742Y-89445863D02*
X111642742Y-89445863D01*
X110842742Y-88931577D02*
X111471314Y-88931577D01*
X111471314Y-88931577D02*
X111585600Y-88988720D01*
X111585600Y-88988720D02*
X111642742Y-89103005D01*
X111642742Y-89103005D02*
X111642742Y-89274434D01*
X111642742Y-89274434D02*
X111585600Y-89388720D01*
X111585600Y-89388720D02*
X111528457Y-89445863D01*
X111585600Y-90474434D02*
X111642742Y-90360148D01*
X111642742Y-90360148D02*
X111642742Y-90131577D01*
X111642742Y-90131577D02*
X111585600Y-90017291D01*
X111585600Y-90017291D02*
X111471314Y-89960148D01*
X111471314Y-89960148D02*
X111014171Y-89960148D01*
X111014171Y-89960148D02*
X110899885Y-90017291D01*
X110899885Y-90017291D02*
X110842742Y-90131577D01*
X110842742Y-90131577D02*
X110842742Y-90360148D01*
X110842742Y-90360148D02*
X110899885Y-90474434D01*
X110899885Y-90474434D02*
X111014171Y-90531577D01*
X111014171Y-90531577D02*
X111128457Y-90531577D01*
X111128457Y-90531577D02*
X111242742Y-89960148D01*
X110842742Y-90874433D02*
X110842742Y-91331576D01*
X110442742Y-91045862D02*
X111471314Y-91045862D01*
X111471314Y-91045862D02*
X111585600Y-91103005D01*
X111585600Y-91103005D02*
X111642742Y-91217290D01*
X111642742Y-91217290D02*
X111642742Y-91331576D01*
X111642742Y-91903004D02*
X111585600Y-91788719D01*
X111585600Y-91788719D02*
X111528457Y-91731576D01*
X111528457Y-91731576D02*
X111414171Y-91674433D01*
X111414171Y-91674433D02*
X111071314Y-91674433D01*
X111071314Y-91674433D02*
X110957028Y-91731576D01*
X110957028Y-91731576D02*
X110899885Y-91788719D01*
X110899885Y-91788719D02*
X110842742Y-91903004D01*
X110842742Y-91903004D02*
X110842742Y-92074433D01*
X110842742Y-92074433D02*
X110899885Y-92188719D01*
X110899885Y-92188719D02*
X110957028Y-92245862D01*
X110957028Y-92245862D02*
X111071314Y-92303004D01*
X111071314Y-92303004D02*
X111414171Y-92303004D01*
X111414171Y-92303004D02*
X111528457Y-92245862D01*
X111528457Y-92245862D02*
X111585600Y-92188719D01*
X111585600Y-92188719D02*
X111642742Y-92074433D01*
X111642742Y-92074433D02*
X111642742Y-91903004D01*
X111642742Y-92988718D02*
X111585600Y-92874433D01*
X111585600Y-92874433D02*
X111528457Y-92817290D01*
X111528457Y-92817290D02*
X111414171Y-92760147D01*
X111414171Y-92760147D02*
X111071314Y-92760147D01*
X111071314Y-92760147D02*
X110957028Y-92817290D01*
X110957028Y-92817290D02*
X110899885Y-92874433D01*
X110899885Y-92874433D02*
X110842742Y-92988718D01*
X110842742Y-92988718D02*
X110842742Y-93160147D01*
X110842742Y-93160147D02*
X110899885Y-93274433D01*
X110899885Y-93274433D02*
X110957028Y-93331576D01*
X110957028Y-93331576D02*
X111071314Y-93388718D01*
X111071314Y-93388718D02*
X111414171Y-93388718D01*
X111414171Y-93388718D02*
X111528457Y-93331576D01*
X111528457Y-93331576D02*
X111585600Y-93274433D01*
X111585600Y-93274433D02*
X111642742Y-93160147D01*
X111642742Y-93160147D02*
X111642742Y-92988718D01*
X110842742Y-93731575D02*
X110842742Y-94188718D01*
X110442742Y-93903004D02*
X111471314Y-93903004D01*
X111471314Y-93903004D02*
X111585600Y-93960147D01*
X111585600Y-93960147D02*
X111642742Y-94074432D01*
X111642742Y-94074432D02*
X111642742Y-94188718D01*
X111642742Y-94588718D02*
X110442742Y-94588718D01*
X111642742Y-95103004D02*
X111014171Y-95103004D01*
X111014171Y-95103004D02*
X110899885Y-95045861D01*
X110899885Y-95045861D02*
X110842742Y-94931575D01*
X110842742Y-94931575D02*
X110842742Y-94760146D01*
X110842742Y-94760146D02*
X110899885Y-94645861D01*
X110899885Y-94645861D02*
X110957028Y-94588718D01*
X111014171Y-96988718D02*
X111071314Y-97160146D01*
X111071314Y-97160146D02*
X111128457Y-97217289D01*
X111128457Y-97217289D02*
X111242742Y-97274432D01*
X111242742Y-97274432D02*
X111414171Y-97274432D01*
X111414171Y-97274432D02*
X111528457Y-97217289D01*
X111528457Y-97217289D02*
X111585600Y-97160146D01*
X111585600Y-97160146D02*
X111642742Y-97045861D01*
X111642742Y-97045861D02*
X111642742Y-96588718D01*
X111642742Y-96588718D02*
X110442742Y-96588718D01*
X110442742Y-96588718D02*
X110442742Y-96988718D01*
X110442742Y-96988718D02*
X110499885Y-97103004D01*
X110499885Y-97103004D02*
X110557028Y-97160146D01*
X110557028Y-97160146D02*
X110671314Y-97217289D01*
X110671314Y-97217289D02*
X110785600Y-97217289D01*
X110785600Y-97217289D02*
X110899885Y-97160146D01*
X110899885Y-97160146D02*
X110957028Y-97103004D01*
X110957028Y-97103004D02*
X111014171Y-96988718D01*
X111014171Y-96988718D02*
X111014171Y-96588718D01*
X111642742Y-97960146D02*
X111585600Y-97845861D01*
X111585600Y-97845861D02*
X111528457Y-97788718D01*
X111528457Y-97788718D02*
X111414171Y-97731575D01*
X111414171Y-97731575D02*
X111071314Y-97731575D01*
X111071314Y-97731575D02*
X110957028Y-97788718D01*
X110957028Y-97788718D02*
X110899885Y-97845861D01*
X110899885Y-97845861D02*
X110842742Y-97960146D01*
X110842742Y-97960146D02*
X110842742Y-98131575D01*
X110842742Y-98131575D02*
X110899885Y-98245861D01*
X110899885Y-98245861D02*
X110957028Y-98303004D01*
X110957028Y-98303004D02*
X111071314Y-98360146D01*
X111071314Y-98360146D02*
X111414171Y-98360146D01*
X111414171Y-98360146D02*
X111528457Y-98303004D01*
X111528457Y-98303004D02*
X111585600Y-98245861D01*
X111585600Y-98245861D02*
X111642742Y-98131575D01*
X111642742Y-98131575D02*
X111642742Y-97960146D01*
X111642742Y-99388718D02*
X111014171Y-99388718D01*
X111014171Y-99388718D02*
X110899885Y-99331575D01*
X110899885Y-99331575D02*
X110842742Y-99217289D01*
X110842742Y-99217289D02*
X110842742Y-98988718D01*
X110842742Y-98988718D02*
X110899885Y-98874432D01*
X111585600Y-99388718D02*
X111642742Y-99274432D01*
X111642742Y-99274432D02*
X111642742Y-98988718D01*
X111642742Y-98988718D02*
X111585600Y-98874432D01*
X111585600Y-98874432D02*
X111471314Y-98817289D01*
X111471314Y-98817289D02*
X111357028Y-98817289D01*
X111357028Y-98817289D02*
X111242742Y-98874432D01*
X111242742Y-98874432D02*
X111185600Y-98988718D01*
X111185600Y-98988718D02*
X111185600Y-99274432D01*
X111185600Y-99274432D02*
X111128457Y-99388718D01*
X111642742Y-99960146D02*
X110842742Y-99960146D01*
X111071314Y-99960146D02*
X110957028Y-100017289D01*
X110957028Y-100017289D02*
X110899885Y-100074432D01*
X110899885Y-100074432D02*
X110842742Y-100188717D01*
X110842742Y-100188717D02*
X110842742Y-100303003D01*
X111642742Y-101217289D02*
X110442742Y-101217289D01*
X111585600Y-101217289D02*
X111642742Y-101103003D01*
X111642742Y-101103003D02*
X111642742Y-100874431D01*
X111642742Y-100874431D02*
X111585600Y-100760146D01*
X111585600Y-100760146D02*
X111528457Y-100703003D01*
X111528457Y-100703003D02*
X111414171Y-100645860D01*
X111414171Y-100645860D02*
X111071314Y-100645860D01*
X111071314Y-100645860D02*
X110957028Y-100703003D01*
X110957028Y-100703003D02*
X110899885Y-100760146D01*
X110899885Y-100760146D02*
X110842742Y-100874431D01*
X110842742Y-100874431D02*
X110842742Y-101103003D01*
X110842742Y-101103003D02*
X110899885Y-101217289D01*
D13*
X113372419Y-76175312D02*
X112896228Y-75841979D01*
X113372419Y-75603884D02*
X112372419Y-75603884D01*
X112372419Y-75603884D02*
X112372419Y-75984836D01*
X112372419Y-75984836D02*
X112420038Y-76080074D01*
X112420038Y-76080074D02*
X112467657Y-76127693D01*
X112467657Y-76127693D02*
X112562895Y-76175312D01*
X112562895Y-76175312D02*
X112705752Y-76175312D01*
X112705752Y-76175312D02*
X112800990Y-76127693D01*
X112800990Y-76127693D02*
X112848609Y-76080074D01*
X112848609Y-76080074D02*
X112896228Y-75984836D01*
X112896228Y-75984836D02*
X112896228Y-75603884D01*
X113324800Y-76984836D02*
X113372419Y-76889598D01*
X113372419Y-76889598D02*
X113372419Y-76699122D01*
X113372419Y-76699122D02*
X113324800Y-76603884D01*
X113324800Y-76603884D02*
X113229561Y-76556265D01*
X113229561Y-76556265D02*
X112848609Y-76556265D01*
X112848609Y-76556265D02*
X112753371Y-76603884D01*
X112753371Y-76603884D02*
X112705752Y-76699122D01*
X112705752Y-76699122D02*
X112705752Y-76889598D01*
X112705752Y-76889598D02*
X112753371Y-76984836D01*
X112753371Y-76984836D02*
X112848609Y-77032455D01*
X112848609Y-77032455D02*
X112943847Y-77032455D01*
X112943847Y-77032455D02*
X113039085Y-76556265D01*
X112705752Y-77365789D02*
X113372419Y-77603884D01*
X113372419Y-77603884D02*
X112705752Y-77841979D01*
X112372419Y-79175313D02*
X112372419Y-79270551D01*
X112372419Y-79270551D02*
X112420038Y-79365789D01*
X112420038Y-79365789D02*
X112467657Y-79413408D01*
X112467657Y-79413408D02*
X112562895Y-79461027D01*
X112562895Y-79461027D02*
X112753371Y-79508646D01*
X112753371Y-79508646D02*
X112991466Y-79508646D01*
X112991466Y-79508646D02*
X113181942Y-79461027D01*
X113181942Y-79461027D02*
X113277180Y-79413408D01*
X113277180Y-79413408D02*
X113324800Y-79365789D01*
X113324800Y-79365789D02*
X113372419Y-79270551D01*
X113372419Y-79270551D02*
X113372419Y-79175313D01*
X113372419Y-79175313D02*
X113324800Y-79080075D01*
X113324800Y-79080075D02*
X113277180Y-79032456D01*
X113277180Y-79032456D02*
X113181942Y-78984837D01*
X113181942Y-78984837D02*
X112991466Y-78937218D01*
X112991466Y-78937218D02*
X112753371Y-78937218D01*
X112753371Y-78937218D02*
X112562895Y-78984837D01*
X112562895Y-78984837D02*
X112467657Y-79032456D01*
X112467657Y-79032456D02*
X112420038Y-79080075D01*
X112420038Y-79080075D02*
X112372419Y-79175313D01*
X113277180Y-79937218D02*
X113324800Y-79984837D01*
X113324800Y-79984837D02*
X113372419Y-79937218D01*
X113372419Y-79937218D02*
X113324800Y-79889599D01*
X113324800Y-79889599D02*
X113277180Y-79937218D01*
X113277180Y-79937218D02*
X113372419Y-79937218D01*
X112467657Y-80365789D02*
X112420038Y-80413408D01*
X112420038Y-80413408D02*
X112372419Y-80508646D01*
X112372419Y-80508646D02*
X112372419Y-80746741D01*
X112372419Y-80746741D02*
X112420038Y-80841979D01*
X112420038Y-80841979D02*
X112467657Y-80889598D01*
X112467657Y-80889598D02*
X112562895Y-80937217D01*
X112562895Y-80937217D02*
X112658133Y-80937217D01*
X112658133Y-80937217D02*
X112800990Y-80889598D01*
X112800990Y-80889598D02*
X113372419Y-80318170D01*
X113372419Y-80318170D02*
X113372419Y-80937217D01*
X113372419Y-82127694D02*
X112372419Y-82127694D01*
X112753371Y-82127694D02*
X112705752Y-82222932D01*
X112705752Y-82222932D02*
X112705752Y-82413408D01*
X112705752Y-82413408D02*
X112753371Y-82508646D01*
X112753371Y-82508646D02*
X112800990Y-82556265D01*
X112800990Y-82556265D02*
X112896228Y-82603884D01*
X112896228Y-82603884D02*
X113181942Y-82603884D01*
X113181942Y-82603884D02*
X113277180Y-82556265D01*
X113277180Y-82556265D02*
X113324800Y-82508646D01*
X113324800Y-82508646D02*
X113372419Y-82413408D01*
X113372419Y-82413408D02*
X113372419Y-82222932D01*
X113372419Y-82222932D02*
X113324800Y-82127694D01*
X112705752Y-82937218D02*
X113372419Y-83175313D01*
X112705752Y-83413408D02*
X113372419Y-83175313D01*
X113372419Y-83175313D02*
X113610514Y-83080075D01*
X113610514Y-83080075D02*
X113658133Y-83032456D01*
X113658133Y-83032456D02*
X113705752Y-82937218D01*
X113372419Y-84556266D02*
X112372419Y-84556266D01*
X112372419Y-84556266D02*
X113086704Y-84889599D01*
X113086704Y-84889599D02*
X112372419Y-85222932D01*
X112372419Y-85222932D02*
X113372419Y-85222932D01*
X113372419Y-86127694D02*
X112848609Y-86127694D01*
X112848609Y-86127694D02*
X112753371Y-86080075D01*
X112753371Y-86080075D02*
X112705752Y-85984837D01*
X112705752Y-85984837D02*
X112705752Y-85794361D01*
X112705752Y-85794361D02*
X112753371Y-85699123D01*
X113324800Y-86127694D02*
X113372419Y-86032456D01*
X113372419Y-86032456D02*
X113372419Y-85794361D01*
X113372419Y-85794361D02*
X113324800Y-85699123D01*
X113324800Y-85699123D02*
X113229561Y-85651504D01*
X113229561Y-85651504D02*
X113134323Y-85651504D01*
X113134323Y-85651504D02*
X113039085Y-85699123D01*
X113039085Y-85699123D02*
X112991466Y-85794361D01*
X112991466Y-85794361D02*
X112991466Y-86032456D01*
X112991466Y-86032456D02*
X112943847Y-86127694D01*
X113372419Y-86508647D02*
X112705752Y-87032456D01*
X112705752Y-86508647D02*
X113372419Y-87032456D01*
X113372419Y-87413409D02*
X112372419Y-87413409D01*
X112372419Y-87413409D02*
X113086704Y-87746742D01*
X113086704Y-87746742D02*
X112372419Y-88080075D01*
X112372419Y-88080075D02*
X113372419Y-88080075D01*
X113372419Y-88984837D02*
X112848609Y-88984837D01*
X112848609Y-88984837D02*
X112753371Y-88937218D01*
X112753371Y-88937218D02*
X112705752Y-88841980D01*
X112705752Y-88841980D02*
X112705752Y-88651504D01*
X112705752Y-88651504D02*
X112753371Y-88556266D01*
X113324800Y-88984837D02*
X113372419Y-88889599D01*
X113372419Y-88889599D02*
X113372419Y-88651504D01*
X113372419Y-88651504D02*
X113324800Y-88556266D01*
X113324800Y-88556266D02*
X113229561Y-88508647D01*
X113229561Y-88508647D02*
X113134323Y-88508647D01*
X113134323Y-88508647D02*
X113039085Y-88556266D01*
X113039085Y-88556266D02*
X112991466Y-88651504D01*
X112991466Y-88651504D02*
X112991466Y-88889599D01*
X112991466Y-88889599D02*
X112943847Y-88984837D01*
X113324800Y-89889599D02*
X113372419Y-89794361D01*
X113372419Y-89794361D02*
X113372419Y-89603885D01*
X113372419Y-89603885D02*
X113324800Y-89508647D01*
X113324800Y-89508647D02*
X113277180Y-89461028D01*
X113277180Y-89461028D02*
X113181942Y-89413409D01*
X113181942Y-89413409D02*
X112896228Y-89413409D01*
X112896228Y-89413409D02*
X112800990Y-89461028D01*
X112800990Y-89461028D02*
X112753371Y-89508647D01*
X112753371Y-89508647D02*
X112705752Y-89603885D01*
X112705752Y-89603885D02*
X112705752Y-89794361D01*
X112705752Y-89794361D02*
X112753371Y-89889599D01*
X113324800Y-90270552D02*
X113372419Y-90413409D01*
X113372419Y-90413409D02*
X113372419Y-90651504D01*
X113372419Y-90651504D02*
X113324800Y-90746742D01*
X113324800Y-90746742D02*
X113277180Y-90794361D01*
X113277180Y-90794361D02*
X113181942Y-90841980D01*
X113181942Y-90841980D02*
X113086704Y-90841980D01*
X113086704Y-90841980D02*
X112991466Y-90794361D01*
X112991466Y-90794361D02*
X112943847Y-90746742D01*
X112943847Y-90746742D02*
X112896228Y-90651504D01*
X112896228Y-90651504D02*
X112848609Y-90461028D01*
X112848609Y-90461028D02*
X112800990Y-90365790D01*
X112800990Y-90365790D02*
X112753371Y-90318171D01*
X112753371Y-90318171D02*
X112658133Y-90270552D01*
X112658133Y-90270552D02*
X112562895Y-90270552D01*
X112562895Y-90270552D02*
X112467657Y-90318171D01*
X112467657Y-90318171D02*
X112420038Y-90365790D01*
X112420038Y-90365790D02*
X112372419Y-90461028D01*
X112372419Y-90461028D02*
X112372419Y-90699123D01*
X112372419Y-90699123D02*
X112420038Y-90841980D01*
X112372419Y-91127695D02*
X112372419Y-91699123D01*
X113372419Y-91413409D02*
X112372419Y-91413409D01*
X113372419Y-92032457D02*
X112372419Y-92032457D01*
X112372419Y-92032457D02*
X113372419Y-92603885D01*
X113372419Y-92603885D02*
X112372419Y-92603885D01*
D10*
G36*
X122313176Y-90402290D02*
G01*
X122344504Y-90432535D01*
X122379928Y-90501325D01*
X122381018Y-90656494D01*
X122347767Y-90725023D01*
X122317521Y-90756350D01*
X122248770Y-90791754D01*
X122046034Y-90792910D01*
X121977413Y-90759614D01*
X121946085Y-90729369D01*
X121910661Y-90660578D01*
X121909571Y-90505409D01*
X121942823Y-90436879D01*
X121973067Y-90405552D01*
X122042773Y-90369657D01*
X122244409Y-90368922D01*
X122313176Y-90402290D01*
G37*
G36*
X121904943Y-89703876D02*
G01*
X121871576Y-89772642D01*
X121841331Y-89803970D01*
X121772474Y-89839428D01*
X121664842Y-89840413D01*
X121596461Y-89807233D01*
X121565133Y-89776988D01*
X121529762Y-89708300D01*
X121528704Y-89417752D01*
X121903898Y-89417219D01*
X121904943Y-89703876D01*
G37*
G36*
X122640930Y-91052777D02*
G01*
X121268708Y-91052777D01*
X121268708Y-90580952D01*
X121379819Y-90580952D01*
X121381260Y-90786060D01*
X121392459Y-90813096D01*
X121413151Y-90833788D01*
X121440187Y-90844987D01*
X121469451Y-90844987D01*
X121496487Y-90833788D01*
X121517179Y-90813096D01*
X121528378Y-90786060D01*
X121529819Y-90771428D01*
X121528619Y-90600647D01*
X121561871Y-90532117D01*
X121593794Y-90499052D01*
X121720399Y-90413226D01*
X121798778Y-90393061D01*
X121774633Y-90442823D01*
X121773411Y-90444046D01*
X121769738Y-90452911D01*
X121763434Y-90465905D01*
X121763243Y-90468592D01*
X121762212Y-90471082D01*
X121760771Y-90485714D01*
X121762029Y-90664801D01*
X121761360Y-90666809D01*
X121762118Y-90677481D01*
X121762212Y-90690822D01*
X121763243Y-90693311D01*
X121763434Y-90695999D01*
X121768689Y-90709731D01*
X121817381Y-90804287D01*
X121821030Y-90813096D01*
X121823412Y-90815998D01*
X121824140Y-90817412D01*
X121825638Y-90818711D01*
X121830357Y-90824461D01*
X121879392Y-90871802D01*
X121885025Y-90878297D01*
X121888170Y-90880276D01*
X121889341Y-90881407D01*
X121891168Y-90882164D01*
X121897468Y-90886129D01*
X121983357Y-90927804D01*
X121984579Y-90929026D01*
X121993438Y-90932695D01*
X122006437Y-90939003D01*
X122009126Y-90939194D01*
X122011615Y-90940225D01*
X122026247Y-90941666D01*
X122252851Y-90940373D01*
X122254961Y-90941077D01*
X122265903Y-90940299D01*
X122278974Y-90940225D01*
X122281463Y-90939193D01*
X122284151Y-90939003D01*
X122297883Y-90933748D01*
X122392435Y-90885057D01*
X122401247Y-90881408D01*
X122404151Y-90879024D01*
X122405564Y-90878297D01*
X122406863Y-90876798D01*
X122412612Y-90872081D01*
X122459953Y-90823045D01*
X122466450Y-90817412D01*
X122468429Y-90814266D01*
X122469560Y-90813096D01*
X122470317Y-90811268D01*
X122474282Y-90804969D01*
X122515957Y-90719079D01*
X122517179Y-90717858D01*
X122520848Y-90708998D01*
X122527156Y-90696000D01*
X122527347Y-90693310D01*
X122528378Y-90690822D01*
X122529819Y-90676190D01*
X122528560Y-90497101D01*
X122529230Y-90495094D01*
X122528471Y-90484421D01*
X122528378Y-90471082D01*
X122527347Y-90468593D01*
X122527156Y-90465904D01*
X122521901Y-90452173D01*
X122473209Y-90357618D01*
X122469560Y-90348808D01*
X122467177Y-90345905D01*
X122466450Y-90344492D01*
X122464950Y-90343191D01*
X122460232Y-90337442D01*
X122411195Y-90290100D01*
X122405564Y-90283607D01*
X122402418Y-90281627D01*
X122401247Y-90280496D01*
X122399417Y-90279738D01*
X122393121Y-90275775D01*
X122307232Y-90234100D01*
X122306010Y-90232878D01*
X122297144Y-90229205D01*
X122284151Y-90222901D01*
X122281463Y-90222710D01*
X122278974Y-90221679D01*
X122264342Y-90220238D01*
X122036351Y-90221068D01*
X122035627Y-90220827D01*
X122032005Y-90221084D01*
X121888350Y-90221607D01*
X121879744Y-90220327D01*
X121870644Y-90221672D01*
X121868758Y-90221679D01*
X121867736Y-90222101D01*
X121865200Y-90222477D01*
X121674887Y-90271438D01*
X121664286Y-90273536D01*
X121662001Y-90274753D01*
X121660878Y-90275043D01*
X121659386Y-90276148D01*
X121651312Y-90280453D01*
X121514476Y-90373213D01*
X121508389Y-90375735D01*
X121497148Y-90384960D01*
X121497079Y-90385007D01*
X121497064Y-90385028D01*
X121497024Y-90385062D01*
X121449682Y-90434097D01*
X121443188Y-90439730D01*
X121441208Y-90442875D01*
X121440078Y-90444046D01*
X121439320Y-90445873D01*
X121435356Y-90452173D01*
X121393681Y-90538061D01*
X121392459Y-90539284D01*
X121388786Y-90548149D01*
X121382482Y-90561143D01*
X121382291Y-90563830D01*
X121381260Y-90566320D01*
X121379819Y-90580952D01*
X121268708Y-90580952D01*
X121268708Y-89342857D01*
X121379819Y-89342857D01*
X121381164Y-89712159D01*
X121380408Y-89714428D01*
X121381213Y-89725769D01*
X121381260Y-89738441D01*
X121382291Y-89740930D01*
X121382482Y-89743618D01*
X121387737Y-89757350D01*
X121436429Y-89851906D01*
X121440078Y-89860715D01*
X121442460Y-89863617D01*
X121443188Y-89865031D01*
X121444686Y-89866330D01*
X121449405Y-89872080D01*
X121498440Y-89919421D01*
X121504073Y-89925916D01*
X121507218Y-89927895D01*
X121508389Y-89929026D01*
X121510216Y-89929783D01*
X121516516Y-89933748D01*
X121602405Y-89975423D01*
X121603627Y-89976645D01*
X121612486Y-89980314D01*
X121625485Y-89986622D01*
X121628174Y-89986813D01*
X121630663Y-89987844D01*
X121645295Y-89989285D01*
X121776924Y-89988080D01*
X121778771Y-89988696D01*
X121788985Y-89987970D01*
X121802784Y-89987844D01*
X121805273Y-89986812D01*
X121807961Y-89986622D01*
X121821693Y-89981367D01*
X121916249Y-89932674D01*
X121925058Y-89929026D01*
X121927960Y-89926643D01*
X121929374Y-89925916D01*
X121930673Y-89924417D01*
X121936423Y-89919699D01*
X121983764Y-89870663D01*
X121990259Y-89865031D01*
X121992238Y-89861885D01*
X121993369Y-89860715D01*
X121994126Y-89858887D01*
X121998091Y-89852588D01*
X122039766Y-89766698D01*
X122040988Y-89765477D01*
X122044657Y-89756617D01*
X122050965Y-89743619D01*
X122051156Y-89740929D01*
X122052187Y-89738441D01*
X122053628Y-89723809D01*
X122052510Y-89417008D01*
X122469451Y-89416416D01*
X122496487Y-89405217D01*
X122517179Y-89384525D01*
X122528378Y-89357489D01*
X122528378Y-89328225D01*
X122517179Y-89301189D01*
X122496487Y-89280497D01*
X122469451Y-89269298D01*
X122454819Y-89267857D01*
X121440187Y-89269298D01*
X121413151Y-89280497D01*
X121392459Y-89301189D01*
X121381260Y-89328225D01*
X121379819Y-89342857D01*
X121268708Y-89342857D01*
X121268708Y-88852034D01*
X121381260Y-88852034D01*
X121381260Y-88881298D01*
X121392459Y-88908334D01*
X121413151Y-88929026D01*
X121440187Y-88940225D01*
X121454819Y-88941666D01*
X122166964Y-88940258D01*
X122178484Y-88941077D01*
X122182217Y-88940228D01*
X122183736Y-88940225D01*
X122185567Y-88939466D01*
X122192821Y-88937817D01*
X122324611Y-88892606D01*
X122326592Y-88892606D01*
X122336144Y-88888649D01*
X122349103Y-88884204D01*
X122351137Y-88882439D01*
X122353628Y-88881408D01*
X122364994Y-88872080D01*
X122451479Y-88783910D01*
X122453183Y-88783059D01*
X122459813Y-88775414D01*
X122469561Y-88765477D01*
X122470592Y-88762986D01*
X122472357Y-88760952D01*
X122478351Y-88747526D01*
X122524500Y-88604944D01*
X122528378Y-88595584D01*
X122528748Y-88591820D01*
X122529230Y-88590333D01*
X122529089Y-88588358D01*
X122529819Y-88580952D01*
X122528378Y-88471082D01*
X122517179Y-88444046D01*
X122496487Y-88423354D01*
X122469451Y-88412155D01*
X122440187Y-88412155D01*
X122413151Y-88423354D01*
X122392459Y-88444046D01*
X122381260Y-88471082D01*
X122379819Y-88485714D01*
X122380870Y-88565878D01*
X122343348Y-88681805D01*
X122273589Y-88752922D01*
X122160604Y-88791682D01*
X121440187Y-88793107D01*
X121413151Y-88804306D01*
X121392459Y-88824998D01*
X121381260Y-88852034D01*
X121268708Y-88852034D01*
X121268708Y-88301044D01*
X122640930Y-88301044D01*
X122640930Y-91052777D01*
G37*
G36*
X125604943Y-75003876D02*
G01*
X125571576Y-75072642D01*
X125541331Y-75103970D01*
X125472474Y-75139428D01*
X125364842Y-75140413D01*
X125296461Y-75107233D01*
X125265133Y-75076988D01*
X125229762Y-75008300D01*
X125228704Y-74717752D01*
X125603898Y-74717219D01*
X125604943Y-75003876D01*
G37*
G36*
X126340930Y-76352777D02*
G01*
X124968708Y-76352777D01*
X124968708Y-75738095D01*
X125079819Y-75738095D01*
X125081111Y-75964699D01*
X125080408Y-75966809D01*
X125081185Y-75977751D01*
X125081260Y-75990822D01*
X125082291Y-75993311D01*
X125082482Y-75995999D01*
X125087737Y-76009731D01*
X125136429Y-76104287D01*
X125140078Y-76113096D01*
X125142460Y-76115998D01*
X125143188Y-76117412D01*
X125144686Y-76118711D01*
X125149405Y-76124461D01*
X125198440Y-76171802D01*
X125204073Y-76178297D01*
X125207218Y-76180276D01*
X125208389Y-76181407D01*
X125210216Y-76182164D01*
X125216516Y-76186129D01*
X125302405Y-76227804D01*
X125303627Y-76229026D01*
X125312486Y-76232695D01*
X125325485Y-76239003D01*
X125328174Y-76239194D01*
X125330663Y-76240225D01*
X125345295Y-76241666D01*
X125440612Y-76240415D01*
X125449913Y-76241077D01*
X125453567Y-76240245D01*
X125455165Y-76240225D01*
X125456996Y-76239466D01*
X125464250Y-76237817D01*
X125596040Y-76192606D01*
X125598021Y-76192606D01*
X125607570Y-76188650D01*
X125620532Y-76184204D01*
X125622567Y-76182438D01*
X125625058Y-76181407D01*
X125636423Y-76172080D01*
X126080226Y-75726720D01*
X126081260Y-76181298D01*
X126092459Y-76208334D01*
X126113151Y-76229026D01*
X126140187Y-76240225D01*
X126169451Y-76240225D01*
X126196487Y-76229026D01*
X126217179Y-76208334D01*
X126228378Y-76181298D01*
X126229819Y-76166666D01*
X126228378Y-75532987D01*
X126223694Y-75521679D01*
X126217180Y-75505951D01*
X126196487Y-75485259D01*
X126169451Y-75474060D01*
X126140187Y-75474060D01*
X126132268Y-75477339D01*
X126113151Y-75485258D01*
X126101786Y-75494586D01*
X125545599Y-76052723D01*
X125431746Y-76091781D01*
X125364570Y-76092662D01*
X125296461Y-76059614D01*
X125265133Y-76029369D01*
X125229730Y-75960618D01*
X125228574Y-75757882D01*
X125261871Y-75689260D01*
X125312417Y-75636906D01*
X125323616Y-75609870D01*
X125323616Y-75580607D01*
X125312417Y-75553571D01*
X125291724Y-75532878D01*
X125264688Y-75521679D01*
X125235425Y-75521679D01*
X125208389Y-75532878D01*
X125197024Y-75542205D01*
X125149682Y-75591240D01*
X125143188Y-75596873D01*
X125141208Y-75600018D01*
X125140078Y-75601189D01*
X125139320Y-75603016D01*
X125135356Y-75609316D01*
X125093681Y-75695204D01*
X125092459Y-75696427D01*
X125088786Y-75705292D01*
X125082482Y-75718286D01*
X125082291Y-75720973D01*
X125081260Y-75723463D01*
X125079819Y-75738095D01*
X124968708Y-75738095D01*
X124968708Y-74642857D01*
X125079819Y-74642857D01*
X125081164Y-75012159D01*
X125080408Y-75014428D01*
X125081213Y-75025769D01*
X125081260Y-75038441D01*
X125082291Y-75040930D01*
X125082482Y-75043618D01*
X125087737Y-75057350D01*
X125136429Y-75151906D01*
X125140078Y-75160715D01*
X125142460Y-75163617D01*
X125143188Y-75165031D01*
X125144686Y-75166330D01*
X125149405Y-75172080D01*
X125198440Y-75219421D01*
X125204073Y-75225916D01*
X125207218Y-75227895D01*
X125208389Y-75229026D01*
X125210216Y-75229783D01*
X125216516Y-75233748D01*
X125302405Y-75275423D01*
X125303627Y-75276645D01*
X125312486Y-75280314D01*
X125325485Y-75286622D01*
X125328174Y-75286813D01*
X125330663Y-75287844D01*
X125345295Y-75289285D01*
X125476924Y-75288080D01*
X125478771Y-75288696D01*
X125488985Y-75287970D01*
X125502784Y-75287844D01*
X125505273Y-75286812D01*
X125507961Y-75286622D01*
X125521693Y-75281367D01*
X125616249Y-75232674D01*
X125625058Y-75229026D01*
X125627960Y-75226643D01*
X125629374Y-75225916D01*
X125630673Y-75224417D01*
X125636423Y-75219699D01*
X125683764Y-75170663D01*
X125690259Y-75165031D01*
X125692238Y-75161885D01*
X125693369Y-75160715D01*
X125694126Y-75158887D01*
X125698091Y-75152588D01*
X125739766Y-75066698D01*
X125740988Y-75065477D01*
X125744657Y-75056617D01*
X125750965Y-75043619D01*
X125751156Y-75040929D01*
X125752187Y-75038441D01*
X125753628Y-75023809D01*
X125752510Y-74717008D01*
X126169451Y-74716416D01*
X126196487Y-74705217D01*
X126217179Y-74684525D01*
X126228378Y-74657489D01*
X126228378Y-74628225D01*
X126217179Y-74601189D01*
X126196487Y-74580497D01*
X126169451Y-74569298D01*
X126154819Y-74567857D01*
X125140187Y-74569298D01*
X125113151Y-74580497D01*
X125092459Y-74601189D01*
X125081260Y-74628225D01*
X125079819Y-74642857D01*
X124968708Y-74642857D01*
X124968708Y-74152034D01*
X125081260Y-74152034D01*
X125081260Y-74181298D01*
X125092459Y-74208334D01*
X125113151Y-74229026D01*
X125140187Y-74240225D01*
X125154819Y-74241666D01*
X125866964Y-74240258D01*
X125878484Y-74241077D01*
X125882217Y-74240228D01*
X125883736Y-74240225D01*
X125885567Y-74239466D01*
X125892821Y-74237817D01*
X126024611Y-74192606D01*
X126026592Y-74192606D01*
X126036144Y-74188649D01*
X126049103Y-74184204D01*
X126051137Y-74182439D01*
X126053628Y-74181408D01*
X126064994Y-74172080D01*
X126151479Y-74083910D01*
X126153183Y-74083059D01*
X126159813Y-74075414D01*
X126169561Y-74065477D01*
X126170592Y-74062986D01*
X126172357Y-74060952D01*
X126178351Y-74047526D01*
X126224500Y-73904944D01*
X126228378Y-73895584D01*
X126228748Y-73891820D01*
X126229230Y-73890333D01*
X126229089Y-73888358D01*
X126229819Y-73880952D01*
X126228378Y-73771082D01*
X126217179Y-73744046D01*
X126196487Y-73723354D01*
X126169451Y-73712155D01*
X126140187Y-73712155D01*
X126113151Y-73723354D01*
X126092459Y-73744046D01*
X126081260Y-73771082D01*
X126079819Y-73785714D01*
X126080870Y-73865878D01*
X126043348Y-73981805D01*
X125973589Y-74052922D01*
X125860604Y-74091682D01*
X125140187Y-74093107D01*
X125113151Y-74104306D01*
X125092459Y-74124998D01*
X125081260Y-74152034D01*
X124968708Y-74152034D01*
X124968708Y-73601044D01*
X126340930Y-73601044D01*
X126340930Y-76352777D01*
G37*
G36*
X119382779Y-102203898D02*
G01*
X119096122Y-102204943D01*
X119027356Y-102171576D01*
X118996028Y-102141331D01*
X118960570Y-102072474D01*
X118959585Y-101964842D01*
X118992766Y-101896460D01*
X119023010Y-101865133D01*
X119091698Y-101829762D01*
X119382246Y-101828704D01*
X119382779Y-102203898D01*
G37*
G36*
X120498955Y-102940930D02*
G01*
X117748663Y-102940930D01*
X117748663Y-102740187D01*
X117859774Y-102740187D01*
X117859774Y-102769451D01*
X117870973Y-102796487D01*
X117891665Y-102817179D01*
X117918701Y-102828378D01*
X117933333Y-102829819D01*
X118519393Y-102828378D01*
X118546429Y-102817179D01*
X118567121Y-102796487D01*
X118578320Y-102769451D01*
X118578320Y-102740187D01*
X118567121Y-102713151D01*
X118546429Y-102692459D01*
X118519393Y-102681260D01*
X118504761Y-102679819D01*
X118293941Y-102680337D01*
X118292949Y-101981800D01*
X118357019Y-102044646D01*
X118363539Y-102052164D01*
X118366732Y-102054174D01*
X118367855Y-102055275D01*
X118369687Y-102056033D01*
X118375982Y-102059996D01*
X118484951Y-102112870D01*
X118514141Y-102114944D01*
X118541903Y-102105690D01*
X118564010Y-102086517D01*
X118577098Y-102060342D01*
X118579172Y-102031152D01*
X118569918Y-102003391D01*
X118550745Y-101981283D01*
X118538302Y-101973451D01*
X118480275Y-101945295D01*
X118810714Y-101945295D01*
X118811918Y-102076924D01*
X118811303Y-102078771D01*
X118812028Y-102088985D01*
X118812155Y-102102784D01*
X118813186Y-102105273D01*
X118813377Y-102107961D01*
X118818632Y-102121693D01*
X118867324Y-102216249D01*
X118870973Y-102225058D01*
X118873355Y-102227960D01*
X118874083Y-102229374D01*
X118875581Y-102230673D01*
X118880300Y-102236423D01*
X118929335Y-102283764D01*
X118934968Y-102290259D01*
X118938113Y-102292238D01*
X118939284Y-102293369D01*
X118941111Y-102294126D01*
X118947411Y-102298091D01*
X119033300Y-102339766D01*
X119034522Y-102340988D01*
X119043381Y-102344657D01*
X119056380Y-102350965D01*
X119059069Y-102351156D01*
X119061558Y-102352187D01*
X119076190Y-102353628D01*
X119382990Y-102352510D01*
X119383583Y-102769451D01*
X119394782Y-102796487D01*
X119415474Y-102817179D01*
X119442510Y-102828378D01*
X119471774Y-102828378D01*
X119498810Y-102817179D01*
X119519502Y-102796487D01*
X119530701Y-102769451D01*
X119532142Y-102754819D01*
X119530722Y-101754819D01*
X119858333Y-101754819D01*
X119859740Y-102466964D01*
X119858922Y-102478484D01*
X119859770Y-102482217D01*
X119859774Y-102483736D01*
X119860532Y-102485567D01*
X119862182Y-102492821D01*
X119907393Y-102624611D01*
X119907393Y-102626592D01*
X119911349Y-102636144D01*
X119915795Y-102649103D01*
X119917559Y-102651137D01*
X119918591Y-102653628D01*
X119927919Y-102664994D01*
X120016088Y-102751479D01*
X120016940Y-102753183D01*
X120024584Y-102759813D01*
X120034522Y-102769561D01*
X120037012Y-102770592D01*
X120039047Y-102772357D01*
X120052473Y-102778351D01*
X120195054Y-102824500D01*
X120204415Y-102828378D01*
X120208178Y-102828748D01*
X120209666Y-102829230D01*
X120211640Y-102829089D01*
X120219047Y-102829819D01*
X120328917Y-102828378D01*
X120355953Y-102817179D01*
X120376645Y-102796487D01*
X120387844Y-102769451D01*
X120387844Y-102740187D01*
X120376645Y-102713151D01*
X120355953Y-102692459D01*
X120328917Y-102681260D01*
X120314285Y-102679819D01*
X120234120Y-102680870D01*
X120118193Y-102643348D01*
X120047076Y-102573589D01*
X120008316Y-102460604D01*
X120006892Y-101740187D01*
X119995693Y-101713151D01*
X119975001Y-101692459D01*
X119947965Y-101681260D01*
X119918701Y-101681260D01*
X119891665Y-101692459D01*
X119870973Y-101713151D01*
X119859774Y-101740187D01*
X119858333Y-101754819D01*
X119530722Y-101754819D01*
X119530701Y-101740187D01*
X119519502Y-101713151D01*
X119498810Y-101692459D01*
X119471774Y-101681260D01*
X119457142Y-101679819D01*
X119087838Y-101681164D01*
X119085570Y-101680408D01*
X119074228Y-101681213D01*
X119061558Y-101681260D01*
X119059069Y-101682290D01*
X119056380Y-101682482D01*
X119042649Y-101687737D01*
X118948094Y-101736428D01*
X118939284Y-101740078D01*
X118936381Y-101742460D01*
X118934968Y-101743188D01*
X118933668Y-101744686D01*
X118927919Y-101749405D01*
X118880577Y-101798440D01*
X118874083Y-101804073D01*
X118872103Y-101807218D01*
X118870973Y-101808389D01*
X118870215Y-101810216D01*
X118866251Y-101816516D01*
X118824576Y-101902404D01*
X118823354Y-101903627D01*
X118819681Y-101912492D01*
X118813377Y-101925486D01*
X118813186Y-101928173D01*
X118812155Y-101930663D01*
X118810714Y-101945295D01*
X118480275Y-101945295D01*
X118456133Y-101933581D01*
X118375842Y-101854825D01*
X118283928Y-101719238D01*
X118281407Y-101713151D01*
X118276424Y-101708168D01*
X118272135Y-101701841D01*
X118265965Y-101697709D01*
X118260715Y-101692459D01*
X118253925Y-101689646D01*
X118247820Y-101685558D01*
X118240539Y-101684101D01*
X118233679Y-101681260D01*
X118226331Y-101681260D01*
X118219126Y-101679819D01*
X118211842Y-101681260D01*
X118204415Y-101681260D01*
X118197626Y-101684072D01*
X118190418Y-101685498D01*
X118184239Y-101689617D01*
X118177379Y-101692459D01*
X118172183Y-101697654D01*
X118166069Y-101701731D01*
X118161937Y-101707900D01*
X118156687Y-101713151D01*
X118153874Y-101719940D01*
X118149786Y-101726046D01*
X118148329Y-101733326D01*
X118145488Y-101740187D01*
X118144062Y-101754663D01*
X118144047Y-101754740D01*
X118144052Y-101754766D01*
X118144047Y-101754819D01*
X118145361Y-102680702D01*
X117918701Y-102681260D01*
X117891665Y-102692459D01*
X117870973Y-102713151D01*
X117859774Y-102740187D01*
X117748663Y-102740187D01*
X117748663Y-101568708D01*
X120498955Y-101568708D01*
X120498955Y-102940930D01*
G37*
D14*
%TO.C,JP6*%
X123599999Y-88349999D02*
X124200001Y-88349999D01*
X122900000Y-90449999D02*
X122900000Y-89049999D01*
X124900000Y-89049999D02*
X124900000Y-90449999D01*
X124200001Y-91149999D02*
X123599999Y-91149999D01*
X122900000Y-89049999D02*
G75*
G02*
X123599999Y-88349999I699999J1D01*
G01*
X124200001Y-88349999D02*
G75*
G02*
X124900000Y-89049999I0J-699999D01*
G01*
X123599999Y-91149999D02*
G75*
G02*
X122900000Y-90449999I1J700000D01*
G01*
X124900000Y-90449999D02*
G75*
G02*
X124200001Y-91149999I-700000J0D01*
G01*
%TO.C,JP2*%
X124500000Y-70349999D02*
X126500000Y-70349999D01*
X124500000Y-73149999D02*
X124500000Y-70349999D01*
X126500000Y-70349999D02*
X126500000Y-73149999D01*
X126500000Y-73149999D02*
X124500000Y-73149999D01*
%TO.C,JP1*%
X120500000Y-105500000D02*
X117700000Y-105500000D01*
X120500000Y-103500000D02*
X120500000Y-105500000D01*
X117700000Y-105500000D02*
X117700000Y-103500000D01*
X117700000Y-103500000D02*
X120500000Y-103500000D01*
%TD*%
M02*
