%TF.GenerationSoftware,KiCad,Pcbnew,8.0.2-1*%
%TF.CreationDate,2025-02-04T16:39:29+07:00*%
%TF.ProjectId,ESP32-iPod-BLE,45535033-322d-4695-906f-642d424c452e,rev?*%
%TF.SameCoordinates,Original*%
%TF.FileFunction,Copper,L2,Bot*%
%TF.FilePolarity,Positive*%
%FSLAX46Y46*%
G04 Gerber Fmt 4.6, Leading zero omitted, Abs format (unit mm)*
G04 Created by KiCad (PCBNEW 8.0.2-1) date 2025-02-04 16:39:29*
%MOMM*%
%LPD*%
G01*
G04 APERTURE LIST*
G04 Aperture macros list*
%AMFreePoly0*
4,1,19,0.500000,-0.750000,0.000000,-0.750000,0.000000,-0.744911,-0.071157,-0.744911,-0.207708,-0.704816,-0.327430,-0.627875,-0.420627,-0.520320,-0.479746,-0.390866,-0.500000,-0.250000,-0.500000,0.250000,-0.479746,0.390866,-0.420627,0.520320,-0.327430,0.627875,-0.207708,0.704816,-0.071157,0.744911,0.000000,0.744911,0.000000,0.750000,0.500000,0.750000,0.500000,-0.750000,0.500000,-0.750000,
$1*%
%AMFreePoly1*
4,1,19,0.000000,0.744911,0.071157,0.744911,0.207708,0.704816,0.327430,0.627875,0.420627,0.520320,0.479746,0.390866,0.500000,0.250000,0.500000,-0.250000,0.479746,-0.390866,0.420627,-0.520320,0.327430,-0.627875,0.207708,-0.704816,0.071157,-0.744911,0.000000,-0.744911,0.000000,-0.750000,-0.500000,-0.750000,-0.500000,0.750000,0.000000,0.750000,0.000000,0.744911,0.000000,0.744911,
$1*%
G04 Aperture macros list end*
%TA.AperFunction,EtchedComponent*%
%ADD10C,0.000000*%
%TD*%
%TA.AperFunction,SMDPad,CuDef*%
%ADD11FreePoly0,270.000000*%
%TD*%
%TA.AperFunction,SMDPad,CuDef*%
%ADD12FreePoly1,270.000000*%
%TD*%
%TA.AperFunction,SMDPad,CuDef*%
%ADD13R,1.500000X1.000000*%
%TD*%
%TA.AperFunction,HeatsinkPad*%
%ADD14C,0.500000*%
%TD*%
%TA.AperFunction,HeatsinkPad*%
%ADD15R,1.600000X0.500000*%
%TD*%
%TA.AperFunction,SMDPad,CuDef*%
%ADD16R,1.000000X1.500000*%
%TD*%
%TA.AperFunction,ComponentPad*%
%ADD17O,1.700000X1.700000*%
%TD*%
%TA.AperFunction,ComponentPad*%
%ADD18R,1.700000X1.700000*%
%TD*%
%TA.AperFunction,ViaPad*%
%ADD19C,0.600000*%
%TD*%
%TA.AperFunction,Conductor*%
%ADD20C,0.200000*%
%TD*%
G04 APERTURE END LIST*
D10*
%TA.AperFunction,EtchedComponent*%
%TO.C,JP1*%
G36*
X119350000Y-104800000D02*
G01*
X118850000Y-104800000D01*
X118850000Y-104200000D01*
X119350000Y-104200000D01*
X119350000Y-104800000D01*
G37*
%TD.AperFunction*%
%TD*%
D11*
%TO.P,JP6,1,A*%
%TO.N,IO0*%
X123900000Y-89100000D03*
D12*
%TO.P,JP6,2,B*%
%TO.N,Net-(JP6-B)*%
X123900000Y-90399998D03*
%TD*%
D13*
%TO.P,JP2,2,B*%
%TO.N,Net-(D1-A)*%
X125500000Y-72399998D03*
%TO.P,JP2,1,A*%
%TO.N,GND*%
X125500000Y-71100000D03*
%TD*%
D14*
%TO.P,U1,7,PAD*%
%TO.N,GND*%
X109400000Y-97300000D03*
D15*
X108850000Y-97300000D03*
D14*
X108300000Y-97300000D03*
%TD*%
D16*
%TO.P,JP1,1,A*%
%TO.N,ENA*%
X118450001Y-104500000D03*
%TO.P,JP1,2,B*%
%TO.N,+1V8*%
X119749999Y-104500000D03*
%TD*%
D17*
%TO.P,J2,6,Pin_6*%
%TO.N,RX_0*%
X105200000Y-93100000D03*
%TO.P,J2,5,Pin_5*%
%TO.N,TX_0*%
X105200000Y-95640000D03*
%TO.P,J2,4,Pin_4*%
%TO.N,+3V3*%
X105200000Y-98180000D03*
%TO.P,J2,3,Pin_3*%
%TO.N,IO0*%
X105200000Y-100720001D03*
%TO.P,J2,2,Pin_2*%
%TO.N,GND*%
X105200000Y-103260000D03*
D18*
%TO.P,J2,1,Pin_1*%
%TO.N,RST*%
X105200000Y-105800000D03*
%TD*%
D19*
%TO.N,GND*%
X123300000Y-96100000D03*
X109600000Y-86300000D03*
X108600000Y-86300000D03*
X109600000Y-85100000D03*
X108600000Y-85100000D03*
X117850000Y-94500000D03*
X117250000Y-86300000D03*
X118020000Y-86310000D03*
X118800000Y-86300000D03*
X121970000Y-83330000D03*
X121970000Y-82490000D03*
X121960000Y-81680000D03*
%TO.N,MD1*%
X121587851Y-85614579D03*
X108700000Y-80800000D03*
%TO.N,MD0*%
X122100000Y-85000000D03*
X108700000Y-79500000D03*
%TO.N,TX_0*%
X104900000Y-91200000D03*
%TO.N,I2C_SDA_3V3*%
X113614145Y-86200000D03*
%TO.N,I2C_SCK_3V3*%
X114000000Y-90500000D03*
%TO.N,I2S_BCK_3V3*%
X121792892Y-94007108D03*
X110500000Y-84200000D03*
%TO.N,IO0*%
X123900000Y-88200000D03*
%TO.N,ADC_INT*%
X122200000Y-94788865D03*
X109800000Y-83800000D03*
%TO.N,Net-(JP6-B)*%
X120329962Y-98546542D03*
%TO.N,I2C_SDA_3V3*%
X111900000Y-92700000D03*
X117900001Y-92017686D03*
%TO.N,I2C_SDA_1V8*%
X116000000Y-91694062D03*
%TO.N,+1V8*%
X110300000Y-91100000D03*
%TO.N,I2C_SCK_1V8*%
X115450000Y-103550000D03*
X111900000Y-90300000D03*
%TO.N,I2C_SDA_1V8*%
X113950000Y-103200000D03*
X111900000Y-91100000D03*
%TO.N,+1V8*%
X119900000Y-103300000D03*
%TO.N,Net-(U3-VINL1{slash}VIN1P)*%
X113200000Y-94499997D03*
X120450000Y-92694062D03*
%TO.N,Net-(U3-VINR1{slash}VIN2P)*%
X113200000Y-95300000D03*
X120450000Y-93494065D03*
%TO.N,RST*%
X108100000Y-73200000D03*
%TO.N,ENA*%
X108200000Y-99000000D03*
%TO.N,RX_2*%
X110950000Y-104600000D03*
%TO.N,TX_2*%
X112400000Y-104600000D03*
%TO.N,Net-(D1-A)*%
X125825000Y-73400000D03*
%TO.N,GND*%
X116600000Y-74800000D03*
X114600000Y-73800000D03*
X112600000Y-73800000D03*
X114600000Y-74800000D03*
X115600000Y-73800000D03*
X113600000Y-73800000D03*
X111800000Y-106200000D03*
X114800000Y-106200000D03*
X116200000Y-106200000D03*
X111600000Y-73800000D03*
X112600000Y-74800000D03*
X111600000Y-74800000D03*
X115600000Y-74800000D03*
X110200000Y-106200000D03*
X113600000Y-74800000D03*
X113400000Y-106200000D03*
X116600000Y-73800000D03*
%TO.N,RX_0*%
X116615642Y-81643761D03*
%TO.N,RX_2*%
X115400000Y-84800000D03*
%TO.N,TX_2*%
X116100000Y-85400000D03*
%TO.N,TX_0*%
X116059143Y-81069032D03*
%TO.N,I2C_SCK_3V3*%
X112820417Y-86100000D03*
%TO.N,RST*%
X104800000Y-70720000D03*
%TD*%
D20*
%TO.N,I2S_BCK_3V3*%
X110600000Y-84100000D02*
X117768628Y-84100000D01*
X110500000Y-84200000D02*
X110600000Y-84100000D01*
X117768628Y-84100000D02*
X121600000Y-87931372D01*
X121600000Y-87931372D02*
X121600000Y-93814216D01*
X121600000Y-93814216D02*
X121792892Y-94007108D01*
%TO.N,ADC_INT*%
X109800000Y-83800000D02*
X110000000Y-83600000D01*
X110000000Y-83600000D02*
X117834314Y-83600000D01*
X117834314Y-83600000D02*
X122500000Y-88265686D01*
X122500000Y-94488865D02*
X122200000Y-94788865D01*
X122500000Y-88265686D02*
X122500000Y-94488865D01*
%TO.N,Net-(JP6-B)*%
X123900000Y-90399998D02*
X122900000Y-91399998D01*
X122900000Y-91399998D02*
X122900000Y-94937394D01*
X122900000Y-94937394D02*
X120329962Y-97507432D01*
X120329962Y-97507432D02*
X120329962Y-98546542D01*
%TO.N,RST*%
X105400000Y-105800000D02*
X105400000Y-105600000D01*
X104000000Y-71520000D02*
X104800000Y-70720000D01*
X105400000Y-105600000D02*
X104000000Y-104200000D01*
X104000000Y-104200000D02*
X104000000Y-71520000D01*
%TO.N,I2C_SDA_1V8*%
X116000000Y-91694062D02*
X115994062Y-91694062D01*
X115994062Y-91694062D02*
X115400000Y-91100000D01*
X115400000Y-91100000D02*
X111900000Y-91100000D01*
%TO.N,I2C_SDA_3V3*%
X117900001Y-92017686D02*
X117623625Y-92294062D01*
X117623625Y-92294062D02*
X112305938Y-92294062D01*
X112305938Y-92294062D02*
X111900000Y-92700000D01*
%TO.N,Net-(D1-A)*%
X125825000Y-73400000D02*
X125500000Y-73075000D01*
X125500000Y-73075000D02*
X125500000Y-72399998D01*
%TO.N,RST*%
X107140000Y-70720000D02*
X104800000Y-70720000D01*
X108100000Y-73200000D02*
X108100000Y-71680000D01*
X108100000Y-71680000D02*
X107140000Y-70720000D01*
%TO.N,Net-(U3-VINR1{slash}VIN2P)*%
X120450000Y-93494065D02*
X120249997Y-93294062D01*
X120201471Y-93294062D02*
X120027409Y-93120000D01*
X115428526Y-93120000D02*
X113248526Y-95300000D01*
X113248526Y-95300000D02*
X113200000Y-95300000D01*
X120027409Y-93120000D02*
X115428526Y-93120000D01*
X120249997Y-93294062D02*
X120201471Y-93294062D01*
%TO.N,Net-(U3-VINL1{slash}VIN1P)*%
X113200000Y-94499997D02*
X113719997Y-93980000D01*
X114975938Y-92694062D02*
X120450000Y-92694062D01*
X113719997Y-93980000D02*
X113719997Y-93950003D01*
X113719997Y-93950003D02*
X114975938Y-92694062D01*
X120450000Y-92694062D02*
X120450000Y-92784314D01*
%TO.N,+1V8*%
X116100000Y-104400000D02*
X113134314Y-104400000D01*
X111500000Y-102765686D02*
X111500000Y-94279901D01*
X119900000Y-103300000D02*
X119900000Y-104349999D01*
X110300000Y-93079901D02*
X110300000Y-91100000D01*
X119900000Y-104349999D02*
X119749999Y-104500000D01*
X119900000Y-103300000D02*
X117200000Y-103300000D01*
X117200000Y-103300000D02*
X116100000Y-104400000D01*
X113134314Y-104400000D02*
X111500000Y-102765686D01*
X111500000Y-94279901D02*
X110300000Y-93079901D01*
%TO.N,ENA*%
X115865686Y-105200000D02*
X116565686Y-104500000D01*
X108200000Y-104600000D02*
X108800000Y-105200000D01*
X108200000Y-99000000D02*
X108200000Y-104600000D01*
X108800000Y-105200000D02*
X115865686Y-105200000D01*
X116565686Y-104500000D02*
X118550000Y-104500000D01*
%TO.N,I2C_SDA_3V3*%
X113614145Y-88914145D02*
X115400000Y-90700000D01*
X113614145Y-86200000D02*
X113614145Y-88914145D01*
X115400000Y-90700000D02*
X116582315Y-90700000D01*
X116582315Y-90700000D02*
X117900001Y-92017686D01*
%TO.N,I2C_SCK_3V3*%
X112820417Y-89320417D02*
X114000000Y-90500000D01*
X112820417Y-86100000D02*
X112820417Y-89320417D01*
%TO.N,TX_2*%
X112400000Y-104600000D02*
X112400000Y-104400000D01*
X112400000Y-104400000D02*
X111100000Y-103100000D01*
X111100000Y-103100000D02*
X111100000Y-94700000D01*
X111100000Y-94700000D02*
X109632843Y-93232843D01*
X109632843Y-93232843D02*
X109632843Y-88332843D01*
X109632843Y-88332843D02*
X112565686Y-85400000D01*
X112565686Y-85400000D02*
X116100000Y-85400000D01*
%TO.N,RX_2*%
X110950000Y-104600000D02*
X110700000Y-104350000D01*
X110700000Y-104350000D02*
X110700000Y-95000000D01*
X110700000Y-95000000D02*
X109232843Y-93532843D01*
X109232843Y-93532843D02*
X109232843Y-88167157D01*
X109232843Y-88167157D02*
X112600000Y-84800000D01*
X112600000Y-84800000D02*
X115400000Y-84800000D01*
%TO.N,MD1*%
X116442304Y-80469032D02*
X121587851Y-85614579D01*
X109030968Y-80469032D02*
X116442304Y-80469032D01*
X108700000Y-80800000D02*
X109030968Y-80469032D01*
%TO.N,MD0*%
X116600000Y-79500000D02*
X108700000Y-79500000D01*
X122100000Y-85000000D02*
X116600000Y-79500000D01*
%TO.N,IO0*%
X105400000Y-100720001D02*
X106600000Y-99520001D01*
X106600000Y-99520001D02*
X106600000Y-85000000D01*
X108400000Y-83200000D02*
X118000000Y-83200000D01*
X106600000Y-85000000D02*
X108400000Y-83200000D01*
X118000000Y-83200000D02*
X123900000Y-89100000D01*
%TO.N,RX_0*%
X116615642Y-81643761D02*
X115459403Y-82800000D01*
X115459403Y-82800000D02*
X107700000Y-82800000D01*
X107700000Y-82800000D02*
X105700000Y-84800000D01*
X105700000Y-84800000D02*
X105700000Y-92800000D01*
X105700000Y-92800000D02*
X105400000Y-93100000D01*
%TO.N,TX_0*%
X104900000Y-91200000D02*
X104900000Y-84700000D01*
X107200000Y-82400000D02*
X114728175Y-82400000D01*
X114728175Y-82400000D02*
X116059143Y-81069032D01*
X104900000Y-84700000D02*
X107200000Y-82400000D01*
%TO.N,IO0*%
X123900000Y-89100000D02*
X123900000Y-88200000D01*
%TO.N,I2C_SCK_1V8*%
X111900000Y-90300000D02*
X111675736Y-90300000D01*
X112000000Y-102700000D02*
X113100000Y-103800000D01*
X110900000Y-93114215D02*
X112000000Y-94214215D01*
X115200000Y-103800000D02*
X115450000Y-103550000D01*
X111675736Y-90300000D02*
X110900000Y-91075736D01*
X110900000Y-91075736D02*
X110900000Y-93114215D01*
X112000000Y-94214215D02*
X112000000Y-102700000D01*
X113100000Y-103800000D02*
X115200000Y-103800000D01*
%TO.N,I2C_SDA_1V8*%
X113950000Y-103200000D02*
X113200000Y-103200000D01*
X111300000Y-92948529D02*
X111300000Y-91700000D01*
X113200000Y-103200000D02*
X112500000Y-102500000D01*
X112500000Y-102500000D02*
X112500000Y-94148529D01*
X112500000Y-94148529D02*
X111300000Y-92948529D01*
X111300000Y-91700000D02*
X111900000Y-91100000D01*
%TO.N,+1V8*%
X110200000Y-91000000D02*
X110300000Y-91100000D01*
%TD*%
%TA.AperFunction,Conductor*%
%TO.N,GND*%
G36*
X124318662Y-70120185D02*
G01*
X124364417Y-70172989D01*
X124374361Y-70242147D01*
X124350889Y-70298812D01*
X124306647Y-70357910D01*
X124306645Y-70357913D01*
X124256403Y-70492620D01*
X124256401Y-70492627D01*
X124250000Y-70552155D01*
X124250000Y-70850000D01*
X125626000Y-70850000D01*
X125693039Y-70869685D01*
X125738794Y-70922489D01*
X125750000Y-70974000D01*
X125750000Y-71226000D01*
X125730315Y-71293039D01*
X125677511Y-71338794D01*
X125626000Y-71350000D01*
X124250000Y-71350000D01*
X124250000Y-71647844D01*
X124256401Y-71707375D01*
X124258186Y-71714927D01*
X124256541Y-71715315D01*
X124260851Y-71775655D01*
X124255940Y-71792384D01*
X124255908Y-71792518D01*
X124249501Y-71852114D01*
X124249500Y-71852133D01*
X124249500Y-72947868D01*
X124249501Y-72947874D01*
X124255908Y-73007481D01*
X124306202Y-73142326D01*
X124306206Y-73142333D01*
X124392452Y-73257542D01*
X124392455Y-73257545D01*
X124507664Y-73343791D01*
X124507671Y-73343795D01*
X124552618Y-73360559D01*
X124642517Y-73394089D01*
X124702127Y-73400498D01*
X124908676Y-73400497D01*
X124975716Y-73420181D01*
X125021471Y-73472985D01*
X125031897Y-73510613D01*
X125039630Y-73579249D01*
X125099210Y-73749521D01*
X125099211Y-73749522D01*
X125195184Y-73902262D01*
X125322738Y-74029816D01*
X125475478Y-74125789D01*
X125645745Y-74185368D01*
X125645750Y-74185369D01*
X125824996Y-74205565D01*
X125825000Y-74205565D01*
X125825004Y-74205565D01*
X126004249Y-74185369D01*
X126004252Y-74185368D01*
X126004255Y-74185368D01*
X126174522Y-74125789D01*
X126327262Y-74029816D01*
X126387819Y-73969259D01*
X126449142Y-73935774D01*
X126518834Y-73940758D01*
X126574767Y-73982630D01*
X126599184Y-74048094D01*
X126599500Y-74056940D01*
X126599500Y-107775500D01*
X126579815Y-107842539D01*
X126527011Y-107888294D01*
X126475500Y-107899500D01*
X103924500Y-107899500D01*
X103857461Y-107879815D01*
X103811706Y-107827011D01*
X103800500Y-107775500D01*
X103800500Y-107111571D01*
X103820185Y-107044532D01*
X103872989Y-106998777D01*
X103942147Y-106988833D01*
X103998811Y-107012305D01*
X104107664Y-107093793D01*
X104107671Y-107093797D01*
X104242517Y-107144091D01*
X104242516Y-107144091D01*
X104249444Y-107144835D01*
X104302127Y-107150500D01*
X106097872Y-107150499D01*
X106157483Y-107144091D01*
X106292331Y-107093796D01*
X106407546Y-107007546D01*
X106493796Y-106892331D01*
X106544091Y-106757483D01*
X106550500Y-106697873D01*
X106550499Y-104902128D01*
X106544091Y-104842517D01*
X106540088Y-104831785D01*
X106493797Y-104707671D01*
X106493793Y-104707664D01*
X106407547Y-104592455D01*
X106407544Y-104592452D01*
X106292335Y-104506206D01*
X106292328Y-104506202D01*
X106160401Y-104456997D01*
X106104467Y-104415126D01*
X106080050Y-104349662D01*
X106094902Y-104281389D01*
X106116053Y-104253133D01*
X106238108Y-104131078D01*
X106373600Y-103937578D01*
X106473429Y-103723492D01*
X106473432Y-103723486D01*
X106530636Y-103510000D01*
X105633012Y-103510000D01*
X105665925Y-103452993D01*
X105700000Y-103325826D01*
X105700000Y-103194174D01*
X105665925Y-103067007D01*
X105633012Y-103010000D01*
X106530636Y-103010000D01*
X106530635Y-103009999D01*
X106473432Y-102796513D01*
X106473429Y-102796507D01*
X106373600Y-102582422D01*
X106373599Y-102582420D01*
X106238113Y-102388926D01*
X106238108Y-102388920D01*
X106071078Y-102221890D01*
X105885405Y-102091879D01*
X105841780Y-102037302D01*
X105834588Y-101967804D01*
X105866110Y-101905449D01*
X105885398Y-101888736D01*
X106071401Y-101758496D01*
X106238495Y-101591402D01*
X106374035Y-101397831D01*
X106473903Y-101183664D01*
X106535063Y-100955409D01*
X106555659Y-100720001D01*
X106536046Y-100495829D01*
X106549812Y-100427330D01*
X106571890Y-100397344D01*
X106958506Y-100010729D01*
X106958511Y-100010725D01*
X106968714Y-100000521D01*
X106968716Y-100000521D01*
X107080520Y-99888717D01*
X107156018Y-99757950D01*
X107159577Y-99751786D01*
X107200500Y-99599059D01*
X107200500Y-99440944D01*
X107200500Y-99297114D01*
X107220185Y-99230075D01*
X107272989Y-99184320D01*
X107342147Y-99174376D01*
X107405703Y-99203401D01*
X107441542Y-99256160D01*
X107474210Y-99349521D01*
X107499997Y-99390560D01*
X107567066Y-99497300D01*
X107570185Y-99502263D01*
X107572445Y-99505097D01*
X107573334Y-99507275D01*
X107573889Y-99508158D01*
X107573734Y-99508255D01*
X107598855Y-99569783D01*
X107599500Y-99582412D01*
X107599500Y-104513330D01*
X107599499Y-104513348D01*
X107599499Y-104679054D01*
X107599498Y-104679054D01*
X107607165Y-104707669D01*
X107640423Y-104831785D01*
X107663607Y-104871940D01*
X107719479Y-104968714D01*
X107719481Y-104968717D01*
X107838349Y-105087585D01*
X107838355Y-105087590D01*
X108315139Y-105564374D01*
X108315149Y-105564385D01*
X108319479Y-105568715D01*
X108319480Y-105568716D01*
X108431284Y-105680520D01*
X108513928Y-105728233D01*
X108518095Y-105730639D01*
X108518097Y-105730641D01*
X108552490Y-105750498D01*
X108568215Y-105759577D01*
X108720943Y-105800500D01*
X115779017Y-105800500D01*
X115779033Y-105800501D01*
X115786629Y-105800501D01*
X115944740Y-105800501D01*
X115944743Y-105800501D01*
X116097471Y-105759577D01*
X116147590Y-105730639D01*
X116234402Y-105680520D01*
X116346206Y-105568716D01*
X116346206Y-105568714D01*
X116356414Y-105558507D01*
X116356415Y-105558504D01*
X116778102Y-105136819D01*
X116839425Y-105103334D01*
X116865783Y-105100500D01*
X117325502Y-105100500D01*
X117392541Y-105120185D01*
X117438296Y-105172989D01*
X117449502Y-105224500D01*
X117449502Y-105297876D01*
X117455909Y-105357483D01*
X117506203Y-105492328D01*
X117506207Y-105492335D01*
X117592453Y-105607544D01*
X117592456Y-105607547D01*
X117707665Y-105693793D01*
X117707672Y-105693797D01*
X117842518Y-105744091D01*
X117842517Y-105744091D01*
X117849445Y-105744835D01*
X117902128Y-105750500D01*
X118997873Y-105750499D01*
X119057484Y-105744091D01*
X119065035Y-105742307D01*
X119065382Y-105743775D01*
X119126344Y-105739408D01*
X119141382Y-105743822D01*
X119142510Y-105744089D01*
X119142516Y-105744091D01*
X119202126Y-105750500D01*
X120297871Y-105750499D01*
X120357482Y-105744091D01*
X120492330Y-105693796D01*
X120607545Y-105607546D01*
X120693795Y-105492331D01*
X120744090Y-105357483D01*
X120750499Y-105297873D01*
X120750498Y-103702128D01*
X120744090Y-103642517D01*
X120695219Y-103511489D01*
X120688182Y-103454276D01*
X120705565Y-103300000D01*
X120704751Y-103292778D01*
X120685369Y-103120750D01*
X120685368Y-103120745D01*
X120650376Y-103020745D01*
X120625789Y-102950478D01*
X120529816Y-102797738D01*
X120402262Y-102670184D01*
X120249523Y-102574211D01*
X120079254Y-102514631D01*
X120079249Y-102514630D01*
X119900004Y-102494435D01*
X119899996Y-102494435D01*
X119720750Y-102514630D01*
X119720745Y-102514631D01*
X119550476Y-102574211D01*
X119397736Y-102670185D01*
X119394903Y-102672445D01*
X119392724Y-102673334D01*
X119391842Y-102673889D01*
X119391744Y-102673734D01*
X119330217Y-102698855D01*
X119317588Y-102699500D01*
X117286669Y-102699500D01*
X117286653Y-102699499D01*
X117279057Y-102699499D01*
X117120943Y-102699499D01*
X117013587Y-102728265D01*
X116968210Y-102740424D01*
X116968209Y-102740425D01*
X116933066Y-102760716D01*
X116933064Y-102760717D01*
X116831290Y-102819475D01*
X116831282Y-102819481D01*
X116719478Y-102931286D01*
X116386486Y-103264277D01*
X116325163Y-103297762D01*
X116255471Y-103292778D01*
X116199538Y-103250906D01*
X116181763Y-103217550D01*
X116175789Y-103200478D01*
X116134018Y-103134000D01*
X116079816Y-103047738D01*
X115952262Y-102920184D01*
X115947672Y-102917300D01*
X115799523Y-102824211D01*
X115629254Y-102764631D01*
X115629249Y-102764630D01*
X115450004Y-102744435D01*
X115449996Y-102744435D01*
X115270750Y-102764630D01*
X115270745Y-102764631D01*
X115100476Y-102824211D01*
X114947737Y-102920184D01*
X114903893Y-102964028D01*
X114842570Y-102997512D01*
X114772878Y-102992527D01*
X114716945Y-102950655D01*
X114699171Y-102917300D01*
X114675789Y-102850478D01*
X114656312Y-102819480D01*
X114579816Y-102697738D01*
X114452262Y-102570184D01*
X114363852Y-102514632D01*
X114299523Y-102474211D01*
X114129254Y-102414631D01*
X114129249Y-102414630D01*
X113950004Y-102394435D01*
X113949996Y-102394435D01*
X113770750Y-102414630D01*
X113770745Y-102414631D01*
X113600476Y-102474211D01*
X113514076Y-102528501D01*
X113446840Y-102547501D01*
X113380004Y-102527133D01*
X113360423Y-102511188D01*
X113136819Y-102287584D01*
X113103334Y-102226261D01*
X113100500Y-102199903D01*
X113100500Y-96227589D01*
X113120185Y-96160550D01*
X113172989Y-96114795D01*
X113210617Y-96104369D01*
X113379249Y-96085369D01*
X113379252Y-96085368D01*
X113379255Y-96085368D01*
X113549522Y-96025789D01*
X113702262Y-95929816D01*
X113829816Y-95802262D01*
X113925789Y-95649522D01*
X113985368Y-95479255D01*
X113989000Y-95447018D01*
X114016065Y-95382606D01*
X114024529Y-95373231D01*
X115640943Y-93756819D01*
X115702266Y-93723334D01*
X115728624Y-93720500D01*
X119593158Y-93720500D01*
X119660197Y-93740185D01*
X119705952Y-93792989D01*
X119710200Y-93803546D01*
X119724210Y-93843586D01*
X119724211Y-93843587D01*
X119820184Y-93996327D01*
X119947738Y-94123881D01*
X120021779Y-94170404D01*
X120051119Y-94188840D01*
X120100478Y-94219854D01*
X120169592Y-94244038D01*
X120270745Y-94279433D01*
X120270750Y-94279434D01*
X120449996Y-94299630D01*
X120450000Y-94299630D01*
X120450004Y-94299630D01*
X120629249Y-94279434D01*
X120629252Y-94279433D01*
X120629255Y-94279433D01*
X120799522Y-94219854D01*
X120847981Y-94189404D01*
X120915217Y-94170404D01*
X120982053Y-94190771D01*
X121027267Y-94244038D01*
X121030995Y-94253443D01*
X121067101Y-94356627D01*
X121067103Y-94356630D01*
X121163076Y-94509370D01*
X121290630Y-94636924D01*
X121337587Y-94666429D01*
X121383878Y-94718764D01*
X121394277Y-94781902D01*
X121394435Y-94781902D01*
X121394435Y-94782863D01*
X121394836Y-94785298D01*
X121394435Y-94788859D01*
X121394435Y-94788868D01*
X121414630Y-94968114D01*
X121414631Y-94968119D01*
X121474211Y-95138388D01*
X121566520Y-95285296D01*
X121585520Y-95352533D01*
X121565152Y-95419368D01*
X121549207Y-95438949D01*
X119961248Y-97026910D01*
X119849443Y-97138714D01*
X119849439Y-97138719D01*
X119825897Y-97179498D01*
X119825896Y-97179500D01*
X119770385Y-97275647D01*
X119729461Y-97428375D01*
X119729461Y-97428377D01*
X119729461Y-97596478D01*
X119729462Y-97596491D01*
X119729462Y-97964129D01*
X119709777Y-98031168D01*
X119702412Y-98041438D01*
X119700148Y-98044276D01*
X119604173Y-98197018D01*
X119544593Y-98367287D01*
X119544592Y-98367292D01*
X119524397Y-98546538D01*
X119524397Y-98546545D01*
X119544592Y-98725791D01*
X119544593Y-98725796D01*
X119604173Y-98896065D01*
X119669478Y-98999996D01*
X119700146Y-99048804D01*
X119827700Y-99176358D01*
X119980440Y-99272331D01*
X120051266Y-99297114D01*
X120150707Y-99331910D01*
X120150712Y-99331911D01*
X120329958Y-99352107D01*
X120329962Y-99352107D01*
X120329966Y-99352107D01*
X120509211Y-99331911D01*
X120509214Y-99331910D01*
X120509217Y-99331910D01*
X120679484Y-99272331D01*
X120832224Y-99176358D01*
X120959778Y-99048804D01*
X121055751Y-98896064D01*
X121115330Y-98725797D01*
X121123816Y-98650480D01*
X121135527Y-98546545D01*
X121135527Y-98546538D01*
X121115331Y-98367292D01*
X121115330Y-98367287D01*
X121082761Y-98274211D01*
X121055751Y-98197020D01*
X121034341Y-98162947D01*
X120959775Y-98044276D01*
X120957512Y-98041438D01*
X120956621Y-98039257D01*
X120956073Y-98038384D01*
X120956226Y-98038287D01*
X120931106Y-97976751D01*
X120930462Y-97964129D01*
X120930462Y-97807529D01*
X120950147Y-97740490D01*
X120966781Y-97719848D01*
X122141375Y-96545254D01*
X123380520Y-95306110D01*
X123459577Y-95169178D01*
X123500501Y-95016451D01*
X123500501Y-94858336D01*
X123500501Y-94850741D01*
X123500500Y-94850723D01*
X123500500Y-91700095D01*
X123520185Y-91633056D01*
X123536819Y-91612414D01*
X123707416Y-91441817D01*
X123768739Y-91408332D01*
X123795097Y-91405498D01*
X124165573Y-91405498D01*
X124165601Y-91405495D01*
X124221940Y-91405495D01*
X124221941Y-91405495D01*
X124355479Y-91386295D01*
X124355481Y-91386295D01*
X124361612Y-91385413D01*
X124364256Y-91385033D01*
X124364257Y-91385033D01*
X124502309Y-91344496D01*
X124633094Y-91284768D01*
X124754130Y-91206984D01*
X124862791Y-91112830D01*
X124862794Y-91112827D01*
X124957015Y-91004089D01*
X125034747Y-90883135D01*
X125094517Y-90752257D01*
X125135024Y-90614302D01*
X125155500Y-90471887D01*
X125155500Y-89899998D01*
X125150355Y-89828058D01*
X125139396Y-89790738D01*
X125135636Y-89738157D01*
X125155500Y-89600000D01*
X125155500Y-89028111D01*
X125135024Y-88885696D01*
X125094517Y-88747741D01*
X125034747Y-88616863D01*
X124960623Y-88501523D01*
X124959802Y-88500081D01*
X124957011Y-88495901D01*
X124862792Y-88387169D01*
X124862789Y-88387166D01*
X124750783Y-88290113D01*
X124751677Y-88289081D01*
X124713379Y-88237909D01*
X124707760Y-88206760D01*
X124706345Y-88206920D01*
X124685369Y-88020750D01*
X124685368Y-88020745D01*
X124655493Y-87935367D01*
X124625789Y-87850478D01*
X124529816Y-87697738D01*
X124402262Y-87570184D01*
X124249523Y-87474211D01*
X124079254Y-87414631D01*
X124079249Y-87414630D01*
X123900004Y-87394435D01*
X123899996Y-87394435D01*
X123720750Y-87414630D01*
X123720745Y-87414631D01*
X123550476Y-87474211D01*
X123397734Y-87570186D01*
X123397731Y-87570188D01*
X123396245Y-87571675D01*
X123395049Y-87572327D01*
X123392290Y-87574528D01*
X123391904Y-87574044D01*
X123334916Y-87605150D01*
X123265225Y-87600155D01*
X123220896Y-87571661D01*
X122078917Y-86429682D01*
X122045432Y-86368359D01*
X122050416Y-86298667D01*
X122085772Y-86249902D01*
X122085189Y-86249319D01*
X122088848Y-86245659D01*
X122089292Y-86245048D01*
X122090097Y-86244404D01*
X122090113Y-86244395D01*
X122217667Y-86116841D01*
X122313640Y-85964101D01*
X122369982Y-85803083D01*
X122410704Y-85746308D01*
X122446075Y-85726994D01*
X122449522Y-85725789D01*
X122602262Y-85629816D01*
X122729816Y-85502262D01*
X122825789Y-85349522D01*
X122885368Y-85179255D01*
X122905565Y-85000000D01*
X122903916Y-84985369D01*
X122885369Y-84820750D01*
X122885368Y-84820745D01*
X122856001Y-84736818D01*
X122825789Y-84650478D01*
X122729816Y-84497738D01*
X122602262Y-84370184D01*
X122494165Y-84302262D01*
X122449521Y-84274210D01*
X122279249Y-84214630D01*
X122192331Y-84204837D01*
X122127917Y-84177770D01*
X122118534Y-84169298D01*
X117087590Y-79138355D01*
X117087588Y-79138352D01*
X116968717Y-79019481D01*
X116968709Y-79019475D01*
X116866936Y-78960717D01*
X116866934Y-78960716D01*
X116831790Y-78940425D01*
X116831789Y-78940424D01*
X116819263Y-78937067D01*
X116679057Y-78899499D01*
X116520943Y-78899499D01*
X116513347Y-78899499D01*
X116513331Y-78899500D01*
X109282412Y-78899500D01*
X109215373Y-78879815D01*
X109205097Y-78872445D01*
X109202263Y-78870185D01*
X109202262Y-78870184D01*
X109145496Y-78834515D01*
X109049523Y-78774211D01*
X108879254Y-78714631D01*
X108879249Y-78714630D01*
X108700004Y-78694435D01*
X108699996Y-78694435D01*
X108520750Y-78714630D01*
X108520745Y-78714631D01*
X108350476Y-78774211D01*
X108197737Y-78870184D01*
X108070184Y-78997737D01*
X107974211Y-79150476D01*
X107914631Y-79320745D01*
X107914630Y-79320750D01*
X107894435Y-79499996D01*
X107894435Y-79500003D01*
X107914630Y-79679249D01*
X107914631Y-79679254D01*
X107974211Y-79849523D01*
X108070184Y-80002262D01*
X108130241Y-80062319D01*
X108163726Y-80123642D01*
X108158742Y-80193334D01*
X108130241Y-80237681D01*
X108070184Y-80297737D01*
X107974211Y-80450476D01*
X107914631Y-80620745D01*
X107914630Y-80620750D01*
X107894435Y-80799996D01*
X107894435Y-80800003D01*
X107914630Y-80979249D01*
X107914631Y-80979254D01*
X107974211Y-81149523D01*
X108052888Y-81274735D01*
X108070184Y-81302262D01*
X108197738Y-81429816D01*
X108350478Y-81525789D01*
X108443840Y-81558458D01*
X108500617Y-81599180D01*
X108526364Y-81664133D01*
X108512908Y-81732694D01*
X108464521Y-81783097D01*
X108402886Y-81799500D01*
X107279057Y-81799500D01*
X107120942Y-81799500D01*
X106968215Y-81840423D01*
X106968214Y-81840423D01*
X106968212Y-81840424D01*
X106968209Y-81840425D01*
X106918096Y-81869359D01*
X106918095Y-81869360D01*
X106874689Y-81894420D01*
X106831285Y-81919479D01*
X106831282Y-81919481D01*
X104812181Y-83938583D01*
X104750858Y-83972068D01*
X104681166Y-83967084D01*
X104625233Y-83925212D01*
X104600816Y-83859748D01*
X104600500Y-83850902D01*
X104600500Y-71820096D01*
X104620185Y-71753057D01*
X104636815Y-71732419D01*
X104818535Y-71550698D01*
X104879856Y-71517215D01*
X104892311Y-71515163D01*
X104979255Y-71505368D01*
X105149522Y-71445789D01*
X105302262Y-71349816D01*
X105302267Y-71349810D01*
X105305097Y-71347555D01*
X105307275Y-71346665D01*
X105308158Y-71346111D01*
X105308255Y-71346265D01*
X105369783Y-71321145D01*
X105382412Y-71320500D01*
X106839903Y-71320500D01*
X106906942Y-71340185D01*
X106927584Y-71356819D01*
X107463181Y-71892416D01*
X107496666Y-71953739D01*
X107499500Y-71980097D01*
X107499500Y-72617587D01*
X107479815Y-72684626D01*
X107472450Y-72694896D01*
X107470186Y-72697734D01*
X107374211Y-72850476D01*
X107314631Y-73020745D01*
X107314630Y-73020750D01*
X107294435Y-73199996D01*
X107294435Y-73200003D01*
X107314630Y-73379249D01*
X107314631Y-73379254D01*
X107374211Y-73549523D01*
X107470184Y-73702262D01*
X107597738Y-73829816D01*
X107750478Y-73925789D01*
X107874708Y-73969259D01*
X107920745Y-73985368D01*
X107920750Y-73985369D01*
X108099996Y-74005565D01*
X108100000Y-74005565D01*
X108100004Y-74005565D01*
X108279249Y-73985369D01*
X108279252Y-73985368D01*
X108279255Y-73985368D01*
X108449522Y-73925789D01*
X108602262Y-73829816D01*
X108729816Y-73702262D01*
X108825789Y-73549522D01*
X108885368Y-73379255D01*
X108885369Y-73379249D01*
X108905565Y-73200003D01*
X108905565Y-73199996D01*
X108885369Y-73020750D01*
X108885368Y-73020745D01*
X108825788Y-72850476D01*
X108729813Y-72697734D01*
X108727550Y-72694896D01*
X108726659Y-72692715D01*
X108726111Y-72691842D01*
X108726264Y-72691745D01*
X108701144Y-72630209D01*
X108700500Y-72617587D01*
X108700500Y-71769059D01*
X108700501Y-71769046D01*
X108700501Y-71600945D01*
X108700501Y-71600943D01*
X108659577Y-71448215D01*
X108602766Y-71349816D01*
X108580520Y-71311284D01*
X108468716Y-71199480D01*
X108468715Y-71199479D01*
X108464385Y-71195149D01*
X108464374Y-71195139D01*
X107627590Y-70358355D01*
X107627588Y-70358352D01*
X107581417Y-70312181D01*
X107547932Y-70250858D01*
X107552916Y-70181166D01*
X107594788Y-70125233D01*
X107660252Y-70100816D01*
X107669098Y-70100500D01*
X124251623Y-70100500D01*
X124318662Y-70120185D01*
G37*
%TD.AperFunction*%
%TA.AperFunction,Conductor*%
G36*
X108950717Y-83820185D02*
G01*
X108996472Y-83872989D01*
X109006898Y-83910617D01*
X109014630Y-83979249D01*
X109074210Y-84149521D01*
X109086637Y-84169298D01*
X109170184Y-84302262D01*
X109297738Y-84429816D01*
X109388080Y-84486582D01*
X109405833Y-84497737D01*
X109450478Y-84525789D01*
X109620745Y-84585368D01*
X109620750Y-84585369D01*
X109750803Y-84600022D01*
X109815217Y-84627088D01*
X109841912Y-84657268D01*
X109870184Y-84702262D01*
X109997738Y-84829816D01*
X110150478Y-84925789D01*
X110320745Y-84985368D01*
X110320750Y-84985369D01*
X110499996Y-85005565D01*
X110500000Y-85005565D01*
X110500004Y-85005565D01*
X110679249Y-84985369D01*
X110679252Y-84985368D01*
X110679255Y-84985368D01*
X110849522Y-84925789D01*
X111002262Y-84829816D01*
X111095260Y-84736818D01*
X111156584Y-84703334D01*
X111182941Y-84700500D01*
X111550903Y-84700500D01*
X111617942Y-84720185D01*
X111663697Y-84772989D01*
X111673641Y-84842147D01*
X111644616Y-84905703D01*
X111638584Y-84912179D01*
X110230551Y-86320213D01*
X108864129Y-87686635D01*
X108752324Y-87798439D01*
X108752322Y-87798442D01*
X108702204Y-87885251D01*
X108702202Y-87885253D01*
X108673268Y-87935366D01*
X108673267Y-87935367D01*
X108673266Y-87935372D01*
X108632342Y-88088100D01*
X108632342Y-88088102D01*
X108632342Y-88256203D01*
X108632343Y-88256216D01*
X108632343Y-93446173D01*
X108632342Y-93446191D01*
X108632342Y-93611897D01*
X108632341Y-93611897D01*
X108643157Y-93652261D01*
X108673266Y-93764628D01*
X108673267Y-93764629D01*
X108689311Y-93792420D01*
X108689312Y-93792421D01*
X108752318Y-93901552D01*
X108752324Y-93901560D01*
X108871192Y-94020428D01*
X108871198Y-94020433D01*
X110063181Y-95212416D01*
X110096666Y-95273739D01*
X110099500Y-95300097D01*
X110099500Y-96902690D01*
X110079815Y-96969729D01*
X110063181Y-96990371D01*
X109753553Y-97299999D01*
X109753553Y-97300001D01*
X110063181Y-97609629D01*
X110096666Y-97670952D01*
X110099500Y-97697310D01*
X110099500Y-104263330D01*
X110099499Y-104263348D01*
X110099499Y-104270943D01*
X110099499Y-104429057D01*
X110103343Y-104443406D01*
X110101683Y-104513254D01*
X110062522Y-104571117D01*
X109998294Y-104598623D01*
X109983570Y-104599500D01*
X109100097Y-104599500D01*
X109033058Y-104579815D01*
X109012416Y-104563181D01*
X108836819Y-104387584D01*
X108803334Y-104326261D01*
X108800500Y-104299903D01*
X108800500Y-99582412D01*
X108820185Y-99515373D01*
X108827555Y-99505097D01*
X108829810Y-99502267D01*
X108829816Y-99502262D01*
X108925789Y-99349522D01*
X108985368Y-99179255D01*
X108985369Y-99179249D01*
X109005565Y-99000003D01*
X109005565Y-98999996D01*
X108985369Y-98820750D01*
X108985368Y-98820745D01*
X108944127Y-98702885D01*
X108925789Y-98650478D01*
X108829816Y-98497738D01*
X108702262Y-98370184D01*
X108697651Y-98367287D01*
X108549523Y-98274211D01*
X108502582Y-98257786D01*
X108445806Y-98217064D01*
X108420059Y-98152111D01*
X108433515Y-98083550D01*
X108481902Y-98033147D01*
X108502582Y-98023703D01*
X108626713Y-97980266D01*
X108626714Y-97980266D01*
X109073285Y-97980266D01*
X109232056Y-98035824D01*
X109399996Y-98054746D01*
X109400004Y-98054746D01*
X109567943Y-98035824D01*
X109726713Y-97980267D01*
X109726714Y-97980266D01*
X109400001Y-97653553D01*
X109400000Y-97653553D01*
X109073285Y-97980266D01*
X108626714Y-97980266D01*
X108300001Y-97653553D01*
X108300000Y-97653553D01*
X107973285Y-97980266D01*
X107997417Y-97988711D01*
X108054193Y-98029432D01*
X108079940Y-98094385D01*
X108066484Y-98162947D01*
X108018096Y-98213349D01*
X107997417Y-98222793D01*
X107850480Y-98274209D01*
X107697737Y-98370184D01*
X107570184Y-98497737D01*
X107474209Y-98650480D01*
X107441541Y-98743840D01*
X107400820Y-98800616D01*
X107335867Y-98826363D01*
X107267305Y-98812907D01*
X107216903Y-98764519D01*
X107200500Y-98702885D01*
X107200500Y-97299996D01*
X107545254Y-97299996D01*
X107545254Y-97300003D01*
X107564175Y-97467938D01*
X107564176Y-97467943D01*
X107619732Y-97626714D01*
X107946447Y-97300000D01*
X107926556Y-97280109D01*
X108200000Y-97280109D01*
X108200000Y-97319891D01*
X108215224Y-97356645D01*
X108243355Y-97384776D01*
X108280109Y-97400000D01*
X108319891Y-97400000D01*
X108356645Y-97384776D01*
X108384776Y-97356645D01*
X108400000Y-97319891D01*
X108400000Y-97300000D01*
X108653553Y-97300000D01*
X108850000Y-97496447D01*
X109046447Y-97300000D01*
X109026556Y-97280109D01*
X109300000Y-97280109D01*
X109300000Y-97319891D01*
X109315224Y-97356645D01*
X109343355Y-97384776D01*
X109380109Y-97400000D01*
X109419891Y-97400000D01*
X109456645Y-97384776D01*
X109484776Y-97356645D01*
X109500000Y-97319891D01*
X109500000Y-97280109D01*
X109484776Y-97243355D01*
X109456645Y-97215224D01*
X109419891Y-97200000D01*
X109380109Y-97200000D01*
X109343355Y-97215224D01*
X109315224Y-97243355D01*
X109300000Y-97280109D01*
X109026556Y-97280109D01*
X108850000Y-97103553D01*
X108653553Y-97300000D01*
X108400000Y-97300000D01*
X108400000Y-97280109D01*
X108384776Y-97243355D01*
X108356645Y-97215224D01*
X108319891Y-97200000D01*
X108280109Y-97200000D01*
X108243355Y-97215224D01*
X108215224Y-97243355D01*
X108200000Y-97280109D01*
X107926556Y-97280109D01*
X107619732Y-96973285D01*
X107564176Y-97132053D01*
X107564175Y-97132058D01*
X107545254Y-97299996D01*
X107200500Y-97299996D01*
X107200500Y-96619732D01*
X107973285Y-96619732D01*
X108300000Y-96946447D01*
X108300001Y-96946447D01*
X108626714Y-96619732D01*
X109073285Y-96619732D01*
X109400000Y-96946447D01*
X109400001Y-96946447D01*
X109726714Y-96619732D01*
X109567943Y-96564176D01*
X109567938Y-96564175D01*
X109400004Y-96545254D01*
X109399996Y-96545254D01*
X109232058Y-96564175D01*
X109232053Y-96564176D01*
X109073285Y-96619732D01*
X108626714Y-96619732D01*
X108467943Y-96564176D01*
X108467938Y-96564175D01*
X108300004Y-96545254D01*
X108299996Y-96545254D01*
X108132058Y-96564175D01*
X108132053Y-96564176D01*
X107973285Y-96619732D01*
X107200500Y-96619732D01*
X107200500Y-85300097D01*
X107220185Y-85233058D01*
X107236819Y-85212416D01*
X108612416Y-83836819D01*
X108673739Y-83803334D01*
X108700097Y-83800500D01*
X108883678Y-83800500D01*
X108950717Y-83820185D01*
G37*
%TD.AperFunction*%
%TA.AperFunction,Conductor*%
G36*
X117535570Y-84720185D02*
G01*
X117556212Y-84736819D01*
X120963181Y-88143788D01*
X120996666Y-88205111D01*
X120999500Y-88231469D01*
X120999500Y-91869565D01*
X120979815Y-91936604D01*
X120927011Y-91982359D01*
X120857853Y-91992303D01*
X120809532Y-91974561D01*
X120799526Y-91968274D01*
X120629254Y-91908693D01*
X120629249Y-91908692D01*
X120450004Y-91888497D01*
X120449996Y-91888497D01*
X120270750Y-91908692D01*
X120270745Y-91908693D01*
X120100476Y-91968273D01*
X119947736Y-92064247D01*
X119944903Y-92066507D01*
X119942724Y-92067396D01*
X119941842Y-92067951D01*
X119941744Y-92067796D01*
X119880217Y-92092917D01*
X119867588Y-92093562D01*
X118824928Y-92093562D01*
X118757889Y-92073877D01*
X118712134Y-92021073D01*
X118701708Y-91983445D01*
X118685370Y-91838436D01*
X118685369Y-91838431D01*
X118625789Y-91668162D01*
X118529816Y-91515423D01*
X118402263Y-91387870D01*
X118249522Y-91291896D01*
X118079250Y-91232316D01*
X117992331Y-91222523D01*
X117927917Y-91195456D01*
X117918534Y-91186984D01*
X117069905Y-90338355D01*
X117069903Y-90338352D01*
X116951032Y-90219481D01*
X116951031Y-90219480D01*
X116862233Y-90168213D01*
X116814100Y-90140423D01*
X116661372Y-90099499D01*
X116503258Y-90099499D01*
X116495662Y-90099499D01*
X116495646Y-90099500D01*
X115700097Y-90099500D01*
X115633058Y-90079815D01*
X115612416Y-90063181D01*
X114250964Y-88701729D01*
X114217479Y-88640406D01*
X114214645Y-88614048D01*
X114214645Y-86782412D01*
X114234330Y-86715373D01*
X114241700Y-86705097D01*
X114243955Y-86702267D01*
X114243961Y-86702262D01*
X114339934Y-86549522D01*
X114399513Y-86379255D01*
X114400741Y-86368359D01*
X114419710Y-86200003D01*
X114419710Y-86199996D01*
X114412768Y-86138383D01*
X114424823Y-86069561D01*
X114472172Y-86018182D01*
X114535988Y-86000500D01*
X115517588Y-86000500D01*
X115584627Y-86020185D01*
X115594903Y-86027555D01*
X115597736Y-86029814D01*
X115597738Y-86029816D01*
X115750478Y-86125789D01*
X115786470Y-86138383D01*
X115920745Y-86185368D01*
X115920750Y-86185369D01*
X116099996Y-86205565D01*
X116100000Y-86205565D01*
X116100004Y-86205565D01*
X116279249Y-86185369D01*
X116279252Y-86185368D01*
X116279255Y-86185368D01*
X116449522Y-86125789D01*
X116602262Y-86029816D01*
X116729816Y-85902262D01*
X116825789Y-85749522D01*
X116885368Y-85579255D01*
X116905565Y-85400000D01*
X116886755Y-85233058D01*
X116885369Y-85220750D01*
X116885368Y-85220745D01*
X116825788Y-85050476D01*
X116779319Y-84976521D01*
X116729816Y-84897738D01*
X116729815Y-84897737D01*
X116726111Y-84891842D01*
X116728409Y-84890397D01*
X116706659Y-84837151D01*
X116719401Y-84768453D01*
X116767261Y-84717550D01*
X116830012Y-84700500D01*
X117468531Y-84700500D01*
X117535570Y-84720185D01*
G37*
%TD.AperFunction*%
%TD*%
M02*
