M48
; DRILL file {KiCad 8.0.2-1} date 2025-01-02T17:14:33+0700
; FORMAT={-:-/ absolute / metric / decimal}
; #@! TF.CreationDate,2025-01-02T17:14:33+07:00
; #@! TF.GenerationSoftware,Kicad,Pcbnew,8.0.2-1
; #@! TF.FileFunction,Plated,1,2,PTH
FMAT,2
METRIC
; #@! TA.AperFunction,Plated,PTH,ComponentDrill
T1C0.200
; #@! TA.AperFunction,Plated,PTH,ViaDrill
T2C0.300
; #@! TA.AperFunction,Plated,PTH,ComponentDrill
T3C1.000
%
G90
G05
T1
X115.85Y-92.0
X116.95Y-92.0
T2
X105.1Y-100.3
X106.4Y-101.6
X107.25Y-73.85
X108.9Y-92.9
X110.2Y-106.2
X110.25Y-103.3
X111.2Y-74.4
X111.2Y-75.4
X111.6Y-90.9
X111.7Y-103.3
X111.8Y-106.2
X112.2Y-74.4
X112.2Y-75.4
X112.22Y-94.8
X112.8Y-93.5
X113.2Y-74.4
X113.2Y-75.4
X113.4Y-106.2
X114.2Y-74.4
X114.2Y-75.4
X114.8Y-106.2
X115.2Y-74.4
X115.2Y-75.4
X115.35Y-85.8
X115.6Y-93.7
X116.15Y-85.8
X116.2Y-74.4
X116.2Y-75.4
X116.2Y-106.2
X117.75Y-103.25
X118.1Y-94.6
X118.186Y-93.638
X118.4Y-84.6
X118.4Y-85.8
X118.4Y-87.0
X119.25Y-103.85
X119.515Y-75.965
X119.7Y-80.3
X119.7Y-81.4
X120.311Y-76.041
X120.492Y-93.9
X120.75Y-98.8
X121.6Y-82.8
X121.6Y-84.0
X121.6Y-85.2
X122.2Y-87.8
X124.8Y-78.6
T3
X106.49Y-97.15
X109.03Y-97.15
X111.57Y-97.15
X114.11Y-97.15
X116.65Y-97.15
M30
