%TF.GenerationSoftware,KiCad,Pcbnew,8.0.2-1*%
%TF.CreationDate,2025-01-02T17:14:25+07:00*%
%TF.ProjectId,ESP32-iPod-BLE,45535033-322d-4695-906f-642d424c452e,rev?*%
%TF.SameCoordinates,Original*%
%TF.FileFunction,Paste,Top*%
%TF.FilePolarity,Positive*%
%FSLAX46Y46*%
G04 Gerber Fmt 4.6, Leading zero omitted, Abs format (unit mm)*
G04 Created by KiCad (PCBNEW 8.0.2-1) date 2025-01-02 17:14:25*
%MOMM*%
%LPD*%
G01*
G04 APERTURE LIST*
G04 Aperture macros list*
%AMRoundRect*
0 Rectangle with rounded corners*
0 $1 Rounding radius*
0 $2 $3 $4 $5 $6 $7 $8 $9 X,Y pos of 4 corners*
0 Add a 4 corners polygon primitive as box body*
4,1,4,$2,$3,$4,$5,$6,$7,$8,$9,$2,$3,0*
0 Add four circle primitives for the rounded corners*
1,1,$1+$1,$2,$3*
1,1,$1+$1,$4,$5*
1,1,$1+$1,$6,$7*
1,1,$1+$1,$8,$9*
0 Add four rect primitives between the rounded corners*
20,1,$1+$1,$2,$3,$4,$5,0*
20,1,$1+$1,$4,$5,$6,$7,0*
20,1,$1+$1,$6,$7,$8,$9,0*
20,1,$1+$1,$8,$9,$2,$3,0*%
G04 Aperture macros list end*
%ADD10R,0.200000X0.600000*%
%ADD11R,0.250000X0.150000*%
%ADD12R,0.600000X0.200000*%
%ADD13RoundRect,0.140000X-0.140000X-0.170000X0.140000X-0.170000X0.140000X0.170000X-0.140000X0.170000X0*%
%ADD14RoundRect,0.140000X0.140000X0.170000X-0.140000X0.170000X-0.140000X-0.170000X0.140000X-0.170000X0*%
%ADD15RoundRect,0.250000X0.250000X0.475000X-0.250000X0.475000X-0.250000X-0.475000X0.250000X-0.475000X0*%
%ADD16RoundRect,0.135000X-0.185000X0.135000X-0.185000X-0.135000X0.185000X-0.135000X0.185000X0.135000X0*%
%ADD17RoundRect,0.093750X-0.106250X0.093750X-0.106250X-0.093750X0.106250X-0.093750X0.106250X0.093750X0*%
%ADD18RoundRect,0.172500X-0.172500X0.262500X-0.172500X-0.262500X0.172500X-0.262500X0.172500X0.262500X0*%
%ADD19RoundRect,0.218750X0.256250X-0.218750X0.256250X0.218750X-0.256250X0.218750X-0.256250X-0.218750X0*%
%ADD20R,1.500000X0.900000*%
%ADD21R,0.900000X1.500000*%
%ADD22R,0.900000X0.900000*%
%ADD23RoundRect,0.175000X-0.175000X-1.175000X0.175000X-1.175000X0.175000X1.175000X-0.175000X1.175000X0*%
%ADD24RoundRect,0.250000X-0.300000X-0.700000X0.300000X-0.700000X0.300000X0.700000X-0.300000X0.700000X0*%
G04 APERTURE END LIST*
D10*
%TO.C,U3*%
X121000000Y-92700000D03*
D11*
X120825000Y-92475000D03*
D10*
X121400000Y-92700000D03*
X121800000Y-92700000D03*
X122200000Y-92700000D03*
X122600000Y-92700000D03*
D12*
X122600000Y-92050000D03*
D10*
X122600000Y-91400000D03*
X122200000Y-91400000D03*
X121800000Y-91400000D03*
X121400000Y-91400000D03*
X121000000Y-91400000D03*
D12*
X121000000Y-92050000D03*
%TD*%
D13*
%TO.C,C3*%
X119000000Y-92900000D03*
X119960000Y-92900000D03*
%TD*%
D14*
%TO.C,C4*%
X120080000Y-91300000D03*
X119120000Y-91300000D03*
%TD*%
%TO.C,C1*%
X106330000Y-92850000D03*
X105370000Y-92850000D03*
%TD*%
D15*
%TO.C,C2*%
X107599999Y-91300000D03*
X105700001Y-91300000D03*
%TD*%
D16*
%TO.C,R2*%
X105200000Y-101740001D03*
X105200000Y-102759999D03*
%TD*%
%TO.C,R1*%
X108900000Y-90940001D03*
X108900000Y-91959999D03*
%TD*%
D17*
%TO.C,U1*%
X117050000Y-92887500D03*
X116400000Y-92887500D03*
X115750000Y-92887500D03*
X115750000Y-91112500D03*
X116400000Y-91112500D03*
X117050000Y-91112500D03*
D18*
X116000000Y-92000000D03*
X116800000Y-92000000D03*
%TD*%
D19*
%TO.C,D1*%
X105200000Y-106175002D03*
X105200000Y-104600000D03*
%TD*%
D20*
%TO.C,U2*%
X106000000Y-71240000D03*
X106000000Y-72510000D03*
X106000000Y-73780000D03*
X106000000Y-75050000D03*
X106000000Y-76320000D03*
X106000000Y-77590000D03*
X106000000Y-78860000D03*
X106000000Y-80130000D03*
X106000000Y-81400000D03*
X106000000Y-82670000D03*
X106000000Y-83940000D03*
X106000000Y-85210000D03*
X106000000Y-86480000D03*
X106000000Y-87750000D03*
D21*
X109030000Y-89000000D03*
X110300000Y-89000000D03*
X111570000Y-89000000D03*
X112840000Y-89000000D03*
X114110000Y-89000000D03*
X115380000Y-89000000D03*
X116650000Y-89000000D03*
X117920000Y-89000000D03*
X119190000Y-89000000D03*
X120460000Y-89000000D03*
D20*
X123500000Y-87750000D03*
X123500000Y-86480000D03*
X123500000Y-85210000D03*
X123500000Y-83940000D03*
X123500000Y-82670000D03*
X123500000Y-81400000D03*
X123500000Y-80130000D03*
X123500000Y-78860000D03*
X123500000Y-77590000D03*
X123500000Y-76320000D03*
X123500000Y-75050000D03*
X123500000Y-73780000D03*
X123500000Y-72510000D03*
X123500000Y-71240000D03*
D22*
X111850000Y-77560000D03*
X111850000Y-77560000D03*
X111850000Y-78960000D03*
X111850000Y-80360000D03*
X111850000Y-80360000D03*
X113250000Y-77560000D03*
X113250000Y-78960000D03*
X113250000Y-80360000D03*
X113250000Y-80360000D03*
X114650000Y-77560000D03*
X114650000Y-78960000D03*
X114650000Y-80360000D03*
%TD*%
D23*
%TO.C,J1*%
X110250000Y-101150000D03*
X111750000Y-101150000D03*
X113250000Y-101150000D03*
X114750000Y-101150000D03*
X116250000Y-101150000D03*
X117750000Y-101150000D03*
X119250000Y-101150000D03*
X120750000Y-101150000D03*
X122250000Y-101150000D03*
D24*
X108300000Y-104850000D03*
X124200000Y-104850000D03*
%TD*%
M02*
